<svg width="80" height="80" viewBox="0 0 80 80" fill="none" xmlns="http://www.w3.org/2000/svg">
<path d="M48.884 27.66L41.2 12.0827C41.0775 11.8748 40.9028 11.7025 40.6933 11.5827C40.4838 11.463 40.2467 11.4 40.0053 11.4C39.764 11.4 39.5269 11.463 39.3174 11.5827C39.1078 11.7025 38.9332 11.8748 38.8107 12.0827L31.116 27.66L13.924 30.1587C13.6777 30.1944 13.4464 30.2984 13.2561 30.4588C13.0659 30.6192 12.9243 30.8297 12.8475 31.0664C12.7706 31.303 12.7615 31.5565 12.8212 31.7981C12.8809 32.0397 13.0071 32.2597 13.1853 32.4334L25.6267 44.5587L22.6933 61.68C22.6513 61.9252 22.6788 62.1773 22.7725 62.4077C22.8663 62.6381 23.0226 62.8377 23.2239 62.984C23.4252 63.1302 23.6634 63.2171 23.9115 63.2351C24.1596 63.253 24.4078 63.2011 24.628 63.0853L40 55.0013L55.376 63.0853C55.5962 63.2011 55.8444 63.253 56.0925 63.2351C56.3407 63.2171 56.5788 63.1302 56.7801 62.984C56.9814 62.8377 57.1377 62.6381 57.2315 62.4077C57.3253 62.1773 57.3527 61.9252 57.3107 61.68L54.3773 44.5587L66.8187 32.4334C66.9969 32.2597 67.1231 32.0397 67.1828 31.7981C67.2425 31.5565 67.2334 31.303 67.1565 31.0664C67.0797 30.8297 66.9381 30.6192 66.7479 30.4588C66.5576 30.2984 66.3263 30.1944 66.08 30.1587L48.884 27.66ZM52.0107 43.1387C51.856 43.2896 51.7404 43.4759 51.6738 43.6815C51.6071 43.887 51.5914 44.1057 51.628 44.3187L54.2267 59.4667L40.6267 52.3134C40.4353 52.2135 40.2226 52.1613 40.0067 52.1613C39.7908 52.1613 39.5781 52.2135 39.3867 52.3134L25.7733 59.4667L28.372 44.3173C28.4086 44.1044 28.3929 43.8857 28.3263 43.6801C28.2596 43.4746 28.144 43.2883 27.9893 43.1374L16.9813 32.408L32.1933 30.1974C32.4079 30.1666 32.6117 30.0839 32.7871 29.9566C32.9625 29.8293 33.1042 29.6611 33.2 29.4667L40 15.6854L46.8 29.4667C46.8956 29.6604 47.0367 29.8279 47.2114 29.955C47.3861 30.082 47.589 30.1647 47.8027 30.196L63.0147 32.4067L52.0107 43.1387Z" fill="white"/>
<path d="M53.8667 23.804C54.2203 23.8039 54.5594 23.6634 54.8093 23.4133L60.3107 17.9133C60.5536 17.6618 60.688 17.325 60.6849 16.9754C60.6819 16.6258 60.5416 16.2914 60.2944 16.0442C60.0472 15.797 59.7128 15.6568 59.3632 15.6537C59.0136 15.6507 58.6768 15.7851 58.4253 16.028L52.924 21.528C52.7376 21.7144 52.6107 21.952 52.5592 22.2106C52.5078 22.4692 52.5342 22.7372 52.6351 22.9808C52.736 23.2244 52.9069 23.4327 53.1261 23.5792C53.3453 23.7257 53.603 23.8039 53.8667 23.804Z" fill="white"/>
<path d="M25.6 23.5853C25.8515 23.8282 26.1883 23.9625 26.5379 23.9595C26.8875 23.9565 27.2219 23.8162 27.4691 23.569C27.7163 23.3218 27.8565 22.9874 27.8596 22.6378C27.8626 22.2882 27.7282 21.9514 27.4853 21.6999L22.844 17.0586C22.5925 16.8157 22.2557 16.6813 21.9061 16.6844C21.5565 16.6874 21.2221 16.8276 20.9749 17.0749C20.7277 17.3221 20.5875 17.6565 20.5844 18.0061C20.5814 18.3557 20.7158 18.6925 20.9587 18.9439L25.6 23.5853Z" fill="white"/>
<path d="M62.028 47.2521C61.7778 47.0019 61.4385 46.8613 61.0847 46.8613C60.7308 46.8613 60.3915 47.0019 60.1413 47.2521C59.8911 47.5023 59.7506 47.8416 59.7506 48.1954C59.7506 48.5492 59.8911 48.8886 60.1413 49.1387L64.3533 53.3494C64.6063 53.5826 64.9397 53.7089 65.2836 53.7021C65.6276 53.6952 65.9557 53.5556 66.1991 53.3125C66.4426 53.0694 66.5826 52.7415 66.59 52.3976C66.5974 52.0536 66.4715 51.7201 66.2387 51.4667L62.028 47.2521Z" fill="white"/>
<path d="M19.2333 47.252L14.0267 52.46C13.8993 52.583 13.7978 52.7301 13.7279 52.8928C13.658 53.0554 13.6212 53.2304 13.6197 53.4074C13.6181 53.5845 13.6519 53.76 13.7189 53.9239C13.786 54.0878 13.885 54.2366 14.0102 54.3618C14.1353 54.487 14.2842 54.586 14.4481 54.6531C14.6119 54.7201 14.7875 54.7538 14.9645 54.7523C15.1416 54.7508 15.3165 54.714 15.4792 54.6441C15.6419 54.5742 15.789 54.4726 15.912 54.3453L21.112 49.1386C21.3622 48.8886 21.5028 48.5495 21.5029 48.1958C21.5031 47.8421 21.3627 47.5028 21.1127 47.2526C20.8627 47.0024 20.5235 46.8618 20.1698 46.8617C19.8161 46.8616 19.4769 47.002 19.2267 47.252H19.2333Z" fill="white"/>
<path d="M40 60.572C39.6464 60.572 39.3072 60.7125 39.0572 60.9625C38.8071 61.2126 38.6667 61.5517 38.6667 61.9054V67.3334C38.6667 67.687 38.8071 68.0261 39.0572 68.2762C39.3072 68.5262 39.6464 68.6667 40 68.6667C40.3536 68.6667 40.6928 68.5262 40.9428 68.2762C41.1928 68.0261 41.3333 67.687 41.3333 67.3334V61.9054C41.3333 61.5517 41.1928 61.2126 40.9428 60.9625C40.6928 60.7125 40.3536 60.572 40 60.572Z" fill="white"/>
<path d="M40 0C32.0888 0 24.3552 2.34596 17.7772 6.74121C11.1992 11.1365 6.07234 17.3836 3.04484 24.6927C0.0173318 32.0017 -0.774802 40.0444 0.768607 47.8036C2.31202 55.5628 6.12165 62.6902 11.7157 68.2843C17.3098 73.8784 24.4372 77.688 32.1964 79.2314C39.9556 80.7748 47.9983 79.9827 55.3074 76.9552C62.6164 73.9277 68.8635 68.8008 73.2588 62.2228C77.6541 55.6448 80 47.9112 80 40C79.988 29.395 75.7699 19.2278 68.271 11.729C60.7722 4.23012 50.605 0.0119986 40 0ZM40 77.3333C32.6162 77.3333 25.3982 75.1438 19.2587 71.0415C13.1193 66.9393 8.33419 61.1086 5.50851 54.2868C2.68284 47.4651 1.94352 39.9586 3.38403 32.7166C4.82455 25.4747 8.3802 18.8225 13.6014 13.6013C18.8225 8.38019 25.4747 4.82453 32.7166 3.38402C39.9586 1.9435 47.4651 2.68283 54.2869 5.5085C61.1086 8.33417 66.9393 13.1193 71.0415 19.2587C75.1438 25.3981 77.3333 32.6162 77.3333 40C77.3221 49.8979 73.3851 59.3873 66.3862 66.3862C59.3873 73.3851 49.898 77.322 40 77.3333Z" fill="white"/>
</svg>
