<svg width="84" height="83" viewBox="0 0 84 83" fill="none" xmlns="http://www.w3.org/2000/svg">
<path d="M41.5862 61.5431C52.7031 61.5431 61.7152 52.531 61.7152 41.4141C61.7152 30.2971 52.7031 21.285 41.5862 21.285C30.4692 21.285 21.4572 30.2971 21.4572 41.4141C21.4572 52.531 30.4692 61.5431 41.5862 61.5431Z" stroke="white" stroke-width="3" stroke-miterlimit="10" stroke-linecap="round" stroke-linejoin="round"/>
<mask id="path-2-inside-1_136_1100" fill="white">
<path d="M47.4356 47.9517C46.9195 48.6399 46.2313 49.156 45.3711 49.6721C44.5109 50.0162 43.4786 50.3603 42.2743 50.3603V52.0807C42.2743 52.2528 42.2743 52.4248 42.1023 52.5968C41.9303 52.7689 41.7582 52.7689 41.5862 52.7689C41.4141 52.7689 41.2421 52.7689 41.07 52.5968C40.898 52.4248 40.898 52.2528 40.898 52.0807V50.3603C39.1776 50.1882 37.4571 49.8442 35.9088 49.156C35.7367 49.156 35.5647 48.9839 35.3926 48.8119C35.2206 48.6399 35.2206 48.4678 35.2206 48.1237C35.2206 47.7796 35.3926 47.6076 35.5647 47.4356C35.7367 47.2635 36.0808 47.0915 36.2528 47.0915C36.4249 47.0915 36.5969 47.0915 36.769 47.2635C38.1453 47.7796 39.5217 48.1237 41.07 48.2958V42.6183C39.8657 42.2743 39.0055 41.9302 38.1453 41.5861C37.4571 41.242 36.769 40.7259 36.2528 40.0377C35.7367 39.3495 35.5647 38.6614 35.5647 37.6291C35.5647 36.7689 35.7367 35.9087 36.2528 35.2205C36.5969 34.5323 37.2851 33.8442 38.1453 33.328C39.0055 32.8119 40.0378 32.6398 41.2421 32.4678V30.7474C41.2421 30.5753 41.2421 30.4033 41.4141 30.2312C41.5862 30.0592 41.7582 30.0592 41.9303 30.0592C42.1023 30.0592 42.2743 30.0592 42.4464 30.2312C42.6184 30.4033 42.6184 30.5753 42.6184 30.7474V32.4678C44.1668 32.4678 45.7152 32.8119 46.9195 33.328C47.4356 33.5001 47.6077 33.8442 47.6077 34.3603C47.6077 34.7044 47.4356 34.8764 47.2636 35.0485C47.0915 35.2205 46.9195 35.3925 46.5754 35.3925C46.4034 35.3925 46.4034 35.3925 46.2313 35.2205C45.027 34.8764 43.8227 34.5323 42.6184 34.5323V40.3818C43.8227 40.7259 44.855 40.8979 45.5432 41.242C46.2313 41.5861 46.9195 42.1022 47.4356 42.7904C47.9518 43.4786 48.2959 44.3388 48.2959 45.371C48.1238 46.4033 47.7797 47.0915 47.4356 47.9517ZM38.3174 39.1775C38.8335 39.5216 39.6937 39.8657 40.726 40.2097V34.7044C39.6937 34.8764 39.0055 35.2205 38.3174 35.5646C37.8012 36.0807 37.4571 36.5968 37.4571 37.4571C37.4571 38.1452 37.8012 38.6614 38.3174 39.1775ZM45.8872 45.371C45.8872 44.6829 45.5432 44.1667 45.027 43.8226C44.5109 43.4786 43.4786 43.1345 42.4464 42.7904V48.1237C44.6829 47.9517 45.8872 47.0915 45.8872 45.371Z"/>
</mask>
<path d="M47.4356 47.9517C46.9195 48.6399 46.2313 49.156 45.3711 49.6721C44.5109 50.0162 43.4786 50.3603 42.2743 50.3603V52.0807C42.2743 52.2528 42.2743 52.4248 42.1023 52.5968C41.9303 52.7689 41.7582 52.7689 41.5862 52.7689C41.4141 52.7689 41.2421 52.7689 41.07 52.5968C40.898 52.4248 40.898 52.2528 40.898 52.0807V50.3603C39.1776 50.1882 37.4571 49.8442 35.9088 49.156C35.7367 49.156 35.5647 48.9839 35.3926 48.8119C35.2206 48.6399 35.2206 48.4678 35.2206 48.1237C35.2206 47.7796 35.3926 47.6076 35.5647 47.4356C35.7367 47.2635 36.0808 47.0915 36.2528 47.0915C36.4249 47.0915 36.5969 47.0915 36.769 47.2635C38.1453 47.7796 39.5217 48.1237 41.07 48.2958V42.6183C39.8657 42.2743 39.0055 41.9302 38.1453 41.5861C37.4571 41.242 36.769 40.7259 36.2528 40.0377C35.7367 39.3495 35.5647 38.6614 35.5647 37.6291C35.5647 36.7689 35.7367 35.9087 36.2528 35.2205C36.5969 34.5323 37.2851 33.8442 38.1453 33.328C39.0055 32.8119 40.0378 32.6398 41.2421 32.4678V30.7474C41.2421 30.5753 41.2421 30.4033 41.4141 30.2312C41.5862 30.0592 41.7582 30.0592 41.9303 30.0592C42.1023 30.0592 42.2743 30.0592 42.4464 30.2312C42.6184 30.4033 42.6184 30.5753 42.6184 30.7474V32.4678C44.1668 32.4678 45.7152 32.8119 46.9195 33.328C47.4356 33.5001 47.6077 33.8442 47.6077 34.3603C47.6077 34.7044 47.4356 34.8764 47.2636 35.0485C47.0915 35.2205 46.9195 35.3925 46.5754 35.3925C46.4034 35.3925 46.4034 35.3925 46.2313 35.2205C45.027 34.8764 43.8227 34.5323 42.6184 34.5323V40.3818C43.8227 40.7259 44.855 40.8979 45.5432 41.242C46.2313 41.5861 46.9195 42.1022 47.4356 42.7904C47.9518 43.4786 48.2959 44.3388 48.2959 45.371C48.1238 46.4033 47.7797 47.0915 47.4356 47.9517ZM38.3174 39.1775C38.8335 39.5216 39.6937 39.8657 40.726 40.2097V34.7044C39.6937 34.8764 39.0055 35.2205 38.3174 35.5646C37.8012 36.0807 37.4571 36.5968 37.4571 37.4571C37.4571 38.1452 37.8012 38.6614 38.3174 39.1775ZM45.8872 45.371C45.8872 44.6829 45.5432 44.1667 45.027 43.8226C44.5109 43.4786 43.4786 43.1345 42.4464 42.7904V48.1237C44.6829 47.9517 45.8872 47.0915 45.8872 45.371Z" fill="black"/>
<path d="M47.4356 47.9517L49.8356 49.7517L50.0737 49.4343L50.2211 49.0658L47.4356 47.9517ZM45.3711 49.6721L46.4853 52.4575L46.7085 52.3683L46.9146 52.2446L45.3711 49.6721ZM42.2743 50.3603V47.3603H39.2743V50.3603H42.2743ZM40.898 50.3603H43.898V47.6453L41.1965 47.3752L40.898 50.3603ZM35.9088 49.156L37.1272 46.4145L36.5454 46.156H35.9088V49.156ZM36.769 47.2635L34.6477 49.3848L35.1071 49.8443L35.7156 50.0725L36.769 47.2635ZM41.07 48.2958L40.7388 51.2774L44.07 51.6476V48.2958H41.07ZM41.07 42.6183H44.07V40.3554L41.8942 39.7338L41.07 42.6183ZM38.1453 41.5861L36.8037 44.2694L36.9153 44.3252L37.0311 44.3715L38.1453 41.5861ZM36.2528 35.2205L38.6528 37.0205L38.8151 36.8041L38.9361 36.5621L36.2528 35.2205ZM41.2421 32.4678L41.6664 35.4377L44.2421 35.0697V32.4678H41.2421ZM42.6184 32.4678H39.6184V35.4678H42.6184V32.4678ZM46.9195 33.328L45.7378 36.0855L45.8524 36.1346L45.9708 36.1741L46.9195 33.328ZM46.2313 35.2205L48.3527 33.0992L47.803 32.5495L47.0555 32.3359L46.2313 35.2205ZM42.6184 34.5323V31.5323H39.6184V34.5323H42.6184ZM42.6184 40.3818H39.6184V42.6447L41.7943 43.2664L42.6184 40.3818ZM48.2959 45.371L51.255 45.8642L51.2959 45.6193V45.371H48.2959ZM38.3174 39.1775L36.196 41.2988L36.4061 41.5089L36.6533 41.6736L38.3174 39.1775ZM40.726 40.2097L39.7773 43.0558L43.726 44.372V40.2097H40.726ZM40.726 34.7044H43.726V31.163L40.2328 31.7452L40.726 34.7044ZM38.3174 35.5646L36.9757 32.8813L36.5403 33.099L36.196 33.4433L38.3174 35.5646ZM42.4464 42.7904L43.3951 39.9443L39.4464 38.6281V42.7904H42.4464ZM42.4464 48.1237H39.4464V51.3634L42.6765 51.1149L42.4464 48.1237ZM47.4356 47.9517L45.0356 46.1517C44.8618 46.3835 44.5588 46.6609 43.8276 47.0996L45.3711 49.6721L46.9146 52.2446C47.9039 51.651 48.9772 50.8962 49.8356 49.7517L47.4356 47.9517ZM45.3711 49.6721L44.2569 46.8867C43.5148 47.1835 42.9058 47.3603 42.2743 47.3603V50.3603V53.3603C44.0515 53.3603 45.507 52.8489 46.4853 52.4575L45.3711 49.6721ZM42.2743 50.3603H39.2743V52.0807H42.2743H45.2743V50.3603H42.2743ZM42.2743 52.0807H39.2743C39.2743 52.2224 39.2601 51.9405 39.3424 51.6112C39.45 51.181 39.6744 50.7821 39.981 50.4755L42.1023 52.5968L44.2236 54.7182C45.3284 53.6134 45.2743 52.2973 45.2743 52.0807H42.2743ZM42.1023 52.5968L39.981 50.4755C40.2876 50.1689 40.6865 49.9445 41.1166 49.837C41.446 49.7546 41.7279 49.7689 41.5862 49.7689V52.7689V55.7689C41.8028 55.7689 43.1189 55.8229 44.2236 54.7182L42.1023 52.5968ZM41.5862 52.7689V49.7689C41.4444 49.7689 41.7263 49.7546 42.0557 49.837C42.4859 49.9445 42.8847 50.1689 43.1914 50.4755L41.07 52.5968L38.9487 54.7182C40.0535 55.8229 41.3695 55.7689 41.5862 55.7689V52.7689ZM41.07 52.5968L43.1914 50.4755C43.498 50.7821 43.7224 51.181 43.8299 51.6112C43.9123 51.9405 43.898 52.2224 43.898 52.0807H40.898H37.898C37.898 52.2973 37.844 53.6134 38.9487 54.7182L41.07 52.5968ZM40.898 52.0807H43.898V50.3603H40.898H37.898V52.0807H40.898ZM40.898 50.3603L41.1965 47.3752C39.6512 47.2206 38.2768 46.9255 37.1272 46.4145L35.9088 49.156L34.6903 51.8974C36.6375 52.7628 38.7039 53.1558 40.5995 53.3454L40.898 50.3603ZM35.9088 49.156V46.156C36.3721 46.156 36.7411 46.2725 36.9822 46.3779C37.2165 46.4804 37.3761 46.5925 37.4507 46.6485C37.5686 46.7369 37.6392 46.8158 37.5139 46.6906L35.3926 48.8119L33.2713 50.9332C33.3181 50.98 33.5608 51.231 33.8507 51.4485C34.1091 51.6422 34.8438 52.156 35.9088 52.156V49.156ZM35.3926 48.8119L37.5139 46.6906C37.6534 46.8301 37.8108 47.024 37.9445 47.2765C38.0781 47.5289 38.1478 47.7637 38.1838 47.944C38.2165 48.1071 38.2205 48.2221 38.2209 48.2323C38.2211 48.2372 38.2206 48.2267 38.2206 48.1237H35.2206H32.2206C32.2206 48.2245 32.083 49.745 33.2713 50.9332L35.3926 48.8119ZM35.2206 48.1237H38.2206C38.2206 48.2925 38.1988 48.4907 38.139 48.7041C38.079 48.9187 37.9928 49.105 37.9006 49.2586C37.7448 49.5183 37.5606 49.6823 37.686 49.5569L35.5647 47.4356L33.4433 45.3142C33.2398 45.5178 32.2206 46.4606 32.2206 48.1237H35.2206ZM35.5647 47.4356L37.686 49.5569C37.5636 49.6793 37.4618 49.753 37.4106 49.7879C37.353 49.8272 37.3005 49.8572 37.2504 49.8823C37.2036 49.9057 37.1228 49.9428 37.0065 49.9798C36.9263 50.0053 36.6472 50.0915 36.2528 50.0915V47.0915V44.0915C35.4386 44.0915 34.7875 44.4055 34.5671 44.5157C34.2519 44.6733 33.8261 44.9314 33.4433 45.3142L35.5647 47.4356ZM36.2528 47.0915V50.0915C36.3946 50.0915 36.1127 50.1057 35.7833 50.0234C35.3532 49.9159 34.9543 49.6915 34.6477 49.3848L36.769 47.2635L38.8903 45.1422C37.7855 44.0374 36.4695 44.0915 36.2528 44.0915V47.0915ZM36.769 47.2635L35.7156 50.0725C37.3126 50.6714 38.9311 51.0766 40.7388 51.2774L41.07 48.2958L41.4013 45.3141C40.1122 45.1709 38.978 44.8879 37.8223 44.4545L36.769 47.2635ZM41.07 48.2958H44.07V42.6183H41.07H38.07V48.2958H41.07ZM41.07 42.6183L41.8942 39.7338C40.8487 39.435 40.1104 39.141 39.2595 38.8007L38.1453 41.5861L37.0311 44.3715C37.9006 44.7193 38.8828 45.1135 40.2459 45.5029L41.07 42.6183ZM38.1453 41.5861L39.487 38.9028C39.1358 38.7272 38.8407 38.4881 38.6528 38.2377L36.2528 40.0377L33.8528 41.8377C34.6973 42.9636 35.7785 43.7568 36.8037 44.2694L38.1453 41.5861ZM36.2528 40.0377L38.6528 38.2377C38.6211 38.1954 38.6115 38.1758 38.6109 38.1746C38.6108 38.1744 38.6094 38.1725 38.6058 38.1595C38.5964 38.1258 38.5647 37.9896 38.5647 37.6291H35.5647H32.5647C32.5647 39.08 32.8286 40.472 33.8528 41.8377L36.2528 40.0377ZM35.5647 37.6291H38.5647C38.5647 37.3916 38.5892 37.2273 38.6164 37.1238C38.6419 37.027 38.6632 37.0067 38.6528 37.0205L36.2528 35.2205L33.8528 33.4205C32.8001 34.8241 32.5647 36.4175 32.5647 37.6291H35.5647ZM36.2528 35.2205L38.9361 36.5621C38.9357 36.563 38.9828 36.4751 39.1268 36.3311C39.2653 36.1926 39.4556 36.0404 39.6888 35.9005L38.1453 33.328L36.6018 30.7555C35.3985 31.4775 34.2356 32.5468 33.5696 33.8789L36.2528 35.2205ZM38.1453 33.328L39.6888 35.9005C39.9502 35.7437 40.3775 35.6218 41.6664 35.4377L41.2421 32.4678L40.8178 29.498C39.6981 29.6579 38.0609 29.8801 36.6018 30.7555L38.1453 33.328ZM41.2421 32.4678H44.2421V30.7474H41.2421H38.2421V32.4678H41.2421ZM41.2421 30.7474H44.2421C44.2421 30.6056 44.2564 30.8875 44.174 31.2169C44.0665 31.6471 43.8421 32.0459 43.5355 32.3526L41.4141 30.2312L39.2928 28.1099C38.1881 29.2147 38.2421 30.5307 38.2421 30.7474H41.2421ZM41.4141 30.2312L43.5355 32.3526C43.2288 32.6592 42.8299 32.8836 42.3998 32.9911C42.0704 33.0735 41.7885 33.0592 41.9303 33.0592V30.0592V27.0592C41.7136 27.0592 40.3976 27.0052 39.2928 28.1099L41.4141 30.2312ZM41.9303 30.0592V33.0592C42.072 33.0592 41.7901 33.0735 41.4607 32.9911C41.0306 32.8836 40.6317 32.6592 40.3251 32.3526L42.4464 30.2312L44.5677 28.1099C43.463 27.0052 42.1469 27.0592 41.9303 27.0592V30.0592ZM42.4464 30.2312L40.3251 32.3526C40.0184 32.0459 39.794 31.6471 39.6865 31.2169C39.6042 30.8875 39.6184 30.6056 39.6184 30.7474H42.6184H45.6184C45.6184 30.5307 45.6725 29.2147 44.5677 28.1099L42.4464 30.2312ZM42.6184 30.7474H39.6184V32.4678H42.6184H45.6184V30.7474H42.6184ZM42.6184 32.4678V35.4678C43.7581 35.4678 44.9046 35.7284 45.7378 36.0855L46.9195 33.328L48.1013 30.5706C46.5258 29.8954 44.5755 29.4678 42.6184 29.4678V32.4678ZM46.9195 33.328L45.9708 36.1741C45.7294 36.0936 45.2567 35.8547 44.9131 35.3051C44.6078 34.8165 44.6077 34.3989 44.6077 34.3603H47.6077H50.6077C50.6077 33.8055 50.5215 32.9578 50.0011 32.1251C49.4426 31.2314 48.6258 30.7345 47.8682 30.482L46.9195 33.328ZM47.6077 34.3603H44.6077C44.6077 34.1915 44.6295 33.9933 44.6892 33.7799C44.7493 33.5653 44.8355 33.379 44.9277 33.2254C45.0835 32.9657 45.2677 32.8017 45.1423 32.9271L47.2636 35.0485L49.3849 37.1698C49.5885 36.9662 50.6077 36.0234 50.6077 34.3603H47.6077ZM47.2636 35.0485L45.1423 32.9271C45.0168 33.0526 45.1809 32.8683 45.4405 32.7125C45.5941 32.6204 45.7805 32.5342 45.995 32.4741C46.2085 32.4143 46.4066 32.3925 46.5754 32.3925V35.3925V38.3925C48.2386 38.3925 49.1814 37.3733 49.3849 37.1698L47.2636 35.0485ZM46.5754 35.3925V32.3925C46.4769 32.3925 46.6161 32.3892 46.7718 32.4047C47.0097 32.4285 47.362 32.4962 47.745 32.6878C48.0768 32.8536 48.2885 33.0433 48.3404 33.0901C48.3859 33.1311 48.4184 33.1649 48.3527 33.0992L46.2313 35.2205L44.11 37.3418C44.1303 37.3621 44.2273 37.4605 44.3266 37.5498C44.4323 37.645 44.687 37.8669 45.0617 38.0543C45.4878 38.2673 45.8831 38.3458 46.1748 38.375C46.3002 38.3875 46.4035 38.3905 46.4583 38.3916C46.5112 38.3927 46.5624 38.3925 46.5754 38.3925V35.3925ZM46.2313 35.2205L47.0555 32.3359C45.9341 32.0155 44.3172 31.5323 42.6184 31.5323V34.5323V37.5323C43.3283 37.5323 44.12 37.7373 45.4072 38.1051L46.2313 35.2205ZM42.6184 34.5323H39.6184V40.3818H42.6184H45.6184V34.5323H42.6184ZM42.6184 40.3818L41.7943 43.2664C42.4304 43.4481 43.139 43.6161 43.5171 43.7147C43.7399 43.7729 43.9019 43.8192 44.0273 43.8605C44.0877 43.8803 44.1314 43.8964 44.1618 43.9085C44.1923 43.9206 44.2041 43.9266 44.2015 43.9253L45.5432 41.242L46.8848 38.5587C46.2345 38.2336 45.5348 38.0403 45.0316 37.909C44.4204 37.7496 44.0107 37.6595 43.4426 37.4972L42.6184 40.3818ZM45.5432 41.242L44.2015 43.9253C44.5527 44.1009 44.8478 44.34 45.0356 44.5904L47.4356 42.7904L49.8356 40.9904C48.9912 39.8645 47.91 39.0713 46.8848 38.5587L45.5432 41.242ZM47.4356 42.7904L45.0356 44.5904C45.1249 44.7095 45.187 44.8265 45.2277 44.9427C45.2674 45.0562 45.2959 45.1944 45.2959 45.371H48.2959H51.2959C51.2959 43.6281 50.7026 42.1464 49.8356 40.9904L47.4356 42.7904ZM48.2959 45.371L45.3367 44.8778C45.2334 45.4976 45.0783 45.7673 44.6502 46.8375L47.4356 47.9517L50.2211 49.0658C50.4812 48.4156 51.0142 47.309 51.255 45.8642L48.2959 45.371ZM38.3174 39.1775L36.6533 41.6736C37.5406 42.2652 38.7531 42.7144 39.7773 43.0558L40.726 40.2097L41.6746 37.3637C40.6343 37.0169 40.1264 36.778 39.9815 36.6813L38.3174 39.1775ZM40.726 40.2097H43.726V34.7044H40.726H37.726V40.2097H40.726ZM40.726 34.7044L40.2328 31.7452C38.7226 31.9969 37.6887 32.5248 36.9757 32.8813L38.3174 35.5646L39.659 38.2479C40.3224 37.9162 40.6648 37.7559 41.2192 37.6635L40.726 34.7044ZM38.3174 35.5646L36.196 33.4433C35.3529 34.2864 34.4571 35.5206 34.4571 37.4571H37.4571H40.4571C40.4571 37.4441 40.4582 37.4751 40.4444 37.5359C40.43 37.599 40.4064 37.6645 40.377 37.7234C40.349 37.7794 40.3269 37.8071 40.3307 37.8022C40.3372 37.7939 40.3659 37.7587 40.4387 37.6859L38.3174 35.5646ZM37.4571 37.4571H34.4571C34.4571 39.3249 35.4646 40.5673 36.196 41.2988L38.3174 39.1775L40.4387 37.0562C40.3664 36.9839 40.3289 36.9401 40.3125 36.9195C40.2969 36.8999 40.3106 36.914 40.3351 36.9595C40.3611 37.0077 40.3946 37.0827 40.4202 37.1801C40.4462 37.279 40.4571 37.3744 40.4571 37.4571H37.4571ZM45.8872 45.371H48.8872C48.8872 43.5191 47.8987 42.1315 46.6911 41.3265L45.027 43.8226L43.3629 46.3188C43.3023 46.2784 43.1734 46.1749 43.0594 45.9794C42.9374 45.7704 42.8872 45.5484 42.8872 45.371H45.8872ZM45.027 43.8226L46.6911 41.3265C46.1326 40.9542 45.4733 40.684 44.9982 40.5031C44.4759 40.3041 43.8959 40.1113 43.3951 39.9443L42.4464 42.7904L41.4977 45.6364C42.0291 45.8136 42.4814 45.9649 42.8623 46.11C43.0485 46.1809 43.1884 46.2395 43.2891 46.2861C43.3989 46.3371 43.4096 46.3499 43.3629 46.3188L45.027 43.8226ZM42.4464 42.7904H39.4464V48.1237H42.4464H45.4464V42.7904H42.4464ZM42.4464 48.1237L42.6765 51.1149C44.0565 51.0087 45.5985 50.6674 46.8474 49.6961C48.2552 48.6011 48.8872 47.0276 48.8872 45.371H45.8872H42.8872C42.8872 45.4495 42.8745 45.3901 42.933 45.2613C42.9966 45.1215 43.0914 45.0162 43.1637 44.96C43.2209 44.9155 43.2068 44.9459 43.044 44.996C42.88 45.0466 42.6139 45.102 42.2163 45.1326L42.4464 48.1237Z" fill="white" mask="url(#path-2-inside-1_136_1100)"/>
<path d="M75.8227 32.9839C74.2743 26.6184 71.0055 20.7689 66.5323 16.2958" stroke="white" stroke-width="3" stroke-miterlimit="10" stroke-linecap="round" stroke-linejoin="round" stroke-dasharray="32 32"/>
<path d="M66.3603 16.2958C59.9948 9.93026 51.0485 5.97327 41.2421 5.97327" stroke="white" stroke-width="3" stroke-miterlimit="10" stroke-linecap="round" stroke-linejoin="round"/>
<path d="M48.4679 76.1668C55.3496 74.7904 61.5432 71.3496 66.3604 66.5323" stroke="white" stroke-width="3" stroke-miterlimit="10" stroke-linecap="round" stroke-linejoin="round" stroke-dasharray="32 32"/>
<path d="M16.2958 66.5323C22.6614 72.8979 31.6076 76.8549 41.4141 76.8549" stroke="white" stroke-width="3" stroke-miterlimit="10" stroke-linecap="round" stroke-linejoin="round"/>
<path d="M66.3604 66.5323C72.7259 60.1667 76.6829 51.2205 76.6829 41.4141" stroke="white" stroke-width="3" stroke-miterlimit="10" stroke-linecap="round" stroke-linejoin="round"/>
<path d="M6.66138 48.4679C8.03772 55.3496 11.4786 61.5432 16.2958 66.3604" stroke="white" stroke-width="3" stroke-miterlimit="10" stroke-linecap="round" stroke-linejoin="round" stroke-dasharray="32 32"/>
<path d="M16.2958 16.2958C9.93026 22.6614 5.97327 31.6076 5.97327 41.4141" stroke="white" stroke-width="3" stroke-miterlimit="10" stroke-linecap="round" stroke-linejoin="round"/>
<path d="M34.3603 6.66138C27.4786 8.03772 21.113 11.4786 16.2958 16.2958" stroke="white" stroke-width="3" stroke-miterlimit="10" stroke-linecap="round" stroke-linejoin="round" stroke-dasharray="32 32"/>
<path d="M47.6076 1.50012L41.4141 5.97324L47.6076 10.6184" stroke="white" stroke-width="3" stroke-miterlimit="10" stroke-linecap="round" stroke-linejoin="round"/>
<path d="M35.5646 81.5002L41.7581 76.855L35.5646 72.2098" stroke="white" stroke-width="3" stroke-miterlimit="10" stroke-linecap="round" stroke-linejoin="round"/>
<path d="M1.50012 35.3926L6.14528 41.5861L10.7904 35.3926" stroke="white" stroke-width="3" stroke-miterlimit="10" stroke-linecap="round" stroke-linejoin="round"/>
<path d="M81.6722 47.4356L77.027 41.2421L72.3818 47.4356" stroke="white" stroke-width="3" stroke-miterlimit="10" stroke-linecap="round" stroke-linejoin="round"/>
</svg>
