<svg width="80" height="80" viewBox="0 0 80 80" fill="none" xmlns="http://www.w3.org/2000/svg">
<path d="M35 70C15.7013 70 0 54.2988 0 35C0 15.7013 15.7013 0 35 0C54.2988 0 70 15.7013 70 35C70 54.2988 54.2988 70 35 70ZM35 2.5C17.08 2.5 2.5 17.08 2.5 35C2.5 52.92 17.08 67.5 35 67.5C52.92 67.5 67.5 52.92 67.5 35C67.5 17.08 52.92 2.5 35 2.5Z" fill="white"/>
<path d="M78.75 80.0001C78.43 80.0001 78.11 79.8776 77.8662 79.6338L58.215 59.9826C57.7262 59.4938 57.7262 58.7038 58.215 58.2151C58.7037 57.7263 59.4937 57.7263 59.9825 58.2151L79.6337 77.8663C80.1225 78.3551 80.1225 79.1451 79.6337 79.6338C79.39 79.8776 79.07 80.0001 78.75 80.0001Z" fill="white"/>
<path d="M13.75 52.5C11.6825 52.5 10 50.8175 10 48.75C10 46.6825 11.6825 45 13.75 45C15.8175 45 17.5 46.6825 17.5 48.75C17.5 50.8175 15.8175 52.5 13.75 52.5ZM13.75 47.5C13.0612 47.5 12.5 48.0612 12.5 48.75C12.5 49.4387 13.0612 50 13.75 50C14.4387 50 15 49.4387 15 48.75C15 48.0612 14.4387 47.5 13.75 47.5Z" fill="white"/>
<path d="M25 41.25C22.9325 41.25 21.25 39.5675 21.25 37.5C21.25 35.4325 22.9325 33.75 25 33.75C27.0675 33.75 28.75 35.4325 28.75 37.5C28.75 39.5675 27.0675 41.25 25 41.25ZM25 36.25C24.3112 36.25 23.75 36.8112 23.75 37.5C23.75 38.1887 24.3112 38.75 25 38.75C25.6887 38.75 26.25 38.1887 26.25 37.5C26.25 36.8112 25.6887 36.25 25 36.25Z" fill="white"/>
<path d="M45 36.25C42.9325 36.25 41.25 34.5675 41.25 32.5C41.25 30.4325 42.9325 28.75 45 28.75C47.0675 28.75 48.75 30.4325 48.75 32.5C48.75 34.5675 47.0675 36.25 45 36.25ZM45 31.25C44.3112 31.25 43.75 31.8112 43.75 32.5C43.75 33.1887 44.3112 33.75 45 33.75C45.6887 33.75 46.25 33.1887 46.25 32.5C46.25 31.8112 45.6887 31.25 45 31.25Z" fill="white"/>
<path d="M56.25 25C54.1825 25 52.5 23.3175 52.5 21.25C52.5 19.1825 54.1825 17.5 56.25 17.5C58.3175 17.5 60 19.1825 60 21.25C60 23.3175 58.3175 25 56.25 25ZM56.25 20C55.5612 20 55 20.5612 55 21.25C55 21.9387 55.5612 22.5 56.25 22.5C56.9387 22.5 57.5 21.9387 57.5 21.25C57.5 20.5612 56.9387 20 56.25 20Z" fill="white"/>
<path d="M32.5 48.75C30.4325 48.75 28.75 47.0675 28.75 45C28.75 42.9325 30.4325 41.25 32.5 41.25C34.5675 41.25 36.25 42.9325 36.25 45C36.25 47.0675 34.5675 48.75 32.5 48.75ZM32.5 43.75C31.8112 43.75 31.25 44.3112 31.25 45C31.25 45.6887 31.8112 46.25 32.5 46.25C33.1887 46.25 33.75 45.6887 33.75 45C33.75 44.3112 33.1887 43.75 32.5 43.75Z" fill="white"/>
<path d="M16.25 47.5001C15.93 47.5001 15.61 47.3776 15.3663 47.1338C14.8775 46.6463 14.8775 45.8551 15.3663 45.3663L21.615 39.1163C22.1038 38.6276 22.8938 38.6276 23.3825 39.1163C23.8713 39.6038 23.8713 40.3951 23.3825 40.8838L17.1338 47.1338C16.89 47.3776 16.57 47.5001 16.25 47.5001Z" fill="white"/>
<path d="M35.0001 43.7501C34.6801 43.7501 34.3601 43.6276 34.1163 43.3838C33.6276 42.8951 33.6276 42.1051 34.1163 41.6163L41.6163 34.1163C42.1051 33.6276 42.8951 33.6276 43.3838 34.1163C43.8726 34.6051 43.8726 35.3951 43.3838 35.8838L35.8838 43.3838C35.6401 43.6276 35.3201 43.7501 35.0001 43.7501Z" fill="white"/>
<path d="M47.5001 31.2501C47.1801 31.2501 46.8601 31.1276 46.6163 30.8838C46.1276 30.3951 46.1276 29.6051 46.6163 29.1163L52.8663 22.8663C53.3551 22.3776 54.1451 22.3776 54.6338 22.8663C55.1226 23.3551 55.1226 24.1451 54.6338 24.6338L48.3838 30.8838C48.1401 31.1276 47.8201 31.2501 47.5001 31.2501Z" fill="white"/>
<path d="M30.0001 43.7501C29.6801 43.7501 29.3601 43.6276 29.1163 43.3838L26.6163 40.8838C26.1276 40.3951 26.1276 39.6051 26.6163 39.1163C27.1051 38.6276 27.8951 38.6276 28.3838 39.1163L30.8838 41.6163C31.3726 42.1051 31.3726 42.8951 30.8838 43.3838C30.6401 43.6276 30.3201 43.7501 30.0001 43.7501Z" fill="white"/>
<path d="M11.25 20C10.925 20 10.6 19.8625 10.3625 19.6375C10.25 19.5125 10.1625 19.375 10.1 19.225C10.0375 19.075 10 18.9125 10 18.75C10 18.5875 10.0375 18.425 10.1 18.275C10.1625 18.125 10.25 17.9875 10.3625 17.8625C10.825 17.4 11.6625 17.4 12.1375 17.8625C12.25 17.9875 12.3375 18.125 12.4 18.275C12.4625 18.425 12.5 18.5875 12.5 18.75C12.5 18.9125 12.4625 19.075 12.4 19.225C12.3375 19.375 12.25 19.5125 12.1375 19.6375C11.9 19.8625 11.575 20 11.25 20Z" fill="white"/>
<path d="M21.25 20H16.25C15.56 20 15 19.44 15 18.75C15 18.06 15.56 17.5 16.25 17.5H21.25C21.94 17.5 22.5 18.06 22.5 18.75C22.5 19.44 21.94 20 21.25 20Z" fill="white"/>
<path d="M11.25 25C10.9125 25 10.6 24.8625 10.3625 24.6375C10.1375 24.4 10 24.0875 10 23.75C10 23.425 10.1375 23.1 10.3625 22.8625C10.825 22.4 11.6625 22.4 12.1375 22.8625C12.3625 23.1 12.5 23.425 12.5 23.75C12.5 24.075 12.3625 24.4 12.1375 24.6375C11.9 24.8625 11.575 25 11.25 25Z" fill="white"/>
<path d="M21.25 25H16.25C15.56 25 15 24.44 15 23.75C15 23.06 15.56 22.5 16.25 22.5H21.25C21.94 22.5 22.5 23.06 22.5 23.75C22.5 24.44 21.94 25 21.25 25Z" fill="white"/>
<path d="M58.75 52.5C58.425 52.5 58.1 52.3625 57.8625 52.1375C57.6375 51.9 57.5 51.575 57.5 51.25C57.5 51.175 57.5125 51.0875 57.525 51C57.5375 50.925 57.5625 50.85 57.6 50.775C57.625 50.7 57.6625 50.625 57.7125 50.55C57.7625 50.4875 57.8125 50.425 57.8625 50.3625C58.1625 50.075 58.5875 49.95 58.9875 50.025C59.075 50.0375 59.15 50.0625 59.225 50.1C59.3 50.125 59.375 50.1625 59.45 50.2125C59.5125 50.2625 59.575 50.3125 59.6375 50.3625C59.6875 50.425 59.7375 50.4875 59.7875 50.55C59.8375 50.625 59.875 50.7 59.9 50.775C59.9375 50.85 59.9625 50.925 59.975 51C59.9875 51.0875 60 51.175 60 51.25C60 51.325 59.9875 51.4125 59.975 51.5C59.9625 51.575 59.9375 51.65 59.9 51.725C59.875 51.8 59.8375 51.875 59.7875 51.95C59.7375 52.0125 59.6875 52.075 59.6375 52.1375C59.575 52.1875 59.5125 52.2375 59.45 52.2875C59.375 52.3375 59.3 52.375 59.225 52.4C59.15 52.4375 59.075 52.4625 58.9875 52.475C58.9125 52.4875 58.825 52.5 58.75 52.5Z" fill="white"/>
<path d="M53.75 52.5H48.75C48.06 52.5 47.5 51.94 47.5 51.25C47.5 50.56 48.06 50 48.75 50H53.75C54.44 50 55 50.56 55 51.25C55 51.94 54.44 52.5 53.75 52.5Z" fill="white"/>
<path d="M58.75 47.5001C58.5875 47.5001 58.425 47.4751 58.275 47.4001C58.125 47.3376 57.9875 47.2501 57.8625 47.1376C57.75 47.0126 57.6625 46.8751 57.6 46.7251C57.5375 46.5751 57.5 46.4126 57.5 46.2501C57.5 46.0876 57.5375 45.9251 57.6 45.7751C57.6625 45.6251 57.75 45.4876 57.8625 45.3626C57.9875 45.2501 58.125 45.1626 58.275 45.1001C58.725 44.9126 59.2875 45.0126 59.6375 45.3626C59.75 45.4876 59.8375 45.6251 59.9 45.7751C59.9625 45.9251 60 46.0876 60 46.2501C60 46.4126 59.9625 46.5751 59.9 46.7251C59.8375 46.8751 59.75 47.0126 59.6375 47.1376C59.4 47.3626 59.075 47.5001 58.75 47.5001Z" fill="white"/>
<path d="M53.75 47.5H48.75C48.06 47.5 47.5 46.94 47.5 46.25C47.5 45.56 48.06 45 48.75 45H53.75C54.44 45 55 45.56 55 46.25C55 46.94 54.44 47.5 53.75 47.5Z" fill="white"/>
</svg>
