<svg width="81" height="81" viewBox="0 0 81 81" fill="none" xmlns="http://www.w3.org/2000/svg">
<path d="M1.56563 36.4686C1.5171 36.4689 1.4686 36.4658 1.4205 36.4594C1.27152 36.4406 1.12771 36.3927 0.997272 36.3183C0.866838 36.2439 0.75234 36.1446 0.660324 36.0259C0.568308 35.9073 0.500577 35.7716 0.461001 35.6268C0.421426 35.4819 0.410783 35.3307 0.429679 35.1818C0.579388 34.0047 0.783951 32.8344 1.05365 31.6059C1.08402 31.4575 1.1436 31.3165 1.22893 31.1913C1.31425 31.0661 1.42363 30.9592 1.55068 30.8766C1.67773 30.7941 1.81993 30.7376 1.969 30.7105C2.11807 30.6835 2.27104 30.6863 2.41901 30.7189C2.56697 30.7514 2.70699 30.8131 2.8309 30.9003C2.95481 30.9875 3.06015 31.0985 3.14079 31.2267C3.22142 31.355 3.27575 31.498 3.3006 31.6475C3.32546 31.7969 3.32035 31.9498 3.28556 32.0973C3.03186 33.2573 2.83872 34.3612 2.69816 35.4697C2.66314 35.7455 2.52882 35.999 2.32036 36.1829C2.1119 36.3667 1.84358 36.4683 1.56563 36.4686Z" fill="white" stroke="white" stroke-width="0.5"/>
<path d="M40.1115 80.2498C32.0911 80.2783 24.2492 77.8832 17.6135 73.3783C10.9777 68.8733 5.85772 62.4688 2.92445 55.004C2.81261 54.7223 2.81727 54.4076 2.93739 54.1294C3.05752 53.8511 3.28328 53.6319 3.565 53.5201C3.84672 53.4082 4.16134 53.4129 4.43963 53.533C4.71792 53.6531 4.9371 53.8789 5.04894 54.1606C8.28117 62.3211 14.2586 69.0986 21.9513 73.3253C29.6439 77.5519 38.5699 78.9629 47.1912 77.3152C55.8125 75.6675 63.589 71.0642 69.1807 64.2986C74.7725 57.5329 77.8292 49.0288 77.8242 40.2515C77.8242 39.9484 77.9446 39.6577 78.159 39.4434C78.3733 39.229 78.664 39.1086 78.967 39.1086C79.2701 39.1086 79.5608 39.229 79.7751 39.4434C79.9895 39.6577 80.1099 39.9484 80.1099 40.2515C80.0978 50.856 75.8798 61.0227 68.3812 68.5212C60.8827 76.0197 50.716 80.2377 40.1115 80.2498Z" fill="white" stroke="white" stroke-width="0.5"/>
<path d="M1.81477 47.9882C1.54598 47.9879 1.28589 47.8928 1.08023 47.7198C0.87456 47.5467 0.736476 47.3067 0.690244 47.0419C0.499395 45.9494 0.347401 44.7803 0.25369 43.5655C0.22937 43.2635 0.32598 42.9642 0.52228 42.7333C0.718581 42.5025 0.998503 42.3591 1.3005 42.3347C1.45047 42.3208 1.6017 42.3369 1.74532 42.3823C1.88893 42.4277 2.02204 42.5013 2.13681 42.5988C2.25158 42.6963 2.3457 42.8158 2.41364 42.9502C2.48159 43.0846 2.52198 43.2312 2.53245 43.3815C2.62502 44.5243 2.76102 45.6248 2.94272 46.6488C2.99482 46.9473 2.92621 47.2543 2.75198 47.5023C2.57774 47.7503 2.31215 47.9189 2.01362 47.971C1.94793 47.9823 1.88142 47.988 1.81477 47.9882Z" fill="white" stroke="white" stroke-width="0.5"/>
<path d="M5.18604 24.3549C4.99198 24.3552 4.80105 24.3061 4.63123 24.2122C4.46141 24.1183 4.31831 23.9826 4.2154 23.8181C4.1125 23.6536 4.05319 23.4656 4.04306 23.2718C4.03293 23.078 4.07232 22.8848 4.15751 22.7104C7.03271 16.817 11.3128 11.7208 16.6208 7.87063C21.9289 4.02044 28.1021 1.53433 34.5971 0.631189C41.092 -0.271948 47.7093 0.435591 53.8664 2.69151C60.0236 4.94743 65.5316 8.68253 69.9057 13.568C70.1056 13.7887 70.2131 14.0777 70.2061 14.3754C70.199 14.6732 70.078 14.9568 69.868 15.1679C69.6617 15.3758 69.3821 15.4947 69.0892 15.4989C68.7963 15.5032 68.5134 15.3926 68.3012 15.1907C68.2795 15.1713 68.2257 15.1153 68.2052 15.0936C64.0814 10.4866 58.8881 6.96419 53.0826 4.83655C47.2772 2.70891 41.0376 2.04131 34.9134 2.89253C28.7893 3.74375 22.9683 6.08769 17.9632 9.71794C12.958 13.3482 8.92221 18.1534 6.21114 23.7104C6.1178 23.9031 5.97222 24.0656 5.79098 24.1796C5.60974 24.2935 5.40013 24.3543 5.18604 24.3549Z" fill="white" stroke="white" stroke-width="0.5"/>
<path d="M69.0622 15.5382H57.6341C57.3311 15.5382 57.0404 15.4178 56.8261 15.2035C56.6117 14.9891 56.4913 14.6985 56.4913 14.3954C56.4913 14.0923 56.6117 13.8016 56.8261 13.5873C57.0404 13.373 57.3311 13.2526 57.6341 13.2526H67.9194V2.96727C67.9194 2.66418 68.0398 2.3735 68.2542 2.15918C68.4685 1.94487 68.7592 1.82446 69.0622 1.82446C69.3653 1.82446 69.656 1.94487 69.8703 2.15918C70.0847 2.3735 70.2051 2.66418 70.2051 2.96727V14.3954C70.2051 14.6985 70.0847 14.9891 69.8703 15.2035C69.656 15.4178 69.3653 15.5382 69.0622 15.5382Z" fill="white" stroke="white" stroke-width="0.5"/>
<path d="M40.1115 63.6791C35.4779 63.6791 30.9484 62.3051 27.0958 59.7308C23.2431 57.1566 20.2403 53.4977 18.4672 49.2168C16.694 44.936 16.23 40.2255 17.134 35.681C18.038 31.1365 20.2692 26.9621 23.5456 23.6857C26.822 20.4092 30.9964 18.178 35.541 17.274C40.0855 16.3701 44.796 16.834 49.0768 18.6072C53.3577 20.3804 57.0165 23.3831 59.5908 27.2358C62.1651 31.0884 63.5391 35.6179 63.5391 40.2515C63.5321 46.4627 61.0616 52.4176 56.6696 56.8096C52.2776 61.2016 46.3227 63.6721 40.1115 63.6791ZM40.1115 19.1095C35.93 19.1095 31.8424 20.3494 28.3656 22.6726C24.8888 24.9957 22.179 28.2976 20.5788 32.1608C18.9786 36.024 18.5599 40.2749 19.3757 44.3761C20.1915 48.4772 22.2051 52.2444 25.1618 55.2011C28.1186 58.1579 31.8857 60.1715 35.9869 60.9872C40.088 61.803 44.339 61.3843 48.2021 59.7841C52.0653 58.1839 55.3673 55.4741 57.6904 51.9973C60.0135 48.5206 61.2534 44.433 61.2534 40.2515C61.2468 34.6463 59.0172 29.2726 55.0538 25.3092C51.0903 21.3457 45.7166 19.1161 40.1115 19.1095Z" fill="white" stroke="white" stroke-width="0.5"/>
<path d="M40.1115 41.3942C38.7833 41.3944 37.4848 41.0007 36.3803 40.2629C35.2759 39.5252 34.415 38.4764 33.9066 37.2493C33.3982 36.0223 33.2651 34.672 33.5242 33.3692C33.7832 32.0665 34.4228 30.8699 35.362 29.9307C36.3012 28.9915 37.4979 28.3519 38.8006 28.0928C40.1033 27.8338 41.4536 27.9669 42.6807 28.4752C43.9077 28.9836 44.9565 29.8445 45.6943 30.949C46.4321 32.0535 46.8257 33.3519 46.8255 34.6802C46.8255 34.9833 46.7051 35.2739 46.4908 35.4883C46.2765 35.7026 45.9858 35.823 45.6827 35.823C45.3796 35.823 45.0889 35.7026 44.8746 35.4883C44.6603 35.2739 44.5399 34.9833 44.5399 34.6802C44.5401 33.804 44.2805 32.9474 43.7939 32.2188C43.3072 31.4902 42.6154 30.9223 41.806 30.5869C40.9966 30.2515 40.1058 30.1637 39.2465 30.3345C38.3871 30.5054 37.5978 30.9273 36.9782 31.5469C36.3587 32.1664 35.9368 32.9558 35.7659 33.8151C35.595 34.6745 35.6828 35.5652 36.0182 36.3747C36.3536 37.1841 36.9215 37.8759 37.6502 38.3625C38.3788 38.8492 39.2353 39.1088 40.1115 39.1086C40.4146 39.1086 40.7053 39.229 40.9196 39.4433C41.1339 39.6576 41.2543 39.9483 41.2543 40.2514C41.2543 40.5545 41.1339 40.8451 40.9196 41.0595C40.7053 41.2738 40.4146 41.3942 40.1115 41.3942Z" fill="white" stroke="white" stroke-width="0.5"/>
<path d="M40.1115 52.5378C38.3311 52.5357 36.6243 51.8275 35.3655 50.5686C34.1066 49.3098 33.3984 47.603 33.3963 45.8227C33.3963 45.5196 33.5167 45.2289 33.731 45.0146C33.9453 44.8002 34.236 44.6798 34.5391 44.6798C34.8422 44.6798 35.1329 44.8002 35.3472 45.0146C35.5615 45.2289 35.6819 45.5196 35.6819 45.8227C35.6817 46.6988 35.9413 47.5553 36.4279 48.2839C36.9145 49.0125 37.6062 49.5804 38.4156 49.9158C39.2249 50.2513 40.1156 50.3391 40.9749 50.1684C41.8342 49.9976 42.6236 49.5758 43.2432 48.9564C43.8628 48.3369 44.2848 47.5477 44.4558 46.6884C44.6268 45.8291 44.5391 44.9384 44.2039 44.129C43.8687 43.3195 43.3009 42.6276 42.5725 42.1409C41.844 41.6541 40.9876 41.3943 40.1115 41.3943C39.8084 41.3943 39.5177 41.2739 39.3034 41.0595C39.089 40.8452 38.9686 40.5545 38.9686 40.2515C38.9686 39.9484 39.089 39.6577 39.3034 39.4434C39.5177 39.229 39.8084 39.1086 40.1115 39.1086C41.8771 39.1317 43.5626 39.8492 44.8031 41.106C46.0435 42.3627 46.739 44.0574 46.739 45.8232C46.739 47.589 46.0435 49.2838 44.8031 50.5405C43.5626 51.7972 41.8771 52.5148 40.1115 52.5378Z" fill="white" stroke="white" stroke-width="0.5"/>
<path d="M40.1115 54.821C39.8084 54.821 39.5177 54.7006 39.3034 54.4863C39.0891 54.2719 38.9687 53.9813 38.9687 53.6782V26.8221C38.9687 26.519 39.0891 26.2284 39.3034 26.014C39.5177 25.7997 39.8084 25.6793 40.1115 25.6793C40.4146 25.6793 40.7053 25.7997 40.9196 26.014C41.1339 26.2284 41.2543 26.519 41.2543 26.8221V53.6782C41.2543 53.9813 41.1339 54.2719 40.9196 54.4863C40.7053 54.7006 40.4146 54.821 40.1115 54.821Z" fill="white" stroke="white" stroke-width="0.5"/>
</svg>
