<svg width="83" height="75" viewBox="0 0 83 75" fill="none" xmlns="http://www.w3.org/2000/svg">
<path d="M81.371 43.8179C80.2327 42.4213 78.352 41.8572 75.7769 42.1468C75.6654 42.1593 75.5576 42.1921 75.4587 42.2445L55.2081 52.9508C54.8524 49.4495 51.1569 47.2223 50.975 47.1148C50.8128 47.0197 50.6265 46.9789 50.4349 46.9949L45.6563 47.4542C45.8284 43.4004 46.8151 42.2712 49.0034 40.7014C49.1406 40.6028 49.2824 40.5113 49.4223 40.4162C50.4946 42.1246 52.5688 43.0281 55.0432 43.0281C56.8749 43.0281 58.9196 42.5386 60.9207 41.5267C62.9263 40.5068 64.1171 39.1271 65.3775 37.6675C67.0015 35.7858 68.6808 33.8411 72.4593 32.3388C72.7891 32.2082 73.0092 31.8955 73.0199 31.5428C73.0315 31.1901 72.8318 30.864 72.5119 30.7121C72.0483 30.4918 61.0972 25.3763 53.9343 29.0161C51.4073 30.2919 49.5569 32.5476 48.867 35.1168C47.6334 35.4482 46.5236 35.8391 45.5752 36.3073C45.725 33.6883 45.963 31.3269 46.2571 29.1947C49.7156 28.8074 52.7836 26.8866 54.5609 23.9185C59.442 15.7122 52.9636 1.61051 52.6855 1.01439C52.5394 0.70078 52.2238 0.5 51.8771 0.5C51.5295 0.5 51.2139 0.701668 51.0686 1.01616C49.015 5.44666 46.4167 7.22436 43.9048 8.94344C41.967 10.2698 40.1353 11.5225 38.7662 13.8261C35.5199 19.2685 36.1991 25.6695 40.2815 28.0949C40.5596 28.2583 40.8493 28.4014 41.1461 28.5302C40.5578 31.9239 40.163 35.7521 39.982 40.0235C39.2618 39.3821 38.3954 38.6376 37.3757 37.894C37.6476 34.877 35.9763 31.0222 32.049 29.0268C24.8861 25.3879 13.9243 30.5033 13.4608 30.7228C13.1408 30.8738 12.9411 31.2007 12.9527 31.5543C12.9643 31.907 13.1844 32.2197 13.5134 32.3503C17.2989 33.8526 18.98 35.7983 20.6058 37.6808C21.8662 39.1404 23.057 40.5184 25.0617 41.5374C27.0227 42.5351 29.0728 43.0397 30.9312 43.0397C32.2388 43.0397 33.4404 42.774 34.4592 42.2703C35.3211 43.0032 36.151 43.7753 36.8944 44.5873C38.6263 46.4805 39.0256 47.2578 39.1147 48.0841L35.634 48.419L29.6111 46.588C28.5077 46.0745 23.6587 43.8961 21.5783 44.2275C15.7266 45.1559 1.39277 58.3745 0.784868 58.9369C0.439024 59.2567 0.40337 59.7897 0.703755 60.1531L10.6592 72.2079C10.8126 72.3936 11.0345 72.5091 11.2752 72.5286C11.5158 72.5535 11.7538 72.47 11.9348 72.311C11.9927 72.2603 17.7357 67.2666 21.4428 66.7335C23.9707 66.364 33.0856 70.8877 38.2457 73.8195C38.3 73.8506 38.358 73.8755 38.4177 73.895C38.5532 73.9376 40.3867 74.5009 42.8245 74.5C44.7917 74.5 47.1511 74.1331 49.3269 72.8307C53.8791 70.1042 80.5251 51.9842 81.6571 51.2139C81.8193 51.1038 81.9397 50.943 82.0012 50.7582C82.06 50.5787 83.4264 46.3454 81.3683 43.8197L81.371 43.8179ZM54.7437 30.6002C59.5079 28.1793 66.5808 30.3043 69.9011 31.5552C66.9908 33.0753 65.431 34.8823 64.0271 36.5081C62.8345 37.8896 61.8049 39.0827 60.1132 39.9427C56.3739 41.835 52.2639 41.5942 50.9207 39.4603C55.4131 36.827 60.2781 35.6792 60.3342 35.6659C60.7754 35.5637 61.0696 35.1479 61.0179 34.6993C60.9662 34.2506 60.5856 33.9122 60.1328 33.9122C56.5647 33.9122 53.4949 34.1671 50.9011 34.6566C51.6159 32.9571 52.9761 31.4921 54.7437 30.6002ZM41.1934 26.5668C37.956 24.6434 37.5549 19.3352 40.3002 14.7323C41.4697 12.7654 43.0661 11.6726 44.9147 10.4075C47.169 8.86526 49.6852 7.14352 51.7906 3.49394C53.3237 7.43581 56.4952 17.1816 53.0287 23.0105C51.6204 25.363 49.2414 26.9426 46.529 27.3824C48.2947 16.5509 51.509 12.4775 51.5482 12.4296C51.8138 12.1097 51.8218 11.6486 51.5669 11.3199C51.312 10.9912 50.8636 10.8819 50.4857 11.0578C46.2295 13.0337 43.19 18.3659 41.4813 26.7161C41.385 26.6663 41.2861 26.6219 41.1934 26.5668ZM25.8728 39.9533C24.1801 39.0925 23.1506 37.9002 21.958 36.5196C20.5532 34.8921 18.9916 33.0842 16.076 31.5641C19.3989 30.3123 26.4763 28.1881 31.2396 30.6082C34.0153 32.0181 35.396 34.5118 35.5823 36.7089C32.828 35.0671 29.2029 33.7318 24.5171 33.9939C24.1088 34.017 23.7692 34.3128 23.6917 34.7126C23.6141 35.1124 23.8191 35.5131 24.1891 35.6863C24.2488 35.7139 28.6743 37.8016 32.8681 40.9857C30.9446 41.5498 28.3205 41.198 25.8728 39.9533ZM38.2127 43.3888C37.275 42.3654 36.2232 41.4086 35.1393 40.5166C35.1126 40.4953 35.0894 40.4695 35.0609 40.4517C32.8066 38.6065 30.4062 37.0669 28.5059 35.967C33.7631 36.8261 37.2063 39.9196 39.2297 41.7373C39.6157 42.0837 39.9526 42.3858 40.2432 42.6239C40.5061 42.838 40.8698 42.8851 41.1791 42.7447C41.4884 42.6035 41.6907 42.2996 41.6996 41.9611C42.0526 29.1538 44.2337 19.9784 47.9373 15.3711C46.266 19.2987 44.1936 26.3669 43.715 37.8665C43.7007 38.2041 43.8799 38.5194 44.1767 38.682C44.4744 38.8437 44.8372 38.8251 45.1153 38.6314C46.5156 37.6577 49.0987 36.5472 53.8211 36.0124C51.9395 36.8244 49.8635 37.8949 47.9623 39.2604C45.2543 41.2033 44.0359 42.8611 43.8674 47.6265L40.876 47.9144C40.7316 46.5409 40.1505 45.5086 38.2127 43.3888ZM80.3941 49.9222C77.556 51.8509 52.6829 68.7476 48.4115 71.3053C44.5288 73.6311 39.7253 72.4149 39.039 72.2221C37.242 71.2049 25.0537 64.4157 21.1906 64.9727C17.7589 65.4658 13.1987 68.9608 11.4632 70.3822L2.61748 59.6707C7.0885 55.6018 17.6537 46.6475 21.86 45.9803C23.0187 45.7937 26.6839 47.1805 28.9141 48.2209C28.9524 48.2395 28.9917 48.2546 29.0318 48.2662L35.2846 50.1674C35.3969 50.2011 35.5128 50.2118 35.6304 50.202L50.2967 48.7921C51.1346 49.3634 53.9245 51.4982 53.3737 54.2318C53.0581 55.1567 52.3691 56.1073 51.3164 57.0614L37.4702 58.3923C36.9808 58.4394 36.6216 58.8738 36.6689 59.3624C36.7134 59.8217 37.1012 60.1655 37.5558 60.1655C37.5843 60.1655 37.6128 60.1646 37.6422 60.162L51.7781 58.8027C51.9635 58.7849 52.1374 58.7103 52.2782 58.5877C53.5778 57.4603 54.4531 56.2912 54.93 55.1096L76.1414 43.8952C77.983 43.7175 79.2754 44.0667 79.9849 44.9355C81.0849 46.2815 80.7078 48.7717 80.3941 49.9222Z" fill="white" stroke="white"/>
</svg>
