<svg width="72" height="80" viewBox="0 0 72 80" fill="none" xmlns="http://www.w3.org/2000/svg">
<path d="M67.7999 16.1752C61.969 14.9433 57.0451 10.0412 55.8255 4.254C55.306 1.789 53.1092 0 50.602 0H21.398C18.8906 0 16.6938 1.789 16.1743 4.25383C14.9549 10.0412 10.0308 14.9433 4.20014 16.1752C4.04942 16.207 3.9082 16.264 3.78099 16.3417C1.56255 17.0083 0 19.0893 0 21.4702V27.9422C0 50.8913 14.0489 71.5319 35.5149 79.9087C35.8265 80.0304 36.173 80.0305 36.4849 79.9087C57.9136 71.5477 72 50.9343 72 27.9422V21.4045C71.9998 18.8887 70.2336 16.6893 67.7999 16.1752ZM69.3322 27.9422C69.3322 49.8123 56.2675 69.1024 35.9999 77.2327C15.8962 69.163 2.6676 49.6875 2.6676 27.9422V21.4702C2.6676 20.1867 3.56008 19.0785 4.78984 18.8353C4.93406 18.8068 5.06994 18.7555 5.19348 18.6847C11.7596 17.117 17.3412 11.654 18.7847 4.80367C19.0458 3.5655 20.1447 2.66667 21.4066 2.66667H50.6019C51.8551 2.66667 52.954 3.5655 53.2151 4.80367C54.6986 11.8435 60.5263 17.364 67.2482 18.7842C68.4558 19.0393 69.3322 20.1415 69.3322 21.4047V27.9422ZM56.6962 38.6618C56.6962 51.7278 44.6178 61.621 31.7324 58.8835C31.6639 58.874 31.5969 58.8602 31.5317 58.8407C16.0825 55.3955 9.59402 35.8958 21.4222 24.0717C26.0131 19.4823 32.1286 17.4928 38.081 18.094C38.8139 18.168 39.3481 18.822 39.2741 19.5547C39.1999 20.2873 38.544 20.8217 37.8129 20.7472C27.2547 19.6838 18.0061 28.0015 18.0061 38.6618C18.0061 46.6127 23.1888 53.3755 30.3541 55.7542L29.4568 48.2347L24.0024 44.5312C23.2668 44.0317 23.2169 42.963 23.9052 42.3978L29.1712 38.0735L30.3014 32.6533L28.1742 31.3052C27.552 30.911 27.3674 30.087 27.7617 29.4652C28.1562 28.8433 28.9803 28.6592 29.6023 29.0528L32.5097 30.8953C32.979 31.1927 33.2148 31.7498 33.1012 32.2937C31.6037 39.475 31.7393 39.4157 31.2274 39.836L26.9761 43.327L31.4583 46.3703C31.7778 46.5873 31.9875 46.932 32.0334 47.3155L33.1214 56.4332C44.1153 58.2167 54.0282 49.6973 54.0282 38.662C54.0282 33.1097 51.4392 27.8957 47.0443 24.4718L41.6376 31.9995L45.3657 36.7233L47.774 36.8172C48.5785 36.8485 49.1742 37.5818 49.0363 38.377L48.255 42.886C48.1645 43.4087 47.7725 43.828 47.257 43.9537L41.7726 45.2917L41.2786 51.2717C41.2179 52.0067 40.5722 52.5515 39.8396 52.4907C39.1055 52.4302 38.5593 51.786 38.6202 51.0522L39.1934 44.1143C39.2405 43.5423 39.6485 43.0648 40.2064 42.9288L45.7757 41.5702L46.1476 39.4225C44.7276 39.3672 44.1406 39.4765 43.6521 38.8575L38.9211 32.863C38.5528 32.3963 38.538 31.7423 38.8848 31.2595C46.2412 21.0165 45.7317 21.5708 46.2592 21.3633C46.8099 21.1528 47.4369 21.389 47.5206 21.5228C53.267 25.4025 56.6962 31.8062 56.6962 38.6618Z" fill="white"/>
</svg>
