<svg width="76" height="81" viewBox="0 0 76 81" fill="none" xmlns="http://www.w3.org/2000/svg">
<path d="M7.0897 76.3606C7.24074 76.6803 7.51288 76.927 7.84622 77.0455C8.1776 77.164 8.54545 77.1464 8.86512 76.9954L13.5742 74.7668L37.9125 80.1217C38.3024 80.2077 38.7002 80.25 39.098 80.25C39.9164 80.25 40.7328 80.0703 41.4763 79.7181L68.7958 66.7869C71.5595 65.4783 72.7431 62.1657 71.4351 59.402C70.8017 58.0634 69.6845 57.0517 68.2899 56.553C68.0022 56.4503 67.708 56.3874 67.4134 56.3332C72.669 50.2178 75.6253 42.3734 75.6253 34.2089C75.6253 15.484 60.3913 0.25 41.6664 0.25C22.9415 0.25 7.7082 15.484 7.7082 34.2089C7.7082 41.3889 10.028 48.3985 14.2321 54.1841C14.0564 54.2558 13.8778 54.3169 13.705 54.3987L1.01343 60.4059C0.3474 60.721 0.0635408 61.516 0.37865 62.1813L7.0897 76.3606ZM10.3749 34.2089C10.3749 16.954 24.4122 2.91671 41.6664 2.91671C58.9213 2.91671 72.9586 16.954 72.9586 34.2089C72.9586 43.0651 69.1934 51.5182 62.6279 57.4356L46.3318 65.1494C45.9956 65.2015 45.6669 65.2488 45.3522 65.2856C45.3464 65.2731 45.3416 65.2602 45.3358 65.2478C44.7374 63.9835 43.6827 63.0277 42.3657 62.5577L31.0504 58.512C30.9664 58.4821 30.8837 58.4482 30.801 58.4078L22.5418 54.4286C20.7975 53.5885 18.8912 53.2682 17.0226 53.4657C12.6844 47.9188 10.3749 41.2844 10.3749 34.2089ZM14.8457 56.8089C16.9264 55.8232 19.3086 55.831 21.3842 56.831L29.6408 60.8089C29.8082 60.8897 29.9794 60.9613 30.1539 61.0231L41.4685 65.0688C42.1144 65.2992 42.6319 65.768 42.9256 66.3885C43.0857 66.727 43.1691 67.0883 43.1736 67.4516C43.173 67.4757 43.173 67.5004 43.1736 67.5245C43.1697 67.8032 43.1196 68.0825 43.0232 68.352C42.7914 68.9985 42.3227 69.5168 41.7022 69.8104C41.0831 70.1027 40.3852 70.1385 39.738 69.9067L29.3895 66.2081C28.6962 65.962 27.9344 66.3214 27.6851 67.0154C27.4377 67.7088 27.799 68.4718 28.4924 68.7199L38.8402 72.4178C41.559 73.3899 44.5617 71.9693 45.5343 69.2498C45.6378 68.9601 45.7153 68.6645 45.7668 68.367L65.1916 59.1722C66.6278 58.4944 68.3465 59.1097 69.0256 60.5426C69.704 61.9776 69.0894 63.6976 67.6551 64.3767L40.3357 77.3079C39.7621 77.5794 39.1032 77.6523 38.4854 77.5175L13.7018 72.0643C13.6074 72.0435 13.511 72.0331 13.4153 72.0331C13.2194 72.0331 13.024 72.076 12.845 72.1613L8.92957 74.0149L3.35917 62.2458L14.8457 56.8089Z" fill="white" stroke="white" stroke-width="0.5"/>
<path d="M43.4946 46.1667H39.8481C36.9196 46.1667 34.5368 43.7839 34.5368 40.8554C34.5368 40.1191 33.9398 39.5221 33.2034 39.5221C32.4671 39.5221 31.8701 40.1191 31.8701 40.8554C31.8701 45.2546 35.4489 48.8334 39.8481 48.8334H40.3442V53.5425C40.3442 54.2788 40.9412 54.8758 41.6775 54.8758C42.4138 54.8758 43.0109 54.2788 43.0109 53.5425V48.8334H43.4946C47.8938 48.8334 51.4726 45.2546 51.4726 40.8554C51.4726 36.4563 47.8938 32.8774 43.4946 32.8774H39.8481C36.9196 32.8774 34.5368 30.4946 34.5368 27.5661C34.5368 24.6377 36.9196 22.2549 39.8481 22.2549H41.6453C41.6567 22.2552 41.6661 22.2614 41.6775 22.2614C41.6889 22.2614 41.6983 22.2552 41.7097 22.2549H43.4946C46.423 22.2549 48.8059 24.6377 48.8059 27.5661C48.8059 28.3025 49.4029 28.8995 50.1392 28.8995C50.8756 28.8995 51.4726 28.3025 51.4726 27.5661C51.4726 23.167 47.8938 19.5882 43.4946 19.5882H43.0109V14.8895C43.0109 14.1532 42.4138 13.5562 41.6775 13.5562C40.9412 13.5562 40.3442 14.1532 40.3442 14.8895V19.5882H39.8481C35.4489 19.5882 31.8701 23.167 31.8701 27.5661C31.8701 31.9653 35.4489 35.5441 39.8481 35.5441H43.4946C46.423 35.5441 48.8059 37.927 48.8059 40.8554C48.8059 43.7839 46.423 46.1667 43.4946 46.1667Z" fill="white" stroke="white" stroke-width="0.5"/>
</svg>
