<svg width="75" height="80" viewBox="0 0 75 80" fill="none" xmlns="http://www.w3.org/2000/svg">
<path d="M70.9676 21.9354H3.87095C3.52873 21.9354 3.20054 21.7995 2.95855 21.5575C2.71657 21.3155 2.58063 20.9873 2.58063 20.6451V14.1935C2.58045 13.9325 2.65941 13.6776 2.80707 13.4625C2.95473 13.2473 3.16416 13.082 3.40772 12.9883L36.9561 0.0851045C37.2545 -0.0283682 37.5841 -0.0283682 37.8825 0.0851045L71.4309 12.9883C71.6744 13.082 71.8839 13.2473 72.0315 13.4625C72.1792 13.6776 72.2581 13.9325 72.258 14.1935V20.6451C72.258 20.9873 72.122 21.3155 71.88 21.5575C71.6381 21.7995 71.3099 21.9354 70.9676 21.9354ZM5.16127 19.3548H69.6773V15.0799L37.4193 2.6722L5.16127 15.0799V19.3548Z" fill="white"/>
<path d="M24.5161 27.0969H11.6129C11.2707 27.0969 10.9425 26.961 10.7005 26.719C10.4585 26.477 10.3226 26.1488 10.3226 25.8066V20.6453C10.3226 20.3031 10.4585 19.9749 10.7005 19.7329C10.9425 19.4909 11.2707 19.355 11.6129 19.355H24.5161C24.8583 19.355 25.1865 19.4909 25.4285 19.7329C25.6705 19.9749 25.8064 20.3031 25.8064 20.6453V25.8066C25.8064 26.1488 25.6705 26.477 25.4285 26.719C25.1865 26.961 24.8583 27.0969 24.5161 27.0969ZM12.9032 24.5163H23.2258V21.9356H12.9032V24.5163Z" fill="white"/>
<path d="M21.9354 51.6129H14.1935C13.8513 51.6129 13.5231 51.4769 13.2811 51.2349C13.0391 50.993 12.9032 50.6648 12.9032 50.3225C12.9032 49.9803 13.0391 49.6521 13.2811 49.4102C13.5231 49.1682 13.8513 49.0322 14.1935 49.0322H21.9354C22.2777 49.0322 22.6059 49.1682 22.8478 49.4102C23.0898 49.6521 23.2258 49.9803 23.2258 50.3225C23.2258 50.6648 23.0898 50.993 22.8478 51.2349C22.6059 51.4769 22.2777 51.6129 21.9354 51.6129Z" fill="white"/>
<path d="M21.9354 46.4516C21.5932 46.4516 21.265 46.3156 21.0231 46.0736C20.7811 45.8317 20.6451 45.5035 20.6451 45.1613V27.0968H15.4838V45.1613C15.4838 45.5035 15.3479 45.8317 15.1059 46.0736C14.8639 46.3156 14.5357 46.4516 14.1935 46.4516C13.8513 46.4516 13.5231 46.3156 13.2811 46.0736C13.0391 45.8317 12.9032 45.5035 12.9032 45.1613V25.8064C12.9032 25.4642 13.0391 25.136 13.2811 24.894C13.5231 24.6521 13.8513 24.5161 14.1935 24.5161H21.9354C22.2777 24.5161 22.6059 24.6521 22.8478 24.894C23.0898 25.136 23.2258 25.4642 23.2258 25.8064V45.1613C23.2258 45.5035 23.0898 45.8317 22.8478 46.0736C22.6059 46.3156 22.2777 46.4516 21.9354 46.4516Z" fill="white"/>
<path d="M43.871 27.0969H30.9678C30.6255 27.0969 30.2973 26.961 30.0554 26.719C29.8134 26.477 29.6774 26.1488 29.6774 25.8066V20.6453C29.6774 20.3031 29.8134 19.9749 30.0554 19.7329C30.2973 19.4909 30.6255 19.355 30.9678 19.355H43.871C44.2132 19.355 44.5414 19.4909 44.7834 19.7329C45.0253 19.9749 45.1613 20.3031 45.1613 20.6453V25.8066C45.1613 26.1488 45.0253 26.477 44.7834 26.719C44.5414 26.961 44.2132 27.0969 43.871 27.0969ZM32.2581 24.5163H42.5806V21.9356H32.2581V24.5163Z" fill="white"/>
<path d="M41.2902 46.4516C40.948 46.4516 40.6198 46.3156 40.3778 46.0736C40.1359 45.8317 39.9999 45.5035 39.9999 45.1613V27.0968H34.8386V45.1613C34.8386 45.5035 34.7027 45.8317 34.4607 46.0736C34.2187 46.3156 33.8905 46.4516 33.5483 46.4516C33.2061 46.4516 32.8779 46.3156 32.6359 46.0736C32.3939 45.8317 32.258 45.5035 32.258 45.1613V25.8064C32.258 25.4642 32.3939 25.136 32.6359 24.894C32.8779 24.6521 33.2061 24.5161 33.5483 24.5161H41.2902C41.6325 24.5161 41.9607 24.6521 42.2026 24.894C42.4446 25.136 42.5806 25.4642 42.5806 25.8064V45.1613C42.5806 45.5035 42.4446 45.8317 42.2026 46.0736C41.9607 46.3156 41.6325 46.4516 41.2902 46.4516Z" fill="white"/>
<path d="M41.2902 51.6129H33.5483C33.2061 51.6129 32.8779 51.4769 32.6359 51.2349C32.3939 50.993 32.258 50.6648 32.258 50.3225C32.258 49.9803 32.3939 49.6521 32.6359 49.4102C32.8779 49.1682 33.2061 49.0322 33.5483 49.0322H41.2902C41.6325 49.0322 41.9607 49.1682 42.2026 49.4102C42.4446 49.6521 42.5806 49.9803 42.5806 50.3225C42.5806 50.6648 42.4446 50.993 42.2026 51.2349C41.9607 51.4769 41.6325 51.6129 41.2902 51.6129Z" fill="white"/>
<path d="M63.2257 27.0969H50.3225C49.9803 27.0969 49.6521 26.961 49.4101 26.719C49.1681 26.477 49.0322 26.1488 49.0322 25.8066V20.6453C49.0322 20.3031 49.1681 19.9749 49.4101 19.7329C49.6521 19.4909 49.9803 19.355 50.3225 19.355H63.2257C63.5679 19.355 63.8961 19.4909 64.1381 19.7329C64.3801 19.9749 64.516 20.3031 64.516 20.6453V25.8066C64.516 26.1488 64.3801 26.477 64.1381 26.719C63.8961 26.961 63.5679 27.0969 63.2257 27.0969ZM51.6128 24.5163H61.9354V21.9356H51.6128V24.5163Z" fill="white"/>
<path d="M52.9032 42.2064C52.561 42.2064 52.2328 42.0705 51.9908 41.8285C51.7488 41.5865 51.6129 41.2583 51.6129 40.9161V25.8064C51.6129 25.4642 51.7488 25.136 51.9908 24.894C52.2328 24.6521 52.561 24.5161 52.9032 24.5161H60.6451C60.9873 24.5161 61.3155 24.6521 61.5575 24.894C61.7995 25.136 61.9354 25.4642 61.9354 25.8064V40.4645C61.9354 40.8067 61.7995 41.1349 61.5575 41.3769C61.3155 41.6189 60.9873 41.7548 60.6451 41.7548C60.3029 41.7548 59.9747 41.6189 59.7327 41.3769C59.4907 41.1349 59.3548 40.8067 59.3548 40.4645V27.0968H54.1935V40.9161C54.1935 41.2583 54.0576 41.5865 53.8156 41.8285C53.5736 42.0705 53.2454 42.2064 52.9032 42.2064Z" fill="white"/>
<path d="M42.5806 56.7742H5.16129C4.81908 56.7742 4.49088 56.6382 4.2489 56.3962C4.00692 56.1542 3.87097 55.826 3.87097 55.4838V50.3225C3.87097 49.9803 4.00692 49.6521 4.2489 49.4102C4.49088 49.1682 4.81908 49.0322 5.16129 49.0322H42.5806C42.9228 49.0322 43.251 49.1682 43.493 49.4102C43.735 49.6521 43.8709 49.9803 43.8709 50.3225C43.8709 50.6648 43.735 50.993 43.493 51.2349C43.251 51.4769 42.9228 51.6129 42.5806 51.6129H6.45161V54.1935H42.5806C42.9228 54.1935 43.251 54.3295 43.493 54.5714C43.735 54.8134 43.8709 55.1416 43.8709 55.4838C43.8709 55.826 43.735 56.1542 43.493 56.3962C43.251 56.6382 42.9228 56.7742 42.5806 56.7742Z" fill="white"/>
<path d="M42.5806 61.9353H1.29032C0.948107 61.9353 0.619908 61.7993 0.377926 61.5574C0.135944 61.3154 0 60.9872 0 60.645V55.4837C0 55.1415 0.135944 54.8133 0.377926 54.5713C0.619908 54.3293 0.948107 54.1934 1.29032 54.1934H42.5806C42.9228 54.1934 43.251 54.3293 43.493 54.5713C43.735 54.8133 43.8709 55.1415 43.8709 55.4837C43.8709 55.8259 43.735 56.1541 43.493 56.3961C43.251 56.6381 42.9228 56.774 42.5806 56.774H2.58064V59.3546H42.5806C42.9228 59.3546 43.251 59.4906 43.493 59.7326C43.735 59.9746 43.8709 60.3028 43.8709 60.645C43.8709 60.9872 43.735 61.3154 43.493 61.5574C43.251 61.7993 42.9228 61.9353 42.5806 61.9353Z" fill="white"/>
<path d="M73.5483 61.9353C73.2061 61.9353 72.8779 61.7993 72.6359 61.5574C72.3939 61.3154 72.258 60.9872 72.258 60.645V55.4837C72.258 55.1415 72.3939 54.8133 72.6359 54.5713C72.8779 54.3293 73.2061 54.1934 73.5483 54.1934C73.8905 54.1934 74.2187 54.3293 74.4607 54.5713C74.7027 54.8133 74.8386 55.1415 74.8386 55.4837V60.645C74.8386 60.9872 74.7027 61.3154 74.4607 61.5574C74.2187 61.7993 73.8905 61.9353 73.5483 61.9353Z" fill="white"/>
<path d="M24.5161 51.6128H11.6129C11.2707 51.6128 10.9425 51.4768 10.7005 51.2349C10.4585 50.9929 10.3226 50.6647 10.3226 50.3225V45.1612C10.3226 44.819 10.4585 44.4908 10.7005 44.2488C10.9425 44.0068 11.2707 43.8708 11.6129 43.8708H24.5161C24.8583 43.8708 25.1865 44.0068 25.4285 44.2488C25.6705 44.4908 25.8064 44.819 25.8064 45.1612V50.3225C25.8064 50.6647 25.6705 50.9929 25.4285 51.2349C25.1865 51.4768 24.8583 51.6128 24.5161 51.6128ZM12.9032 49.0321H23.2258V46.4515H12.9032V49.0321Z" fill="white"/>
<path d="M42.5806 51.6128H30.9678C30.6255 51.6128 30.2973 51.4768 30.0554 51.2349C29.8134 50.9929 29.6774 50.6647 29.6774 50.3225V45.1612C29.6774 44.819 29.8134 44.4908 30.0554 44.2488C30.2973 44.0068 30.6255 43.8708 30.9678 43.8708H42.5806C42.9229 43.8708 43.2511 44.0068 43.493 44.2488C43.735 44.4908 43.871 44.819 43.871 45.1612C43.871 45.5034 43.735 45.8316 43.493 46.0736C43.2511 46.3155 42.9229 46.4515 42.5806 46.4515H32.2581V49.0321H42.5806C42.9229 49.0321 43.2511 49.1681 43.493 49.4101C43.735 49.652 43.871 49.9802 43.871 50.3225C43.871 50.6647 43.735 50.9929 43.493 51.2349C43.2511 51.4768 42.9229 51.6128 42.5806 51.6128Z" fill="white"/>
<path d="M58.0644 79.9999C57.851 79.9998 57.6409 79.9471 57.4528 79.8464C51.4528 76.6116 41.2902 69.4787 41.2902 63.2554V42.7651C41.2903 42.4624 41.3969 42.1693 41.5913 41.9372C41.7856 41.7051 42.0554 41.5488 42.3534 41.4955L57.8373 38.7303C57.9874 38.7025 58.1414 38.7025 58.2915 38.7303L73.7753 41.4955C74.0734 41.5488 74.3432 41.7051 74.5375 41.9372C74.7319 42.1693 74.8385 42.4624 74.8386 42.7651V63.2554C74.8386 69.5096 64.6812 76.6258 58.6799 79.8451C58.4908 79.9472 58.2792 80.0004 58.0644 79.9999ZM43.8709 43.8439V63.2554C43.8709 67.2554 51.076 73.3483 58.0709 77.2387C65.0592 73.3664 72.2579 67.2812 72.2579 63.2554V43.8439L58.0644 41.311L43.8709 43.8439Z" fill="white"/>
<path d="M56.1664 65.8063C55.6606 65.8078 55.1595 65.7093 54.6919 65.5167C54.2242 65.3241 53.7992 65.041 53.4412 64.6837L48.8877 60.1676C48.3441 59.6285 47.9726 58.9403 47.8201 58.1901C47.6677 57.4398 47.7411 56.6612 48.0312 55.9527C48.3212 55.2442 48.8148 54.6376 49.4496 54.2096C50.0844 53.7816 50.8318 53.5515 51.5973 53.5483H51.6128C52.1188 53.5469 52.62 53.6453 53.0879 53.8379C53.5557 54.0306 53.981 54.3136 54.3393 54.6708L56.0464 56.3637L61.6773 50.276C62.3854 49.5704 63.3389 49.1661 64.3382 49.1476C65.3376 49.1292 66.3054 49.498 67.039 50.1769C67.7726 50.8558 68.2152 51.7922 68.274 52.79C68.3329 53.7878 68.0035 54.7697 67.3548 55.5302L59.0051 64.5624C58.6526 64.9417 58.2282 65.2469 57.7566 65.4605C57.2849 65.674 56.7755 65.7916 56.258 65.8063H56.1664ZM51.6128 56.1289C51.3576 56.13 51.1085 56.2067 50.8969 56.3494C50.6853 56.492 50.5208 56.6942 50.4241 56.9304C50.3274 57.1666 50.3029 57.4261 50.3538 57.6762C50.4046 57.9263 50.5284 58.1557 50.7096 58.3354L55.2632 62.8515C55.5028 63.0909 55.8276 63.2255 56.1664 63.2257H56.2219C56.5621 63.2107 56.8826 63.0618 57.1135 62.8115L65.4619 53.7792C65.5792 53.6552 65.6708 53.5091 65.7313 53.3494C65.7919 53.1898 65.8201 53.0196 65.8143 52.849C65.8086 52.6783 65.7691 52.5105 65.698 52.3552C65.6269 52.1999 65.5257 52.0603 65.4003 51.9444C65.2749 51.8286 65.1277 51.7387 64.9673 51.6802C64.8068 51.6216 64.6364 51.5955 64.4658 51.6033C64.2952 51.6111 64.1279 51.6526 63.9735 51.7256C63.8191 51.7986 63.6807 51.9014 63.5664 52.0283L57.0322 59.0966C56.9147 59.2238 56.7728 59.326 56.6149 59.3971C56.4571 59.4683 56.2866 59.507 56.1135 59.5108C55.7662 59.5038 55.4333 59.3709 55.1767 59.1366L52.5161 56.5031C52.2762 56.264 51.9515 56.1295 51.6128 56.1289Z" fill="white"/>
<path d="M37.4193 16.7742C36.3985 16.7742 35.4006 16.4715 34.5518 15.9044C33.7031 15.3373 33.0415 14.5312 32.6509 13.5881C32.2602 12.645 32.158 11.6072 32.3572 10.606C32.5563 9.60484 33.0479 8.68519 33.7697 7.96337C34.4915 7.24155 35.4112 6.74998 36.4124 6.55084C37.4136 6.35169 38.4513 6.4539 39.3944 6.84454C40.3375 7.23519 41.1436 7.89672 41.7107 8.74549C42.2779 9.59426 42.5806 10.5921 42.5806 11.6129C42.5806 12.9818 42.0368 14.2946 41.0689 15.2625C40.1009 16.2305 38.7881 16.7742 37.4193 16.7742ZM37.4193 9.0323C36.9089 9.0323 36.4099 9.18366 35.9856 9.46722C35.5612 9.75079 35.2304 10.1538 35.0351 10.6254C34.8398 11.0969 34.7887 11.6158 34.8882 12.1164C34.9878 12.617 35.2336 13.0768 35.5945 13.4377C35.9554 13.7986 36.4152 14.0444 36.9158 14.144C37.4164 14.2436 37.9353 14.1925 38.4069 13.9971C38.8784 13.8018 39.2814 13.4711 39.565 13.0467C39.8486 12.6223 39.9999 12.1233 39.9999 11.6129C39.9999 10.9285 39.728 10.2721 39.2441 9.78816C38.7601 9.30419 38.1037 9.0323 37.4193 9.0323Z" fill="white"/>
</svg>
