<svg width="138" height="138" viewBox="0 0 138 138" fill="none" xmlns="http://www.w3.org/2000/svg">
<path d="M7.16117 112.661C2.27961 117.543 2.27961 125.457 7.16117 130.339C12.0427 135.22 19.9573 135.22 24.8388 130.339L16 121.5L7.16117 112.661ZM137.5 12.5C137.5 5.59645 131.904 7.23549e-06 125 1.84069e-06L12.5 4.91992e-07C5.59644 4.91992e-07 -6.19584e-06 5.59644 -6.19584e-06 12.5C-3.49844e-06 19.4036 5.59644 25 12.5 25H112.5V125C112.5 131.904 118.096 137.5 125 137.5C131.904 137.5 137.5 131.904 137.5 125L137.5 12.5ZM16 121.5L24.8388 130.339L133.839 21.3388L125 12.5L116.161 3.66117L7.16117 112.661L16 121.5Z" fill="#818181" fill-opacity="0.15"/>
</svg>
