<svg width="141" height="180" viewBox="0 0 141 180" fill="none" xmlns="http://www.w3.org/2000/svg">
<path d="M131.79 0H8.95312C4.01607 0 0 4.01607 0 8.95312V130.454C0 132.102 1.33625 133.439 2.98438 133.439C4.6325 133.439 5.96875 132.102 5.96875 130.454V8.95312C5.96875 7.30793 7.30793 5.96875 8.95312 5.96875H131.79C133.436 5.96875 134.775 7.30793 134.775 8.95312V133.998C134.775 135.643 133.436 136.983 131.79 136.983H21.0393C9.44859 136.983 0.010208 146.419 3.13073e-05 158.023C3.13073e-05 169.624 9.43842 179.062 21.0393 179.062H92.829C94.4771 179.062 95.8133 177.726 95.8133 176.078C95.8133 174.43 94.4771 173.094 92.829 173.094H21.0393C12.7288 173.094 5.96878 166.334 5.96878 158.026C5.97606 149.714 12.7361 142.951 21.0393 142.951H131.79C132.826 142.96 133.8 142.726 134.775 142.44V155.187H26.0783C24.4302 155.187 23.0939 156.524 23.0939 158.172C23.0939 159.82 24.4302 161.156 26.0783 161.156H134.775V170.109C134.775 171.755 133.436 173.094 131.79 173.094H107.455C105.807 173.094 104.471 174.43 104.471 176.078C104.471 177.726 105.807 179.062 107.455 179.062H131.79C136.728 179.062 140.744 175.046 140.744 170.109V8.95312C140.744 4.01607 136.728 0 131.79 0Z" fill="#818181" fill-opacity="0.1"/>
<path d="M40.3926 65.1127C40.3926 74.8061 45.0192 83.7709 52.8474 89.4117V95.5932C52.8474 100.216 56.6084 103.977 61.2307 103.977H79.513C84.1352 103.977 87.8963 100.216 87.8963 95.5932V89.4117C95.7245 83.7709 100.351 74.8061 100.351 65.1127C100.351 48.5821 86.9025 35.1334 70.3718 35.1334C53.8412 35.1334 40.3926 48.5821 40.3926 65.1127Z" fill="#818181" fill-opacity="0.1"/>
<path d="M61.1931 107.149C56.5913 107.149 52.8477 110.892 52.8477 115.494V116.319C52.8477 120.921 56.5912 124.665 61.1931 124.665H79.5511C84.153 124.665 87.8966 120.921 87.8966 116.319V115.494C87.8966 110.893 84.153 107.149 79.5511 107.149H61.1931ZM81.9278 115.494V116.319C81.9278 117.629 80.8611 118.696 79.5511 118.696H61.1931C59.8831 118.696 58.8164 117.629 58.8164 116.319V115.494C58.8164 114.184 59.8831 113.118 61.1931 113.118H79.5511C80.8611 113.118 81.9278 114.184 81.9278 115.494Z" fill="#818181" fill-opacity="0.1"/>
<path d="M73.3564 25.6776V17.9062C73.3564 16.2581 72.0202 14.9219 70.3721 14.9219C68.7239 14.9219 67.3877 16.2581 67.3877 17.9062V25.6776C67.3877 27.3257 68.7239 28.6619 70.3721 28.6619C72.0202 28.6619 73.3564 27.3257 73.3564 25.6776Z" fill="#818181" fill-opacity="0.1"/>
<path d="M38.9694 29.6776C37.8036 28.5118 35.9151 28.5118 34.7493 29.6776C33.5836 30.8433 33.5835 32.7319 34.7493 33.8977L40.2445 39.3928C40.8274 39.9757 41.5909 40.2671 42.3545 40.2671C43.1181 40.2671 43.8817 39.9757 44.4646 39.3928C45.6304 38.227 45.6304 36.3385 44.4646 35.1727L38.9694 29.6776Z" fill="#818181" fill-opacity="0.1"/>
<path d="M100.5 39.3928L105.995 33.8976C107.161 32.7319 107.161 30.8433 105.995 29.6776C104.829 28.5118 102.941 28.5118 101.775 29.6776L96.2796 35.1727C95.1138 36.3385 95.1138 38.227 96.2796 39.3928C96.8625 39.9757 97.6261 40.2671 98.3897 40.2671C99.1532 40.2671 99.9168 39.9757 100.5 39.3928Z" fill="#818181" fill-opacity="0.1"/>
</svg>
