<svg width="180" height="181" viewBox="0 0 180 181" fill="none" xmlns="http://www.w3.org/2000/svg">
<path d="M166.3 117.064C188.92 53.138 126.911 -8.83451 63.0165 13.7801C56.5782 5.40655 46.4622 0 35.1072 0C1.5053 0.0601706 -12.6675 43.0005 13.6999 63.0964C-8.92039 127.023 53.0887 188.996 116.984 166.381C123.422 174.754 133.538 180.16 144.893 180.16C178.495 180.1 192.667 137.16 166.3 117.064ZM6.95724 35.1875C6.95724 19.6656 19.5853 7.03749 35.1072 7.03749C58.5044 6.82813 71.794 34.8268 57.0909 52.7509C55.9283 47.5569 52.9293 42.8562 48.6343 39.6052C49.1836 38.0837 49.4834 36.444 49.4834 34.7353V29.3062C49.4834 21.3788 43.0342 14.9297 35.1069 14.9297C27.1795 14.9297 20.7303 21.3788 20.7303 29.3062V34.7353C20.7303 36.444 21.0301 38.0837 21.5797 39.6052C17.2851 42.8562 14.2861 47.5569 13.1235 52.7506C9.26624 47.9327 6.95724 41.8249 6.95724 35.1875ZM19.6247 58.687V57.5815C19.6247 52.8667 21.8468 48.3729 25.5285 45.4471C30.662 50.2867 39.5535 50.286 44.6859 45.4471C48.3676 48.3733 50.5897 52.867 50.5897 57.5818V58.6878C41.8477 64.8178 28.366 64.8174 19.6247 58.687ZM42.4463 34.7353C42.0761 44.4608 28.1345 44.4534 27.7678 34.7353V29.3062C28.138 19.5808 42.0796 19.5878 42.4463 29.3062V34.7353ZM90 163.974C40.5732 164.81 3.62253 113.471 19.8401 66.8875C49.7424 81.1827 81.0986 49.8061 66.8072 19.9207C123.915 0.751252 179.327 56.1842 160.16 113.273C130.257 98.9777 98.901 130.355 113.193 160.24C105.703 162.719 97.9147 163.974 90 163.974ZM129.41 168.473V167.367C129.41 162.652 131.632 158.158 135.314 155.232C140.447 160.072 149.339 160.071 154.471 155.232C158.152 158.158 160.375 162.652 160.375 167.367V168.473C151.633 174.603 138.152 174.603 129.41 168.473ZM152.232 144.521C151.862 154.246 137.92 154.239 137.554 144.521V139.092C137.924 129.366 151.865 129.374 152.232 139.092V144.521ZM166.876 162.536C165.714 157.342 162.715 152.642 158.42 149.391C158.969 147.869 159.269 146.23 159.269 144.521V139.092C159.269 131.164 152.82 124.715 144.892 124.715C136.965 124.715 130.516 131.164 130.516 139.092V144.521C130.516 146.23 130.816 147.869 131.365 149.391C127.07 152.642 124.071 157.342 122.909 162.536C108.207 144.606 121.496 116.614 144.893 116.823C168.288 116.614 181.581 144.611 166.876 162.536Z" fill="#818181" fill-opacity="0.1"/>
<path fill-rule="evenodd" clip-rule="evenodd" d="M118.17 101.616C133.336 75.3491 105.448 57.8932 89.9992 73.342C74.5504 57.8932 46.6629 75.3491 61.828 101.616C68.8075 113.705 82.8843 124.788 89.9992 126.694C97.1141 124.788 111.191 113.705 118.17 101.616Z" fill="#818181" fill-opacity="0.1"/>
</svg>
