<svg width="171" height="181" viewBox="0 0 171 181" fill="none" xmlns="http://www.w3.org/2000/svg">
<path d="M149.094 129.449H130.463C128.299 129.449 126.184 129.738 124.146 130.304C118.671 122.925 109.481 118.073 99.0853 118.073H71.3728C60.9768 118.073 51.7872 122.925 46.3125 130.304C44.2745 129.738 42.1588 129.449 39.9947 129.449H21.3642C9.58409 129.449 0 137.986 0 148.479V160.999C0 166.725 4.65836 171.383 10.3848 171.383H41.1311C41.8947 176.363 46.2068 180.188 51.3956 180.188H119.063C124.252 180.188 128.565 176.362 129.328 171.383H160.074C165.8 171.383 170.458 166.725 170.458 160.999V148.479C170.458 137.986 160.874 129.449 149.094 129.449H149.094ZM41.0108 146.111V165.571H10.3848C7.86395 165.571 5.8125 163.519 5.8125 160.999V148.479C5.8125 141.19 12.789 135.261 21.3642 135.261H39.9947C41.1009 135.261 42.1889 135.36 43.2519 135.556C41.8119 138.816 41.0112 142.378 41.0112 146.11L41.0108 146.111ZM123.635 169.803C123.635 172.324 121.584 174.375 119.063 174.375H51.3952C48.8744 174.375 46.8233 172.324 46.8233 169.803V146.111C46.8233 142.281 47.8986 138.675 49.7902 135.526C49.8981 135.386 49.9955 135.235 50.078 135.073C54.3174 128.395 62.2715 123.885 71.372 123.885H99.0846C108.186 123.885 116.14 128.395 120.379 135.073C120.462 135.235 120.56 135.386 120.668 135.526C122.559 138.675 123.634 142.281 123.634 146.11V169.803L123.635 169.803ZM164.645 160.999C164.645 163.52 162.594 165.571 160.073 165.571H129.447V146.111C129.447 142.378 128.647 138.816 127.207 135.556C128.269 135.361 129.357 135.262 130.463 135.262H149.094C157.668 135.262 164.645 141.191 164.645 148.479V160.999V160.999Z" fill="#818181" fill-opacity="0.1"/>
<path d="M128.314 86.5776C129.919 86.5776 131.221 85.2763 131.221 83.6713C131.221 58.3114 110.589 37.6796 85.229 37.6796C59.869 37.6796 39.2368 58.3114 39.2368 83.6713C39.2368 85.2763 40.5381 86.5776 42.1431 86.5776C43.748 86.5776 45.0493 85.2763 45.0493 83.6713C45.0493 61.5166 63.0735 43.4921 85.229 43.4921C107.384 43.4921 125.408 61.5163 125.408 83.6717C125.408 85.2767 126.709 86.5776 128.314 86.5776Z" fill="#818181" fill-opacity="0.1"/>
<path d="M149.104 29.2176L139.682 19.7959C136.483 16.5969 131.583 16.4421 126.896 19.3916L115.724 26.424C112.025 24.4499 108.143 22.8402 104.144 21.6221L101.218 8.75508C99.9895 3.3549 96.4155 0 91.8909 0H78.5668C74.0418 0 70.4678 3.35454 69.2392 8.75508L66.313 21.6221C62.3129 22.8406 58.4309 24.4503 54.7334 26.424L43.5607 19.3916C38.8743 16.4417 33.9744 16.598 30.7746 19.7959L21.3529 29.2176C18.1531 32.4178 17.9984 37.317 20.9486 42.004L27.9795 53.1757C26.0051 56.8742 24.3954 60.7562 23.1766 64.7567L10.3117 67.6826C4.91154 68.9112 1.55664 72.4851 1.55664 77.0098V83.672C1.55664 85.277 2.85791 86.5783 4.46289 86.5783C6.06787 86.5783 7.36914 85.277 7.36914 83.672V77.0098C7.36914 74.5758 10.3284 73.64 11.6006 73.3505L26.1355 70.0446C27.18 69.807 28.009 69.014 28.2931 67.9812C29.5831 63.2898 31.462 58.7589 33.877 54.5154C34.4074 53.5844 34.382 52.4367 33.8109 51.5296L25.8671 38.9078C25.1721 37.8034 23.7408 35.0494 25.4627 33.3281L34.8841 23.9064C36.606 22.1859 39.3593 23.6158 40.4641 24.3108L53.0866 32.2561C53.9941 32.8272 55.1414 32.8526 56.0724 32.3222C60.3152 29.9079 64.845 28.0293 69.5367 26.7393C70.5695 26.4552 71.3622 25.6262 71.6002 24.5818L74.9064 10.0447C75.1959 8.77251 76.1317 5.81323 78.5661 5.81323H91.8902C94.3241 5.81323 95.26 8.77251 95.5495 10.0447L98.8557 24.5818C99.0933 25.6262 99.8863 26.4552 100.92 26.7393C105.608 28.0286 110.139 29.9071 114.383 32.3226C115.314 32.8526 116.462 32.8272 117.369 32.2561L129.991 24.3108C131.096 23.6155 133.85 22.1845 135.572 23.9064L144.994 33.3278C146.715 35.0494 145.284 37.8038 144.589 38.9078L136.646 51.526C136.076 52.4331 136.05 53.5804 136.58 54.5118C138.995 58.7538 140.873 63.2854 142.164 67.9812C142.448 69.0144 143.277 69.807 144.322 70.045L158.855 73.3505C160.127 73.64 163.087 74.5758 163.087 77.0098V83.672C163.087 85.277 164.388 86.5783 165.993 86.5783C167.598 86.5783 168.899 85.277 168.899 83.672V77.0098C168.899 72.4851 165.545 68.9112 160.144 67.6826L147.281 64.7571C146.062 60.7533 144.452 56.8702 142.478 53.172L149.508 42.0037C152.458 37.317 152.303 32.4174 149.103 29.2176H149.104Z" fill="#818181" fill-opacity="0.1"/>
<path d="M139.778 124.951C149.876 124.951 158.09 116.736 158.09 106.639C158.09 96.5417 149.876 88.3275 139.778 88.3275C129.681 88.3275 121.467 96.542 121.467 106.639C121.467 116.736 129.681 124.951 139.778 124.951ZM139.778 94.14C146.671 94.14 152.278 99.7473 152.278 106.639C152.278 113.531 146.671 119.138 139.778 119.138C132.886 119.138 127.279 113.531 127.279 106.639C127.279 99.7469 132.887 94.14 139.778 94.14Z" fill="#818181" fill-opacity="0.1"/>
<path d="M85.229 53.989C68.8617 53.989 55.5464 67.3044 55.5464 83.6716C55.5464 100.039 68.8617 113.354 85.229 113.354C101.596 113.354 114.912 100.039 114.912 83.6716C114.912 67.3044 101.596 53.989 85.229 53.989Z" fill="#818181" fill-opacity="0.1"/>
<path d="M30.6792 88.3275C20.5822 88.3275 12.3677 96.542 12.3677 106.639C12.3677 116.736 20.5822 124.951 30.6792 124.951C40.7763 124.951 48.9911 116.736 48.9911 106.639C48.9911 96.5417 40.7766 88.3275 30.6792 88.3275ZM30.6792 119.138C23.7871 119.138 18.1802 113.531 18.1802 106.639C18.1802 99.7469 23.7874 94.14 30.6792 94.14C37.571 94.14 43.1786 99.7473 43.1786 106.639C43.1786 113.531 37.5714 119.138 30.6792 119.138Z" fill="#818181" fill-opacity="0.1"/>
</svg>
