<svg width="29" height="25" viewBox="0 0 29 25" fill="none" xmlns="http://www.w3.org/2000/svg">
<path d="M20.4393 6.71619H27.3575C28.1757 6.71619 28.84 7.38044 28.84 8.19864V15.1168C28.84 20.5714 24.4115 25 18.9568 25H12.0386C11.2204 25 10.5562 24.3357 10.5562 23.5175V16.5993C10.5562 11.1447 14.9847 6.71619 20.4393 6.71619Z" fill="#77BC48"/>
<path d="M21.5146 8.98172C21.1151 9.04188 20.8403 9.4145 20.9006 9.814C21.8152 15.6522 17.1265 21.1015 11.2049 21.0503C-1.79492 20.5128 -1.79383 1.99951 11.2049 1.4627C13.392 1.4627 15.4603 2.16681 17.1862 3.4986C17.5057 3.74525 17.9651 3.68601 18.212 3.36623C18.4588 3.04644 18.3994 2.58715 18.0796 2.34051C16.0953 0.809423 13.718 0 11.2045 0C-3.73484 0.61726 -3.73484 21.8959 11.2045 22.513C18.0099 22.5713 23.4004 16.3071 22.3463 9.59569C22.2862 9.19656 21.9135 8.92139 21.514 8.98172H21.5146Z" fill="black"/>
<path d="M24.0443 1.87854C23.7581 1.5935 23.2946 1.59423 23.01 1.88055L11.2575 13.6774L7.36413 9.76854C7.07908 9.48258 6.61614 9.48185 6.32981 9.76653C6.04385 10.0516 6.04294 10.5147 6.3278 10.8008L10.7393 15.2299C11.0119 15.514 11.503 15.5146 11.7756 15.2299L24.0463 2.91304C24.3313 2.6269 24.3304 2.16359 24.0443 1.87854Z" fill="black"/>
</svg>
