<svg width="284" height="325" viewBox="0 0 284 325" fill="none" xmlns="http://www.w3.org/2000/svg">
<path d="M141.54 324.346C139.917 324.346 138.293 323.926 136.838 323.085L4.70192 246.706C1.79241 245.024 0 241.916 0 238.552V85.7941C0 82.4304 1.79241 79.3223 4.70192 77.6404L136.838 1.26137C139.748 -0.420458 143.333 -0.420458 146.242 1.26137L278.378 77.6404C281.288 79.3223 283.08 82.4304 283.08 85.7941V238.552C283.08 241.916 281.288 245.024 278.378 246.706L146.242 323.085C144.787 323.926 143.163 324.346 141.54 324.346ZM18.8077 233.116L141.54 304.06L264.272 233.116V91.2298L141.54 20.2863L18.8077 91.2298V233.116Z" fill="#D2E5C4"/>
<path d="M126.85 197.842C126.96 200.957 124.535 203.572 121.435 203.683C118.336 203.792 115.735 201.355 115.626 198.24L113.631 117.689C113.523 114.573 115.946 111.957 119.046 111.846C122.145 111.737 124.746 114.174 124.857 117.289L126.85 197.842Z" fill="#24577B"/>
<path d="M125.499 201.296C123.681 203.838 120.112 204.449 117.528 202.661C114.943 200.873 114.322 197.364 116.14 194.821L152.454 145.091C154.273 142.55 157.842 141.939 160.426 143.727C163.011 145.516 163.632 149.024 161.814 151.566L125.499 201.296Z" fill="#24577B"/>
<path d="M168.657 204.691C170.278 207.368 169.394 210.835 166.685 212.436C163.976 214.037 160.465 213.165 158.846 210.488L146.033 189.454C144.413 186.779 145.295 183.312 148.004 181.711C150.714 180.11 154.224 180.981 155.845 183.658L168.657 204.691Z" fill="#6DAA43"/>
</svg>
