<svg width="62" height="59" viewBox="0 0 62 59" fill="none" xmlns="http://www.w3.org/2000/svg">
<path d="M3.37976 35.5159L5.49179 35.6136C5.33679 37.0232 5.52455 38.5517 6.09415 39.9013C7.11866 42.3299 9.19163 43.7233 11.7787 43.7233C14.3646 43.7233 16.4363 42.3299 17.4608 39.9013C18.6214 37.1509 18.2018 33.6531 16.5056 31.9393C16.3456 31.7778 16.1805 31.6263 16.0116 31.4874C15.9486 30.9253 15.9146 30.3569 15.9146 29.7898C15.9146 21.4448 22.7485 14.6558 31.1487 14.6558C39.5489 14.6558 46.3828 21.4448 46.3828 29.7898C46.3828 30.273 46.3589 30.76 46.3122 31.2407C46.0274 31.4461 45.7552 31.6764 45.4956 31.9393C43.7995 33.6544 43.3798 37.1509 44.5404 39.9013C45.5662 42.3299 47.6379 43.7233 50.225 43.7233C52.8109 43.7233 54.8826 42.3299 55.9071 39.9013C56.4742 38.5567 56.6632 37.0332 56.5107 35.6273L58.9176 35.5159C60.1614 35.4583 61.1355 34.4443 61.1355 33.2075V26.3709C61.1355 25.1341 60.1614 24.12 58.9176 24.0624L54.7604 23.8709C54.4 23.8546 54.1152 23.6305 54.0156 23.285C53.5204 21.5649 52.8248 19.8974 51.9464 18.3276C51.7713 18.0146 51.8128 17.6553 52.0561 17.3899L54.8612 14.3316C55.7004 13.4177 55.6677 12.0156 54.7868 11.1405L49.9213 6.30699C49.0405 5.43192 47.6304 5.39937 46.7092 6.23313L43.6293 9.01857C43.3622 9.26018 43.0005 9.30149 42.6855 9.12748C41.1065 8.25492 39.428 7.56388 37.6952 7.07189C37.3487 6.97299 37.1219 6.69006 37.1055 6.33203L36.9127 2.20331C36.8547 0.967706 35.834 0 34.5889 0H27.7072C26.4622 0 25.4414 0.967706 25.3835 2.20331L25.1906 6.33328C25.1743 6.69132 24.9474 6.97424 24.6009 7.07314C22.8682 7.56513 21.1896 8.25742 19.6106 9.12873C19.2956 9.30274 18.9339 9.26143 18.6668 9.01982L15.5882 6.23313C14.6683 5.39937 13.2569 5.43192 12.3761 6.30699L7.50931 11.1418C6.62845 12.0168 6.59569 13.4177 7.43496 14.3328L10.2401 17.3912C10.4833 17.6566 10.5249 18.0159 10.3497 18.3288C9.47264 19.8962 8.77577 21.5649 8.28053 23.2863C8.18098 23.6305 7.89618 23.8546 7.53577 23.8722L3.3785 24.0637C2.13472 24.1213 1.16061 25.1353 1.16061 26.3722V33.2087C1.16187 34.4443 2.13598 35.4583 3.37976 35.5159ZM16.0671 39.3204C15.5088 40.6436 14.3117 42.221 11.7787 42.221C9.24455 42.221 8.0474 40.6436 7.48915 39.3204C6.57805 37.1622 6.87041 34.264 8.12931 32.9921C9.09333 32.0182 10.1859 31.6025 11.7825 31.6025C13.3514 31.6025 14.4767 32.0307 15.4269 32.9934C16.6846 34.2628 16.9782 37.1609 16.0671 39.3204ZM54.5109 39.3204C53.9526 40.6436 52.7554 42.221 50.2225 42.221C47.6883 42.221 46.4912 40.6436 45.9329 39.3204C45.0218 37.1622 45.3142 34.264 46.5731 32.9921C47.5371 32.0182 48.6297 31.6025 50.2263 31.6025C51.7965 31.6025 52.9205 32.0307 53.8707 32.9934C55.1296 34.2628 55.422 37.1609 54.5109 39.3204ZM2.67406 26.3709C2.67406 25.9378 3.01557 25.5835 3.45033 25.5635L7.6076 25.3719C8.62203 25.3256 9.45752 24.6684 9.73602 23.6994C10.1998 22.0882 10.8513 20.5271 11.6729 19.0587C12.1669 18.1773 12.0434 17.1245 11.3591 16.3796L8.55398 13.3225C8.26037 13.0021 8.27171 12.5126 8.58045 12.2059L13.4472 7.37109C13.7547 7.06438 14.2487 7.05311 14.5713 7.3448L17.6486 10.1315C18.3996 10.8113 19.4582 10.9339 20.3453 10.4432C21.8235 9.62698 23.3949 8.97976 25.0167 8.51907C25.9921 8.24115 26.6537 7.41115 26.7003 6.40463L26.8931 2.27467C26.9133 1.84277 27.2712 1.50351 27.7059 1.50351H34.5877C35.0237 1.50351 35.3803 1.84277 35.4005 2.27467L35.5933 6.40338C35.6399 7.41115 36.3015 8.24115 37.2781 8.51781C38.9 8.97851 40.4714 9.62573 41.9496 10.442C42.838 10.9327 43.8965 10.81 44.6463 10.1302L47.7236 7.3448C48.0462 7.05311 48.5389 7.06438 48.8477 7.37109L53.7132 12.2059C54.0219 12.5126 54.0333 13.0021 53.7396 13.3225L50.9345 16.3809C50.2502 17.127 50.1267 18.1786 50.6207 19.0599C51.4436 20.5296 52.0951 22.0907 52.5576 23.7007C52.8361 24.6709 53.6716 25.3268 54.686 25.3732L58.8433 25.5647C59.278 25.5847 59.6196 25.9403 59.6196 26.3722V33.2087C59.6196 33.6419 59.278 33.9961 58.8433 34.0162L56.2033 34.1364C55.9323 33.27 55.5114 32.5064 54.9506 31.938C53.7094 30.6837 52.2085 30.099 50.2276 30.099C49.3593 30.099 48.583 30.2104 47.8799 30.4408C47.8887 30.223 47.8937 30.0051 47.8937 29.7886C47.8937 20.616 40.3819 13.1523 31.1474 13.1523C21.913 13.1523 14.4011 20.6148 14.4011 29.7886C14.4011 30.0414 14.4087 30.2943 14.42 30.5485C13.6425 30.2455 12.7717 30.099 11.7813 30.099C9.79398 30.099 8.29061 30.6837 7.04935 31.938C6.4911 32.5026 6.07146 33.2613 5.80053 34.1226L3.45033 34.0137C3.01557 33.9936 2.67406 33.6394 2.67406 33.2062V26.3709ZM52.9609 45.3707H47.4829C46.931 45.3707 46.3803 45.4246 45.8397 45.531C44.1611 43.4454 41.8613 41.8667 39.3146 41.0655C38.968 40.9566 38.5925 41.1081 38.4211 41.4261L33.9841 49.6134L33.0137 46.1695C32.889 45.7275 32.9621 45.3144 33.2305 44.9401L35.6122 41.6289C35.7773 41.3998 35.7987 41.0993 35.6689 40.8489C35.5391 40.5986 35.2795 40.4408 34.996 40.4408H27.0028C26.7192 40.4408 26.4596 40.5986 26.3298 40.8489C26.2 41.0993 26.2227 41.3998 26.3865 41.6289L28.7733 44.9464C29.0404 45.3169 29.1135 45.7275 28.9926 46.1682L28.0336 49.6459L23.5789 41.4261C23.4063 41.1081 23.032 40.9566 22.6854 41.0655C20.1387 41.8667 17.8376 43.4454 16.1603 45.531C15.6197 45.4246 15.069 45.3707 14.5171 45.3707H9.03915C4.0552 45.3707 0 49.676 0 54.9689V55.9955C0 57.6517 1.35593 59 3.02439 59H13.955H48.045H58.9756C60.6428 59 62 57.653 62 55.9955V54.9689C62 49.676 57.9448 45.3707 52.9609 45.3707ZM28.4734 41.9431H33.5266L31.9993 44.0663C31.4663 44.8074 31.3087 45.6975 31.5557 46.5738L32.9495 51.5188L31 55.1179L29.0732 51.5626L30.4518 46.5638C30.6925 45.6925 30.5337 44.8074 30.0045 44.0713L28.4734 41.9431ZM13.1989 53.9174V57.4977H3.02439C2.19142 57.4977 1.5122 56.8242 1.5122 55.9955V54.9689C1.5122 50.5047 4.88817 46.873 9.03915 46.873H14.5171C14.7414 46.873 14.9644 46.8868 15.1875 46.9081C13.8845 49.0175 13.1989 51.4161 13.1989 53.9174ZM47.2889 57.4965H41.7807V53.5268C41.7807 53.1124 41.4417 52.7756 41.0246 52.7756C40.6075 52.7756 40.2685 53.1124 40.2685 53.5268V57.4965H21.7315V53.5268C21.7315 53.1124 21.3925 52.7756 20.9754 52.7756C20.5583 52.7756 20.2193 53.1124 20.2193 53.5268V57.4965H14.7111V53.9161C14.7111 48.8785 17.8376 44.4456 22.5531 42.698L30.3346 57.0571C30.467 57.2999 30.7228 57.4527 31 57.4527C31.2772 57.4527 31.5343 57.3012 31.6654 57.0571L39.4469 42.698C44.1624 44.4456 47.2889 48.8785 47.2889 53.9161V57.4965ZM60.4878 55.9955C60.4878 56.823 59.8098 57.4977 58.9756 57.4977H48.8011V53.9174C48.8011 51.4161 48.1155 49.0175 46.8125 46.9081C47.0356 46.8868 47.2586 46.873 47.4829 46.873H52.9609C57.1106 46.873 60.4878 50.5047 60.4878 54.9689V55.9955ZM24.3867 22.7342C22.015 25.1303 21.4379 30.0402 23.0723 33.911C24.524 37.3512 27.3405 39.2453 31.0013 39.2453C34.6608 39.2453 37.476 37.3512 38.9277 33.911C40.5621 30.0389 39.9837 25.1291 37.6133 22.7329C35.8806 20.9816 33.7824 20.1666 31.0076 20.1666C28.2226 20.1678 26.1194 20.9828 24.3867 22.7342ZM37.5327 33.3314C36.8371 34.9789 35.064 37.7443 31.0013 37.7443C26.936 37.7443 25.1629 34.9789 24.4673 33.3314C23.0748 30.0327 23.5235 25.7512 25.4666 23.7883C26.9146 22.3236 28.6233 21.6714 31.0076 21.6714C33.3817 21.6714 35.0867 22.3248 36.5359 23.7883C38.4778 25.75 38.9252 30.0314 37.5327 33.3314Z" fill="#818181"/>
</svg>
