<svg width="62" height="62" viewBox="0 0 62 62" fill="none" xmlns="http://www.w3.org/2000/svg">
<path d="M35 24.9999H22.414L24.707 22.7069C24.8892 22.5183 24.99 22.2657 24.9877 22.0035C24.9854 21.7413 24.8803 21.4905 24.6948 21.3051C24.5094 21.1197 24.2586 21.0145 23.9964 21.0122C23.7342 21.01 23.4816 21.1108 23.293 21.2929L19.293 25.2929C19.1056 25.4804 19.0002 25.7348 19.0002 25.9999C19.0002 26.2651 19.1056 26.5194 19.293 26.7069L23.293 30.7069C23.4816 30.8891 23.7342 30.9899 23.9964 30.9876C24.2586 30.9853 24.5094 30.8801 24.6948 30.6947C24.8803 30.5093 24.9854 30.2585 24.9877 29.9963C24.99 29.7341 24.8892 29.4815 24.707 29.2929L22.414 26.9999H35C36.5913 26.9999 38.1175 27.6321 39.2427 28.7573C40.3679 29.8825 41 31.4086 41 32.9999C41 34.5912 40.3679 36.1173 39.2427 37.2426C38.1175 38.3678 36.5913 38.9999 35 38.9999H22C21.7348 38.9999 21.4805 39.1053 21.2929 39.2928C21.1054 39.4803 21 39.7347 21 39.9999C21 40.2651 21.1054 40.5195 21.2929 40.707C21.4805 40.8946 21.7348 40.9999 22 40.9999H35C37.1218 40.9999 39.1566 40.1571 40.6569 38.6568C42.1572 37.1565 43 35.1217 43 32.9999C43 30.8782 42.1572 28.8434 40.6569 27.3431C39.1566 25.8428 37.1218 24.9999 35 24.9999Z" fill="#818181"/>
<path d="M30.9999 6C26.0554 6 21.2219 7.46622 17.1106 10.2133C12.9994 12.9603 9.79509 16.8648 7.9029 21.4329C6.01071 26.0011 5.51563 31.0277 6.48026 35.8773C7.44489 40.7268 9.82591 45.1814 13.3222 48.6777C16.8185 52.174 21.2731 54.555 26.1226 55.5196C30.9722 56.4843 35.9988 55.9892 40.567 54.097C45.1351 52.2048 49.0396 49.0005 51.7866 44.8893C54.5337 40.778 55.9999 35.9445 55.9999 31C55.9925 24.3719 53.3562 18.0173 48.6694 13.3305C43.9826 8.64371 37.628 6.00741 30.9999 6ZM30.9999 54C26.4509 54 22.0041 52.6511 18.2218 50.1238C14.4394 47.5965 11.4915 44.0044 9.75066 39.8017C8.00984 35.599 7.55437 30.9745 8.44183 26.5129C9.32929 22.0514 11.5198 17.9532 14.7364 14.7365C17.953 11.5199 22.0513 9.3294 26.5128 8.44194C30.9744 7.55448 35.5989 8.00996 39.8016 9.75077C44.0043 11.4916 47.5964 14.4396 50.1237 18.2219C52.651 22.0042 53.9999 26.451 53.9999 31C53.9933 37.098 51.5679 42.9442 47.256 47.2562C42.9441 51.5681 37.0978 53.9934 30.9999 54Z" fill="#818181"/>
<path d="M53.712 12.9664C53.8771 13.1741 54.1179 13.3077 54.3815 13.3378C54.6451 13.3679 54.9098 13.292 55.1175 13.1269C55.3251 12.9618 55.4587 12.721 55.4888 12.4574C55.5189 12.1939 55.4431 11.9291 55.278 11.7214C54.637 10.9154 53.949 10.1334 53.232 9.39644C53.1423 9.29511 53.033 9.21303 52.9107 9.15516C52.7884 9.09729 52.6557 9.06485 52.5205 9.05978C52.3853 9.05472 52.2504 9.07715 52.1241 9.1257C51.9979 9.17426 51.8827 9.24794 51.7858 9.34228C51.6888 9.43662 51.6119 9.54966 51.5599 9.67456C51.5079 9.79946 51.4818 9.93361 51.4831 10.0689C51.4844 10.2042 51.5132 10.3378 51.5676 10.4617C51.6221 10.5855 51.7012 10.697 51.8 10.7894C52.4733 11.4827 53.1115 12.2092 53.712 12.9664Z" fill="#818181"/>
<path d="M42.291 4.27968C43.1813 4.65617 44.0521 5.07737 44.9 5.54168C45.0151 5.60478 45.1416 5.64457 45.2722 5.6588C45.4027 5.67302 45.5348 5.66139 45.6608 5.62457C45.7869 5.58776 45.9045 5.52647 46.0068 5.44421C46.1092 5.36196 46.1944 5.26035 46.2575 5.14518C46.3206 5.03001 46.3604 4.90354 46.3746 4.77299C46.3888 4.64244 46.3772 4.51036 46.3404 4.38431C46.3036 4.25825 46.2423 4.14068 46.16 4.03831C46.0778 3.93594 45.9761 3.85078 45.861 3.78768C44.9543 3.29107 44.0231 2.8405 43.071 2.43768C42.9498 2.38545 42.8196 2.3577 42.6877 2.35604C42.5558 2.35437 42.4249 2.37882 42.3024 2.42796C42.18 2.47711 42.0686 2.55 41.9744 2.64241C41.8803 2.73483 41.8054 2.84496 41.754 2.96645C41.7026 3.08794 41.6758 3.2184 41.6751 3.3503C41.6743 3.48221 41.6997 3.61296 41.7497 3.73503C41.7997 3.85709 41.8733 3.96806 41.9664 4.06153C42.0595 4.15501 42.1691 4.22915 42.291 4.27968Z" fill="#818181"/>
<path d="M49.6759 8.81324C49.8787 8.98415 50.141 9.06752 50.4053 9.04502C50.6695 9.02251 50.914 8.89598 51.0849 8.69324C51.2558 8.49047 51.3392 8.22812 51.3167 7.96389C51.2942 7.69965 51.1676 7.45518 50.9649 7.28424C50.1799 6.62224 49.3499 5.99124 48.4999 5.40824C48.3915 5.33404 48.2695 5.28192 48.141 5.25486C48.0124 5.22779 47.8798 5.22631 47.7507 5.2505C47.6216 5.27469 47.4985 5.32408 47.3885 5.39584C47.2784 5.4676 47.1836 5.56033 47.1094 5.66874C47.0352 5.77714 46.9831 5.8991 46.956 6.02765C46.929 6.1562 46.9275 6.28882 46.9517 6.41794C46.9759 6.54706 47.0253 6.67015 47.097 6.78018C47.1688 6.89022 47.2615 6.98504 47.3699 7.05924C48.1659 7.60024 48.9409 8.19424 49.6759 8.81324Z" fill="#818181"/>
<path d="M36.761 2.57201C37.7082 2.76281 38.645 3.00145 39.568 3.28701C39.6652 3.31691 39.7663 3.33207 39.868 3.33201C40.1081 3.33362 40.3408 3.24879 40.5235 3.09302C40.7062 2.93726 40.8268 2.72095 40.8632 2.48363C40.8996 2.24631 40.8494 2.00381 40.7217 1.80044C40.5941 1.59708 40.3976 1.44643 40.168 1.37601C39.1815 1.07087 38.1802 0.815543 37.168 0.611006C36.908 0.558626 36.6378 0.611693 36.4169 0.758534C36.196 0.905375 36.0424 1.13396 35.99 1.39401C35.9377 1.65405 35.9907 1.92425 36.1376 2.14517C36.2844 2.36609 36.513 2.51963 36.773 2.57201H36.761Z" fill="#818181"/>
<path d="M55.4001 15.322C55.9234 16.1343 56.4057 16.9724 56.8451 17.833C56.9031 17.9528 56.9844 18.0598 57.0843 18.1478C57.1842 18.2357 57.3006 18.3028 57.4268 18.3452C57.553 18.3875 57.6863 18.4043 57.819 18.3945C57.9518 18.3846 58.0812 18.3484 58.1997 18.2879C58.3183 18.2274 58.4235 18.1438 58.5094 18.0421C58.5952 17.9404 58.6599 17.8226 58.6996 17.6956C58.7393 17.5686 58.7532 17.4349 58.7406 17.3024C58.728 17.1699 58.6891 17.0413 58.6261 16.924C58.1569 16.0037 57.6415 15.1075 57.0821 14.239C57.011 14.1286 56.9188 14.0332 56.8109 13.9584C56.7029 13.8836 56.5813 13.8308 56.4529 13.803C56.3245 13.7751 56.1919 13.7729 56.0627 13.7963C55.9334 13.8198 55.81 13.8684 55.6996 13.9395C55.5892 14.0106 55.4938 14.1028 55.419 14.2108C55.3442 14.3187 55.2913 14.4404 55.2635 14.5687C55.2357 14.6971 55.2335 14.8297 55.2569 14.959C55.2803 15.0882 55.329 15.2116 55.4001 15.322Z" fill="#818181"/>
<path d="M58.0321 20.4775C58.3811 21.3775 58.6891 22.3005 58.9471 23.2275C59.0181 23.483 59.1878 23.6998 59.4188 23.8303C59.6497 23.9607 59.923 23.994 60.1786 23.923C60.4341 23.8519 60.6509 23.6822 60.7814 23.4512C60.9118 23.2203 60.9451 22.947 60.8741 22.6915C60.5975 21.6957 60.2711 20.7145 59.8961 19.7515C59.8484 19.6291 59.7771 19.5173 59.6862 19.4224C59.5953 19.3276 59.4867 19.2516 59.3664 19.1988C59.2462 19.1459 59.1167 19.1173 58.9854 19.1145C58.854 19.1117 58.7235 19.1348 58.6011 19.1825C58.4787 19.2301 58.3669 19.3014 58.272 19.3923C58.1772 19.4832 58.1012 19.5919 58.0484 19.7121C57.9417 19.955 57.9358 20.2303 58.0321 20.4775Z" fill="#818181"/>
<path d="M2 31C2.00873 23.3114 5.06689 15.9402 10.5036 10.5036C15.9402 5.06689 23.3114 2.00873 31 2C31.2652 2 31.5196 1.89464 31.7071 1.70711C31.8946 1.51957 32 1.26522 32 1C32 0.734784 31.8946 0.48043 31.7071 0.292893C31.5196 0.105357 31.2652 0 31 0C22.7811 0.00899953 14.9013 3.27795 9.08963 9.08963C3.27795 14.9013 0.00899953 22.7811 0 31C0 31.2652 0.105357 31.5196 0.292893 31.7071C0.48043 31.8946 0.734784 32 1 32C1.26522 32 1.51957 31.8946 1.70711 31.7071C1.89464 31.5196 2 31.2652 2 31Z" fill="#818181"/>
<path d="M6.60002 46.678C6.07668 45.8656 5.5944 45.0276 5.15502 44.167C5.03124 43.9365 4.8221 43.7637 4.57243 43.6857C4.32276 43.6076 4.05244 43.6305 3.81945 43.7494C3.58646 43.8684 3.40933 44.0738 3.32607 44.3218C3.2428 44.5698 3.26001 44.8405 3.37402 45.076C3.84325 45.9963 4.35857 46.8925 4.91802 47.761C4.98913 47.8714 5.0813 47.9668 5.18926 48.0416C5.29722 48.1164 5.41886 48.1692 5.54724 48.197C5.67562 48.2249 5.80821 48.2271 5.93746 48.2037C6.06671 48.1802 6.19008 48.1316 6.30052 48.0605C6.41096 47.9894 6.50631 47.8972 6.58114 47.7892C6.65596 47.6813 6.70878 47.5596 6.73659 47.4312C6.7644 47.3029 6.76666 47.1703 6.74322 47.041C6.71979 46.9118 6.67113 46.7884 6.60002 46.678Z" fill="#818181"/>
<path d="M19.709 57.72C18.8187 57.3435 17.9479 56.9223 17.1 56.458C16.8674 56.3305 16.5937 56.3007 16.3391 56.3751C16.0846 56.4494 15.8699 56.6219 15.7425 56.8545C15.6151 57.0871 15.5853 57.3608 15.6596 57.6153C15.734 57.8699 15.9064 58.0845 16.139 58.212C17.0457 58.7086 17.9769 59.1591 18.929 59.562C19.0501 59.6142 19.1804 59.6419 19.3123 59.6436C19.4442 59.6453 19.5751 59.6208 19.6975 59.5717C19.82 59.5225 19.9314 59.4496 20.0256 59.3572C20.1197 59.2648 20.1946 59.1547 20.246 59.0332C20.2973 58.9117 20.3242 58.7812 20.3249 58.6493C20.3257 58.5174 20.3003 58.3867 20.2503 58.2646C20.2003 58.1426 20.1267 58.0316 20.0336 57.9381C19.9405 57.8446 19.8309 57.7705 19.709 57.72Z" fill="#818181"/>
<path d="M3.96794 41.5231C3.61894 40.6231 3.31094 39.7001 3.05294 38.7731C2.98186 38.5176 2.81218 38.3007 2.58123 38.1703C2.35028 38.0399 2.07697 38.0065 1.82144 38.0776C1.5659 38.1487 1.34907 38.3184 1.21863 38.5493C1.0882 38.7803 1.05486 39.0536 1.12594 39.3091C1.40252 40.3048 1.72893 41.2861 2.10394 42.2491C2.17712 42.4369 2.30537 42.5983 2.47187 42.712C2.63836 42.8256 2.83533 42.8863 3.03694 42.8861C3.16087 42.8861 3.28368 42.8627 3.39894 42.8171C3.64591 42.7209 3.84457 42.5305 3.95126 42.2879C4.05795 42.0452 4.06395 41.7702 3.96794 41.5231Z" fill="#818181"/>
<path d="M25.239 59.4278C24.2919 59.237 23.355 58.9983 22.432 58.7128C22.1786 58.6343 21.9044 58.6596 21.6697 58.7833C21.435 58.907 21.259 59.1189 21.1805 59.3723C21.102 59.6257 21.1274 59.8999 21.2511 60.1346C21.3748 60.3693 21.5866 60.5453 21.84 60.6238C22.8266 60.9289 23.8278 61.1842 24.84 61.3888C24.9059 61.4016 24.9729 61.4079 25.04 61.4078C25.288 61.408 25.5273 61.3161 25.7113 61.1499C25.8953 60.9837 26.0111 60.755 26.036 60.5083C26.0609 60.2615 25.9933 60.0143 25.8462 59.8147C25.6991 59.615 25.4821 59.4771 25.239 59.4278Z" fill="#818181"/>
<path d="M12.324 53.1865C12.2238 53.0999 12.1075 53.0341 11.9817 52.9928C11.8559 52.9515 11.7232 52.9356 11.5912 52.946C11.4593 52.9564 11.3307 52.9929 11.2129 53.0534C11.0951 53.1138 10.9906 53.1971 10.9052 53.2983C10.8199 53.3995 10.7555 53.5167 10.7158 53.643C10.6761 53.7693 10.6619 53.9022 10.674 54.034C10.686 54.1659 10.7242 54.294 10.7861 54.411C10.8481 54.528 10.9327 54.6315 11.035 54.7155C11.82 55.3775 12.65 56.0085 13.5 56.5915C13.6084 56.6657 13.7303 56.7178 13.8589 56.7449C13.9874 56.772 14.12 56.7734 14.2492 56.7492C14.3783 56.7251 14.5014 56.6757 14.6114 56.6039C14.7214 56.5321 14.8163 56.4394 14.8905 56.331C14.9647 56.2226 15.0168 56.1006 15.0438 55.9721C15.0709 55.8436 15.0724 55.7109 15.0482 55.5818C15.024 55.4527 14.9746 55.3296 14.9029 55.2196C14.8311 55.1095 14.7384 55.0147 14.63 54.9405C13.834 54.3995 13.059 53.8055 12.324 53.1865Z" fill="#818181"/>
<path d="M8.28806 49.0345C8.20631 48.9317 8.10511 48.846 7.99024 48.7823C7.87536 48.7186 7.74906 48.6781 7.61855 48.6632C7.35497 48.6331 7.09023 48.7089 6.88256 48.874C6.6749 49.0391 6.54132 49.28 6.51122 49.5435C6.48112 49.8071 6.55696 50.0719 6.72206 50.2795C7.36306 51.0855 8.05106 51.8675 8.76806 52.6045C8.85772 52.7059 8.967 52.788 9.0893 52.8458C9.2116 52.9037 9.34437 52.9361 9.47958 52.9412C9.61478 52.9463 9.74961 52.9238 9.87589 52.8753C10.0022 52.8267 10.1173 52.753 10.2143 52.6587C10.3113 52.5644 10.3881 52.4513 10.4401 52.3264C10.4921 52.2015 10.5183 52.0674 10.517 51.9321C10.5156 51.7968 10.4869 51.6632 10.4324 51.5393C10.3779 51.4155 10.2989 51.304 10.2001 51.2115C9.52671 50.5183 8.88857 49.7917 8.28806 49.0345Z" fill="#818181"/>
<path d="M61 29.9995C60.7348 29.9995 60.4804 30.1049 60.2929 30.2924C60.1054 30.4799 60 30.7343 60 30.9995C59.991 38.688 56.9328 46.0591 51.4962 51.4957C46.0596 56.9323 38.6885 59.9905 31 59.9995C30.7348 59.9995 30.4804 60.1049 30.2929 60.2924C30.1054 60.4799 30 60.7343 30 60.9995C30 61.2647 30.1054 61.5191 30.2929 61.7066C30.4804 61.8942 30.7348 61.9995 31 61.9995C39.2189 61.9905 47.0987 58.7216 52.9104 52.9099C58.722 47.0982 61.991 39.2185 62 30.9995C62 30.7343 61.8946 30.4799 61.7071 30.2924C61.5196 30.1049 61.2652 29.9995 61 29.9995Z" fill="#818181"/>
</svg>
