<svg width="62" height="62" viewBox="0 0 62 62" fill="none" xmlns="http://www.w3.org/2000/svg">
<path d="M55.9142 6.07664C47.8149 -2.02271 34.6401 -2.02586 26.5459 6.06907C18.6009 14.0151 18.4562 26.8456 26.1004 34.9766L25.19 35.8868C24.9377 36.1391 24.9377 36.5477 25.19 36.8C25.4422 37.0523 25.8509 37.0523 26.1032 36.8L27.0137 35.8898C35.1767 43.5661 47.9997 43.3675 55.9219 35.4453C64.0166 27.3497 64.0132 14.1752 55.9142 6.07664ZM27.4622 34.535C27.461 34.5337 27.4607 34.5319 27.4594 34.5307C27.4582 34.5294 27.4565 34.5292 27.4553 34.528C19.8644 26.9322 19.8657 14.5763 27.4591 6.98218C35.0473 -0.606047 47.4039 -0.607308 55.0009 6.98975C62.5963 14.5845 62.5994 26.9403 55.0084 34.5319C47.4139 42.1257 35.0575 42.1278 27.4622 34.535Z" fill="#818181"/>
<path d="M3.45416 55.4389C3.70644 55.1866 3.70644 54.7779 3.45416 54.5257C3.20188 54.2734 2.7932 54.2734 2.54092 54.5257L1.01629 56.0494C-0.332385 57.3992 -0.34563 59.6117 1.0178 60.9745C2.37442 62.3229 4.58209 62.3242 5.9406 60.9732L24.2753 42.6322C25.6467 41.2615 25.6319 39.0638 24.2753 37.7084C22.92 36.3524 20.7142 36.3524 19.3582 37.7084L9.90324 47.1631C9.65096 47.4154 9.65096 47.8241 9.90324 48.0763C10.1555 48.3286 10.5642 48.3286 10.8165 48.0763L20.2714 38.6216C21.1235 37.7702 22.5098 37.7702 23.3624 38.6216C24.2139 39.4731 24.2284 40.852 23.3621 41.719L5.02862 60.0587C4.17378 60.9089 2.78336 60.9076 1.92978 60.06C1.07242 59.2032 1.08617 57.8069 1.92978 56.9627L3.45416 55.4389Z" fill="#818181"/>
<path d="M5.2948 53.5975L6.82511 52.0668C7.07739 51.8145 7.07739 51.4058 6.82511 51.1536C6.57284 50.9013 6.16415 50.9013 5.91187 51.1536L4.38156 52.6843C4.12928 52.9365 4.12928 53.3452 4.38156 53.5975C4.63384 53.8498 5.04252 53.8498 5.2948 53.5975Z" fill="#818181"/>
<path d="M49.6559 11.2231C43.8732 11.2231 38.9997 11.2231 32.8083 11.2231C31.2938 11.2231 30.0614 12.4555 30.0614 13.9698V27.5486C30.0614 29.0629 31.2938 30.2953 32.8083 30.2953H49.6559C51.1704 30.2953 52.4025 29.0629 52.4025 27.5486V13.9698C52.4025 12.4555 51.1704 11.2231 49.6559 11.2231ZM39.6991 12.5148H42.7645V14.27C42.7645 15.1151 42.0771 15.8032 41.232 15.8032C40.3868 15.8032 39.6991 15.1151 39.6991 14.27V12.5148ZM51.1109 27.5486C51.1109 28.3508 50.4581 29.0036 49.6559 29.0036H32.8083C32.0058 29.0036 31.3531 28.3508 31.3531 27.5486V13.9698C31.3531 13.1676 32.0058 12.5148 32.8083 12.5148H38.4076V14.27C38.4076 15.8278 39.6747 17.0949 41.2321 17.0949C42.7893 17.0949 44.0563 15.8278 44.0563 14.27V12.5148H49.6559C50.4581 12.5148 51.1109 13.1676 51.1109 13.9698V27.5486Z" fill="#818181"/>
<path d="M59.7756 47.3384C55.1251 47.3384 51.461 47.3384 47.1173 47.3384C45.8906 47.3384 44.8929 48.3361 44.8929 49.5628V59.7649C44.8929 60.9916 45.8906 61.9893 47.1173 61.9893H59.7756C61.0023 61.9893 62 60.9916 62 59.7649V49.5628C62 48.3361 61.0023 47.3384 59.7756 47.3384ZM52.4555 48.63H54.4374V49.7886C54.4374 50.3348 53.9931 50.7794 53.4466 50.7794C52.9 50.7794 52.4555 50.3348 52.4555 49.7886V48.63ZM60.7084 59.7649C60.7084 60.2795 60.2898 60.6977 59.7756 60.6977H47.1173C46.6031 60.6977 46.1845 60.2795 46.1845 59.7649V49.5628C46.1845 49.0482 46.6029 48.63 47.1173 48.63H51.1638V49.7886C51.1638 51.0475 52.1877 52.0711 53.4466 52.0711C54.7051 52.0711 55.729 51.0475 55.729 49.7886V48.63H59.7756C60.2898 48.63 60.7084 49.0482 60.7084 49.5628V59.7649Z" fill="#818181"/>
<path d="M41.5748 49.5628C41.5748 48.3361 40.577 47.3384 39.3503 47.3384C34.6999 47.3384 31.0358 47.3384 26.6921 47.3384C25.4654 47.3384 24.4677 48.3361 24.4677 49.5628V59.7649C24.4677 60.9916 25.4654 61.9893 26.6921 61.9893H39.3503C40.577 61.9893 41.5748 60.9916 41.5748 59.7649V49.5628ZM32.0303 48.63H34.0125V49.7886C34.0125 50.3348 33.5679 50.7794 33.0215 50.7794C32.475 50.7794 32.0304 50.3348 32.0304 49.7886V48.63H32.0303ZM40.2831 59.7649C40.2831 60.2795 39.8647 60.6977 39.3503 60.6977H26.6921C26.1778 60.6977 25.7593 60.2795 25.7593 59.7649V49.5628C25.7593 49.0482 26.1777 48.63 26.6921 48.63H30.7386V49.7886C30.7386 51.0475 31.7625 52.0711 33.0213 52.0711C34.2802 52.0711 35.3041 51.0475 35.3041 49.7886V48.63H39.3503C39.8646 48.63 40.2831 49.0482 40.2831 49.5628V59.7649Z" fill="#818181"/>
</svg>
