<svg width="62" height="61" viewBox="0 0 62 61" fill="none" xmlns="http://www.w3.org/2000/svg">
<path d="M55.1442 52.6488C55.1442 54.3131 53.6858 55.7034 51.7597 56.0112V56.5535C51.7597 56.9986 51.3994 57.3602 50.9544 57.3602C50.51 57.3602 50.149 56.9993 50.149 56.5535V56.0112C48.9118 55.8159 47.8392 55.1777 47.2426 54.2468C47.0022 53.8722 47.111 53.3733 47.4851 53.1325C47.8592 52.8916 48.3579 53.0007 48.5977 53.3753C49.0206 54.0357 49.9458 54.4621 50.9544 54.4621C52.3528 54.4621 53.5336 53.6313 53.5336 52.6488C53.5336 51.6662 52.3521 50.8354 50.9544 50.8354C48.6438 50.8354 46.7645 49.298 46.7645 47.4088C46.7645 45.7445 48.2229 44.3548 50.149 44.0464V43.3198C50.149 42.8747 50.5093 42.5131 50.9544 42.5131C51.3987 42.5131 51.7597 42.874 51.7597 43.3198V44.0464C52.9969 44.2416 54.0695 44.8799 54.6661 45.8107C54.9065 46.1854 54.7977 46.6843 54.4236 46.9251C54.0495 47.1659 53.5515 47.0569 53.311 46.6822C52.8881 46.0219 51.9629 45.5954 50.955 45.5954C49.5566 45.5954 48.3758 46.4262 48.3758 47.4088C48.3758 48.3921 49.5573 49.2221 50.955 49.2221C53.2649 49.2221 55.1442 50.7595 55.1442 52.6488ZM62 49.9363C62 56.0367 57.0448 61 50.9544 61C47.0621 61 43.637 58.9714 41.6688 55.9167H0.805311C0.360289 55.9167 0 55.5558 0 55.11C0 54.6643 0.360289 54.3034 0.805311 54.3034H2.04462V42.4248C2.04462 41.9798 2.40491 41.6182 2.84993 41.6182H10.5552C10.9995 41.6182 11.3605 41.9791 11.3605 42.4248V54.3041H12.8519V36.5045C12.8519 36.0594 13.2122 35.6979 13.6572 35.6979H21.3624C21.8068 35.6979 22.1678 36.0587 22.1678 36.5045V54.3041H23.6592V30.5842C23.6592 30.1391 24.0195 29.7776 24.4645 29.7776H32.1697C32.6141 29.7776 32.975 30.1384 32.975 30.5842V54.3041H34.4665V24.6639C34.4665 24.2188 34.8268 23.8572 35.2718 23.8572H42.977C43.4214 23.8572 43.7823 24.2181 43.7823 24.6639V41.5347C44.248 41.1352 44.7461 40.7722 45.2738 40.4534V14.4779H41.4229C41.1267 14.4779 40.8539 14.3143 40.7133 14.0528C40.5728 13.7913 40.588 13.4732 40.7512 13.2255L49.2583 0.360877C49.4071 0.135243 49.6592 0 49.9293 0C50.1993 0 50.4515 0.135933 50.6003 0.360877L59.1087 13.2262C59.2727 13.4739 59.2872 13.7913 59.1466 14.0535C59.0061 14.315 58.734 14.4786 58.4371 14.4786H54.5862V39.4916C58.8979 40.9992 62 45.111 62 49.9363ZM46.8823 13.6712V39.6551C48.1437 39.1521 49.5166 38.8726 50.9544 38.8726C51.6453 38.8726 52.3204 38.9396 52.9769 39.0617V13.6712C52.9769 13.2262 53.3372 12.8646 53.7822 12.8646H56.9394L49.93 2.2667L42.9205 12.8653H46.0777C46.522 12.8653 46.8823 13.2262 46.8823 13.6712ZM25.2684 54.3034H31.363V31.3901H25.2684V54.3034ZM14.4618 54.3034H20.5564V37.3111H14.4618V54.3034ZM3.65524 54.3034H9.74984V43.2314H3.65524V54.3034ZM40.8077 54.3034C40.2304 52.9627 39.9087 51.4868 39.9087 49.9363C39.9087 47.4205 40.7526 45.1 42.1696 43.239V25.4698H36.075V54.3034H40.8077ZM60.3894 49.9363C60.3894 44.7253 56.1568 40.4859 50.9544 40.4859C45.7519 40.4859 41.5193 44.7253 41.5193 49.9363C41.5193 55.1473 45.7519 59.3867 50.9544 59.3867C56.1568 59.3874 60.3894 55.148 60.3894 49.9363Z" fill="#818181"/>
</svg>
