<svg width="62" height="71" viewBox="0 0 62 71" fill="none" xmlns="http://www.w3.org/2000/svg">
<path d="M24.5261 7.15943C24.2891 6.74237 24.437 6.21143 24.8568 5.97528L26.0381 5.31057C26.4563 5.07385 26.9904 5.22168 27.228 5.63987C27.4651 6.05735 27.3166 6.58844 26.8971 6.8243L25.7155 7.48859C25.5802 7.56513 25.4325 7.60148 25.287 7.60148C24.9825 7.60148 24.6866 7.44286 24.5261 7.15943ZM19.2438 11.0782C19.3894 11.0782 19.5369 11.0416 19.6726 10.9655L20.8538 10.3006C21.2739 10.0652 21.4218 9.5344 21.1845 9.11635C20.9468 8.69744 20.4136 8.55118 19.9954 8.78719L18.8135 9.45161C18.394 9.68762 18.2459 10.2186 18.4829 10.6365C18.6436 10.9191 18.9392 11.0782 19.2438 11.0782ZM19.2438 14.5205C19.3925 14.5205 19.5436 14.482 19.6807 14.4032L20.8625 13.7215C21.2802 13.4808 21.422 12.9487 21.1805 12.5336C20.9376 12.1183 20.4026 11.9778 19.9872 12.2171L18.8057 12.8987C18.3883 13.1395 18.2462 13.6715 18.4877 14.0867C18.6498 14.3651 18.9432 14.5205 19.2438 14.5205ZM25.287 11.044C25.4352 11.044 25.5863 11.0062 25.724 10.9264L26.9052 10.2453C27.3229 10.004 27.4653 9.47249 27.2233 9.05699C26.9815 8.64107 26.4466 8.50177 26.0304 8.74076L24.8491 9.42222C24.4311 9.6632 24.2891 10.1946 24.5307 10.6101C24.693 10.8882 24.9859 11.044 25.287 11.044ZM26.0382 12.1788L24.8569 12.8432C24.4371 13.0795 24.2892 13.6097 24.5263 14.0275C24.6868 14.3103 24.9826 14.4694 25.2872 14.4694C25.4327 14.4694 25.5803 14.4332 25.7157 14.3566L26.8972 13.6919C27.3168 13.4558 27.4653 12.9255 27.2282 12.5079C26.9905 12.089 26.4563 11.942 26.0382 12.1788ZM19.9954 15.6557L18.8135 16.3199C18.394 16.5559 18.2459 17.087 18.4829 17.5045C18.6436 17.7874 18.9392 17.9466 19.2438 17.9466C19.3894 17.9466 19.5369 17.9105 19.6726 17.8337L20.8538 17.169C21.2739 16.9334 21.4218 16.4023 21.1845 15.985C20.9468 15.5663 20.4136 15.4185 19.9954 15.6557ZM25.287 17.9125C25.4352 17.9125 25.5863 17.8744 25.724 17.7952L26.9052 17.1133C27.3229 16.873 27.4653 16.3407 27.2233 15.9256C26.9815 15.5097 26.4466 15.3697 26.0304 15.6091L24.8491 16.2907C24.4311 16.5315 24.2891 17.0632 24.5307 17.4787C24.693 17.7569 24.9859 17.9125 25.287 17.9125ZM19.2438 21.3892C19.3925 21.3892 19.5436 21.3509 19.6807 21.2715L20.8625 20.5899C21.2802 20.3487 21.422 19.817 21.1805 19.4019C20.9376 18.9869 20.4026 18.8467 19.9872 19.0856L18.8057 19.7674C18.3883 20.0077 18.2462 20.5401 18.4877 20.9547C18.6498 21.2332 18.9432 21.3892 19.2438 21.3892ZM19.2438 24.8321C19.3925 24.8321 19.5436 24.7939 19.6807 24.7146L20.8625 24.033C21.2802 23.7922 21.422 23.2604 21.1805 22.8449C20.9376 22.4296 20.4026 22.2894 19.9872 22.5285L18.8057 23.21C18.3883 23.4505 18.2462 23.9828 18.4877 24.3975C18.6498 24.6762 18.9432 24.8321 19.2438 24.8321ZM25.287 21.3546C25.4352 21.3546 25.5863 21.3163 25.724 21.2373L26.9052 20.5556C27.3229 20.3151 27.4653 19.7831 27.2233 19.3681C26.9815 18.9522 26.4466 18.8123 26.0304 19.0516L24.8491 19.7337C24.4311 19.9741 24.2891 20.5059 24.5307 20.9212C24.693 21.199 24.9859 21.3546 25.287 21.3546ZM12.3268 18.5087C11.8442 18.5087 11.4536 18.897 11.4536 19.3774V28.0866C11.4536 28.5666 11.8442 28.9555 12.3268 28.9555C12.8091 28.9555 13.1991 28.5666 13.1991 28.0866V19.3774C13.1991 18.897 12.8091 18.5087 12.3268 18.5087ZM61.9963 50.3054C62.0456 51.5492 61.602 52.7358 60.7475 53.6471L46.2483 69.2055C45.1693 70.3779 43.7394 71 42.1153 71H20.3384C18.968 71 17.7886 70.5774 16.7346 69.7092C15.7185 68.8667 13.9103 67.8131 12.0693 66.9633V66.9778C12.0693 69.0357 10.3876 70.7103 8.32064 70.7103H0.872862C0.390569 70.7103 0 70.3217 0 69.8417V47.9921C0 47.512 0.390569 47.1235 0.872862 47.1235H7.34722C7.32553 47.0466 7.31013 46.9685 7.31013 46.885V33.5233C7.31013 33.2127 7.47645 32.9263 7.7462 32.7709L8.88567 32.1153V18.0653C8.88567 17.7544 9.052 17.4673 9.32232 17.312L13.3627 14.9942C13.634 14.8391 13.9684 14.84 14.2387 14.9972L15.4769 15.7166V7.97636C15.4769 7.66595 15.6429 7.37868 15.9135 7.22361L28.291 0.115873C28.5618 -0.0389083 28.8943 -0.0383403 29.1648 0.115873L44.113 8.71463C44.1879 8.69432 44.264 8.67515 44.3418 8.67515H51.789C51.8895 8.67515 51.9904 8.69191 52.0854 8.72684L57.2049 10.5672C57.2079 10.5686 57.2099 10.5704 57.2127 10.5713C57.296 10.6027 57.3718 10.6478 57.4417 10.7018C57.4531 10.7106 57.4654 10.7183 57.4753 10.7275C57.542 10.7839 57.5982 10.8505 57.6458 10.9249C57.6491 10.9308 57.6549 10.9351 57.6589 10.9405L60.7401 16.1047C60.9415 16.4426 60.8909 16.8735 60.6145 17.1549L48.9299 29.0874V35.465L54.2633 38.5305C54.5328 38.6867 54.6994 38.973 54.6994 39.2834V46.6368C55.4165 46.1476 56.2591 45.8642 57.1523 45.831C58.3917 45.7825 59.5901 46.2222 60.4998 47.0667C61.4151 47.9181 61.9466 49.068 61.9963 50.3054ZM13.8164 49.501C14.6158 49.0734 15.4376 48.8787 16.418 48.8787H19.4273C19.0853 48.5271 18.7737 48.1487 18.4867 47.7537H10.4026C11.31 48.3597 11.9386 49.3496 12.0503 50.4886L13.8164 49.501ZM9.05585 34.0248V39.0477L18.2382 36.4046C19.7753 34.0937 22.2488 32.4611 25.1151 32.0297V24.7865L10.2485 33.3385C10.2435 33.3424 10.2365 33.3451 10.2313 33.348L9.05585 34.0248ZM9.05585 46.0158H17.4762C16.8939 44.7383 16.5724 43.341 16.5724 41.9082C16.5724 40.7166 16.7933 39.5788 17.1789 38.5189L9.05585 40.8575V46.0158ZM25.6456 48.8787C26.833 48.8787 27.8751 49.2029 28.8285 49.8588C32.4342 48.8797 34.9259 45.6661 34.9259 41.9082C34.9259 37.3508 31.2006 33.6427 26.6219 33.6427C22.0438 33.6427 18.3183 37.3508 18.3183 41.9082C18.3183 44.7124 19.7909 47.3597 22.1717 48.8787H25.6456ZM30.5405 51.1144L31.6446 51.9299C32.3539 52.4525 33.0917 52.6964 33.9664 52.6964H42.2701C44.107 52.6964 45.7162 53.688 46.5849 55.1622L53.4963 47.7535H34.7834C33.7245 49.219 32.2712 50.3945 30.5405 51.1144ZM48.7927 40.7845L44.9228 38.9322V46.0158H48.7927V40.7845ZM43.1773 38.0964L39.3247 36.2521V46.0158H43.1773V38.0964ZM52.9531 39.7857L47.7267 36.7812C47.6582 36.7535 47.5946 36.7156 47.5355 36.6717L26.8607 24.7868V31.9164C32.2913 32.045 36.6713 36.4724 36.6713 41.9083C36.6713 43.3671 36.3603 44.759 35.7959 46.016H37.579V34.8696C37.579 34.5708 37.7328 34.2931 37.9868 34.1337C38.242 33.9744 38.56 33.9565 38.8301 34.0866L50.0438 39.4547C50.3458 39.5989 50.5381 39.9038 50.5381 40.2379V46.016H52.9528V39.7857H52.9531ZM47.1837 34.4613V29.0876L35.507 17.1639C35.5067 17.1639 35.5067 17.1633 35.5059 17.1633L35.4989 17.1549C35.4953 17.1524 35.4942 17.1485 35.4916 17.1454C35.4337 17.0845 35.3858 17.0155 35.3487 16.9401C35.3425 16.929 35.3356 16.9189 35.33 16.9078C35.2966 16.8343 35.2754 16.756 35.2628 16.6747C35.2605 16.6576 35.2587 16.6411 35.2578 16.6235C35.2505 16.5447 35.2505 16.4649 35.2665 16.3836C35.2674 16.3816 35.2679 16.38 35.2685 16.3786C35.2702 16.3695 35.2735 16.3618 35.2761 16.353C35.2945 16.2744 35.3243 16.2011 35.362 16.1326C35.3669 16.1237 35.3672 16.1133 35.3725 16.1047L38.4547 10.9405C38.5584 10.7677 38.7189 10.6349 38.9096 10.5666L41.9479 9.47746L29.9429 2.57207V24.5506L47.1837 34.4613ZM51.6359 10.4128H44.4935L39.7956 12.097L37.5085 15.9301L42.0451 16.8042H52.8312L52.4024 14.4548C52.3155 13.982 52.6306 13.5302 53.1048 13.4443C53.5798 13.3545 54.034 13.6712 54.1197 14.1433L54.7365 17.5179C54.7827 17.7718 54.714 18.0328 54.5479 18.2307C54.3822 18.4289 54.1364 18.5423 53.8773 18.5423H43.4465L45.6868 22.551C45.9212 22.9707 45.7692 23.4994 45.348 23.7333C45.2138 23.8074 45.068 23.8427 44.9239 23.8427C44.6172 23.8427 44.3199 23.682 44.1602 23.3964L41.3958 18.4495L38.6949 17.9288L48.0565 27.4889L58.896 16.4193L56.4827 12.3739L53.747 12.9985C53.6832 13.013 53.6174 13.0203 53.5514 13.0203H43.3064L42.8203 15.6814C42.7443 16.1005 42.3759 16.3951 41.9624 16.3951C41.9106 16.3951 41.8583 16.3905 41.8049 16.3803C41.3305 16.2947 41.0157 15.8428 41.1022 15.3702L41.7185 11.9956C41.7942 11.5825 42.1555 11.2826 42.5776 11.2826H53.4525L53.8194 11.1981L51.6359 10.4128ZM17.2224 8.4782V27.3188L25.5515 22.5275C25.8215 22.373 26.1548 22.373 26.4249 22.5275L28.1972 23.5465V2.1766L17.2224 8.4782ZM10.6317 31.1105L15.4767 28.3237V17.7292L13.7956 16.7522L10.6317 18.568V31.1105ZM10.3238 66.9778V65.647C10.3238 65.6433 10.3238 65.6392 10.3238 65.6353V50.8554C10.3238 49.756 9.42445 48.861 8.32064 48.861H1.74572V68.9721H8.32064C9.40605 68.9721 10.3238 68.0589 10.3238 66.9778ZM60.2511 50.3743C60.2202 49.5971 59.8855 48.8748 59.3078 48.3381C58.7413 47.8126 58.014 47.5492 57.2174 47.5674C56.4354 47.5967 55.7146 47.9269 55.1873 48.4967L47.2277 57.0278C47.2545 57.2396 47.2689 57.4542 47.2689 57.6727C47.2689 60.4165 45.0263 62.6486 42.2704 62.6486H31.6378C31.1556 62.6486 30.765 62.2601 30.765 61.7798C30.765 61.2992 31.1556 60.9111 31.6378 60.9111H42.2704C44.0635 60.9111 45.5229 59.4584 45.5229 57.6727C45.5229 55.8875 44.0636 54.4343 42.2704 54.4343H33.9667C32.7171 54.4343 31.6174 54.0722 30.6054 53.3269L27.9508 51.366C27.2568 50.8545 26.5249 50.6164 25.6459 50.6164H16.4183C15.7188 50.6164 15.1921 50.7384 14.6572 51.0247L12.0694 52.4724V65.0568C13.9985 65.8894 16.3951 67.1657 17.8499 68.3716C18.586 68.978 19.3776 69.2613 20.3384 69.2613H42.1153C43.2524 69.2613 44.211 68.8461 44.9639 68.0266L59.4694 52.4624C60.0048 51.8913 60.2825 51.1505 60.2511 50.3743ZM25.7488 47.4133C25.7488 47.8937 26.1393 48.2823 26.6219 48.2823C27.1039 48.2823 27.4948 47.8937 27.4948 47.4133V46.7649H27.8715C29.4576 46.7649 30.7476 45.4809 30.7476 43.9022C30.7476 42.3234 29.4576 41.0394 27.8715 41.0394H25.3719C24.7492 41.0394 24.2418 40.5347 24.2418 39.914C24.2418 39.2851 24.7492 38.7724 25.3719 38.7724H29.8744C30.3573 38.7724 30.7476 38.3835 30.7476 37.9034C30.7476 37.4232 30.3573 37.0347 29.8744 37.0347H27.4948V36.3864C27.4948 35.9061 27.1039 35.5177 26.6219 35.5177C26.1393 35.5177 25.7488 35.9061 25.7488 36.3864V37.0347H25.3718C23.7857 37.0347 22.4963 38.3262 22.4963 39.914C22.4963 41.4934 23.7857 42.7775 25.3718 42.7775H27.8714C28.5049 42.7775 29.0014 43.2717 29.0014 43.9022C29.0014 44.5226 28.494 45.0272 27.8714 45.0272H23.3688C22.8863 45.0272 22.4963 45.4162 22.4963 45.8964C22.4963 46.3761 22.8863 46.7649 23.3688 46.7649H25.7488V47.4133Z" fill="#818181"/>
</svg>
