<svg width="63" height="63" viewBox="0 0 63 63" fill="none" xmlns="http://www.w3.org/2000/svg">
<path d="M31.4732 50.8367C42.0873 50.8367 50.6918 42.2322 50.6918 31.6181C50.6918 21.0039 42.0873 12.3994 31.4732 12.3994C20.859 12.3994 12.2545 21.0039 12.2545 31.6181C12.2545 42.2322 20.859 50.8367 31.4732 50.8367Z" stroke="#818181" stroke-miterlimit="10" stroke-linecap="round" stroke-linejoin="round"/>
<path d="M31.202 39.5186L30.7577 39.4688C29.4792 39.3267 28.5267 38.8953 27.8505 38.208L27.7186 38.0674C27.121 37.3947 26.7669 36.5141 26.6874 35.3936H28.3759C28.4493 36.1844 28.7028 36.8614 29.1815 37.3818C29.7639 38.0147 30.5718 38.3046 31.5282 38.3047C32.441 38.3047 33.2201 38.0849 33.7811 37.5654C34.3342 37.0531 34.5975 36.3769 34.5975 35.5879C34.5975 34.8465 34.3578 34.1999 33.8593 33.6895C33.3823 33.1999 32.6368 32.8017 31.6844 32.4648C30.7688 32.141 30.0755 31.8487 29.5956 31.5879L29.5936 31.5859L29.3055 31.4219C28.6578 31.029 28.18 30.5695 27.8534 30.0508C27.4815 29.4601 27.288 28.7649 27.288 27.9473C27.288 26.8373 27.6215 25.9618 28.2645 25.2812C28.9123 24.5959 29.8029 24.1692 30.9803 24.0332L31.4227 23.9824V21.6338H32.1874V23.9932L32.6171 24.0547C33.7128 24.2118 34.5403 24.6486 35.1415 25.3496L35.2587 25.4932C35.7952 26.185 36.1146 27.0776 36.1864 28.1982H34.5106C34.4457 27.4155 34.2226 26.7397 33.8046 26.2021V26.2012L33.705 26.0811C33.1984 25.4999 32.5202 25.21 31.7167 25.21C30.9192 25.21 30.2301 25.4279 29.7167 25.9219C29.1946 26.4245 28.9677 27.1188 28.9677 27.9258C28.9677 28.6752 29.2028 29.3255 29.7079 29.8203C30.1778 30.2805 30.9253 30.6774 31.8876 31.0303C32.8169 31.3711 33.5295 31.6821 34.035 31.959C34.5338 32.2322 34.9438 32.5398 35.2723 32.8779C35.5949 33.2099 35.8425 33.5904 36.0165 34.0225C36.1857 34.4426 36.2782 34.955 36.2782 35.5664C36.2782 36.628 35.9773 37.4623 35.3993 38.1104L35.2802 38.2373C34.6212 38.9067 33.6803 39.3268 32.4052 39.457L31.9559 39.5029V41.6045H31.202V39.5186Z" fill="black" stroke="#818181"/>
<path d="M56.238 48.3612C63.1254 38.2404 63.1241 24.8444 56.238 14.7505" stroke="#818181" stroke-miterlimit="10" stroke-linecap="round" stroke-linejoin="round"/>
<path d="M14.6753 56.312C24.7692 63.1981 38.1652 63.1994 48.286 56.312" stroke="#818181" stroke-miterlimit="10" stroke-linecap="round" stroke-linejoin="round"/>
<path d="M6.7379 14.7637C-0.148147 24.8845 -0.148147 38.2805 6.7379 48.3744" stroke="#818181" stroke-miterlimit="10" stroke-linecap="round" stroke-linejoin="round"/>
<path d="M48.2993 6.81199C38.2055 -0.0740499 24.8094 -0.0740499 14.6886 6.81199" stroke="#818181" stroke-miterlimit="10" stroke-linecap="round" stroke-linejoin="round"/>
<path d="M54.1248 42.7935L56.3595 48.9328L62.5001 46.6981" stroke="#818181" stroke-miterlimit="10" stroke-linecap="round" stroke-linejoin="round"/>
<path d="M0.500122 16.5917L6.78099 14.791L8.58303 21.0719" stroke="#818181" stroke-miterlimit="10" stroke-linecap="round" stroke-linejoin="round"/>
<path d="M16.1107 62.5081L14.531 56.1679L20.8712 54.5869" stroke="#818181" stroke-miterlimit="10" stroke-linecap="round" stroke-linejoin="round"/>
<path d="M41.9552 8.42117L48.294 6.84017L46.7144 0.5" stroke="#818181" stroke-miterlimit="10" stroke-linecap="round" stroke-linejoin="round"/>
</svg>
