<svg width="80" height="80" viewBox="0 0 80 80" fill="none" xmlns="http://www.w3.org/2000/svg">
<path d="M26.2525 41.5451C25.575 41.5451 25.0175 41.0026 25.0025 40.3213C24.9838 39.4138 25.0475 38.5001 25.1913 37.6051C25.3013 36.9238 25.935 36.4551 26.625 36.5701C27.3063 36.6801 27.77 37.3226 27.66 38.0038C27.5388 38.7501 27.4863 39.5113 27.5025 40.2688C27.5175 40.9588 26.9688 41.5301 26.2788 41.5451C26.2713 41.5451 26.2613 41.5451 26.2525 41.5451Z" fill="#77BC48"/>
<path d="M28.0937 34.3698C27.8625 34.3698 27.63 34.306 27.4212 34.1723C26.84 33.7998 26.67 33.026 27.0425 32.446L27.7162 31.3935C28.0875 30.811 28.8612 30.641 29.4425 31.0148C30.0237 31.3873 30.1937 32.161 29.8212 32.741L29.1475 33.7935C28.9087 34.166 28.5062 34.3698 28.0937 34.3698Z" fill="#77BC48"/>
<path d="M53.7462 41.545C53.7375 41.545 53.7275 41.545 53.72 41.545C53.0287 41.53 52.4825 40.9588 52.4962 40.2688C52.5975 35.6075 50.1387 31.4475 45.92 29.1438C41.715 26.845 36.8925 27.0275 33.0225 29.63C32.45 30.0163 31.6725 29.8638 31.2875 29.2913C30.9012 28.7188 31.0537 27.9413 31.6262 27.5563C36.2137 24.4675 42.15 24.2375 47.1187 26.95C52.0962 29.67 55.115 34.7938 54.9962 40.3238C54.9812 41.0025 54.425 41.545 53.7462 41.545Z" fill="#77BC48"/>
<path d="M55 67.5C54.3088 67.5 53.75 66.94 53.75 66.25V65C53.75 64.31 54.3088 63.75 55 63.75C55.6912 63.75 56.25 64.31 56.25 65V66.25C56.25 66.94 55.6912 67.5 55 67.5Z" fill="#77BC48"/>
<path d="M55 73.75C54.3088 73.75 53.75 73.19 53.75 72.5V71.25C53.75 70.56 54.3088 70 55 70C55.6912 70 56.25 70.56 56.25 71.25V72.5C56.25 73.19 55.6912 73.75 55 73.75Z" fill="#77BC48"/>
<path d="M71.7725 46.8362C71.565 46.8362 71.3537 46.7837 71.1612 46.6762C70.56 46.3375 70.3462 45.575 70.685 44.9737C70.8412 44.695 70.9425 44.3937 70.9837 44.0775C71.0725 43.3937 71.6962 42.9175 72.385 43.0012C73.07 43.0912 73.5525 43.7187 73.4612 44.4037C73.3787 45.0375 73.1762 45.6425 72.8625 46.2012C72.6325 46.6075 72.21 46.8362 71.7725 46.8362Z" fill="#77BC48"/>
<path d="M8.22747 46.8363C7.78997 46.8363 7.36747 46.6075 7.13622 46.2C6.82247 45.6425 6.62122 45.0375 6.53747 44.4025C6.44747 43.7175 6.92997 43.09 7.61372 43C8.29497 42.915 8.92497 43.3913 9.01622 44.0763C9.05747 44.3938 9.15747 44.695 9.31497 44.9725C9.65372 45.5738 9.43997 46.3363 8.83872 46.675C8.64622 46.785 8.43497 46.8363 8.22747 46.8363Z" fill="#77BC48"/>
<path d="M16.1525 33.7499C16.0275 33.7499 15.9012 33.7311 15.7775 33.6924C15.1187 33.4849 14.7525 32.7836 14.96 32.1249C15.4212 30.6586 16.015 29.2249 16.7262 27.8611C17.045 27.2499 17.8012 27.0111 18.4125 27.3311C19.025 27.6499 19.2625 28.4049 18.9425 29.0174C18.2987 30.2499 17.7625 31.5474 17.345 32.8736C17.1762 33.4086 16.6837 33.7499 16.1525 33.7499Z" fill="#77BC48"/>
<path d="M28.4413 19.0835C27.99 19.0835 27.555 18.8385 27.3313 18.411C27.0125 17.7985 27.25 17.0448 27.8625 16.7248C29.2275 16.0135 30.6625 15.4198 32.125 14.9585C32.78 14.7548 33.485 15.1173 33.6925 15.776C33.9 16.4348 33.5338 17.136 32.875 17.3435C31.5513 17.7598 30.2538 18.2973 29.0175 18.941C28.8325 19.0373 28.6363 19.0835 28.4413 19.0835Z" fill="#77BC48"/>
<path d="M51.5587 19.0835C51.365 19.0835 51.1675 19.0385 50.9825 18.9423C49.7462 18.2985 48.4487 17.761 47.125 17.3448C46.4662 17.1373 46.1012 16.436 46.3075 15.7773C46.515 15.1198 47.2112 14.751 47.875 14.9598C49.3375 15.4198 50.7712 16.0135 52.1375 16.726C52.75 17.0448 52.9875 17.7998 52.6687 18.4123C52.4462 18.8385 52.01 19.0835 51.5587 19.0835Z" fill="#77BC48"/>
<path d="M63.8487 33.75C63.3162 33.75 62.825 33.4088 62.6562 32.875C62.2387 31.5475 61.7012 30.25 61.0587 29.0175C60.74 28.405 60.9775 27.65 61.5887 27.3313C62.2037 27.0088 62.9562 27.25 63.2762 27.8613C63.9862 29.2225 64.5812 30.6575 65.0425 32.1238C65.25 32.7825 64.8837 33.4838 64.225 33.6913C64.0987 33.7313 63.9737 33.75 63.8487 33.75Z" fill="#77BC48"/>
<path d="M51.56 19.0838C51.24 19.0838 50.92 18.9613 50.6763 18.7176C50.1875 18.2288 50.1875 17.4388 50.6763 16.9501L53.9688 13.6576C54.4575 13.1688 55.2475 13.1688 55.7363 13.6576C56.225 14.1463 56.225 14.9363 55.7363 15.4251L52.4438 18.7176C52.2 18.9613 51.88 19.0838 51.56 19.0838Z" fill="#77BC48"/>
<path d="M62.1663 29.6898C61.8463 29.6898 61.5263 29.5673 61.2825 29.3235C60.7938 28.8348 60.7938 28.0448 61.2825 27.556L64.575 24.2635C65.0638 23.7748 65.8538 23.7748 66.3425 24.2635C66.8313 24.7523 66.8313 25.5423 66.3425 26.031L63.05 29.3235C62.8063 29.5673 62.4863 29.6898 62.1663 29.6898Z" fill="#77BC48"/>
<path d="M65.7837 21.4626C65.4075 21.4626 65.0362 21.2938 64.7912 20.9738C63.13 18.8101 61.19 16.8701 59.0262 15.2101C58.4787 14.7901 58.375 14.0051 58.7962 13.4576C59.215 12.9113 60.0012 12.8076 60.5487 13.2263C62.885 15.0201 64.9787 17.1151 66.7725 19.4513C67.1937 19.9988 67.09 20.7838 66.5425 21.2038C66.3175 21.3788 66.0487 21.4626 65.7837 21.4626Z" fill="#77BC48"/>
<path d="M65.4587 26.3973C65.1387 26.3973 64.8187 26.2748 64.575 26.031C64.0862 25.5423 64.0862 24.7523 64.575 24.2635C65.4587 23.3798 65.5512 21.966 64.79 20.9735C64.37 20.426 64.4737 19.641 65.0225 19.221C65.5725 18.801 66.355 18.906 66.775 19.4523C68.2962 21.4348 68.11 24.2648 66.3425 26.031C66.0987 26.276 65.7787 26.3973 65.4587 26.3973Z" fill="#77BC48"/>
<path d="M54.8525 15.7912C54.5325 15.7912 54.2125 15.6687 53.9687 15.425C53.48 14.9362 53.48 14.1462 53.9687 13.6575C55.7375 11.89 58.5675 11.7062 60.5487 13.2262C61.0962 13.6462 61.2 14.4312 60.78 14.9787C60.3612 15.5262 59.5787 15.6312 59.0287 15.21C58.0362 14.4487 56.6225 14.54 55.7375 15.425C55.4925 15.6687 55.1725 15.7912 54.8525 15.7912Z" fill="#77BC48"/>
<path d="M28.44 19.0838C28.12 19.0838 27.8 18.9613 27.5563 18.7176L24.2638 15.4251C23.775 14.9363 23.775 14.1463 24.2638 13.6576C24.7525 13.1688 25.5425 13.1688 26.0313 13.6576L29.3238 16.9501C29.8125 17.4388 29.8125 18.2288 29.3238 18.7176C29.08 18.9613 28.76 19.0838 28.44 19.0838Z" fill="#77BC48"/>
<path d="M17.8338 29.6898C17.5138 29.6898 17.1938 29.5673 16.95 29.3235L13.6575 26.031C13.1688 25.5423 13.1688 24.7523 13.6575 24.2635C14.1463 23.7748 14.9363 23.7748 15.425 24.2635L18.7175 27.556C19.2063 28.0448 19.2063 28.8348 18.7175 29.3235C18.4725 29.5673 18.1525 29.6898 17.8338 29.6898Z" fill="#77BC48"/>
<path d="M14.2175 21.4625C13.9513 21.4625 13.6838 21.3788 13.4575 21.2038C12.91 20.7838 12.8063 19.9988 13.2263 19.4513C15.02 17.1138 17.115 15.02 19.4513 13.2263C19.9988 12.8063 20.7825 12.91 21.2038 13.4575C21.6238 14.005 21.52 14.79 20.9725 15.21C18.8088 16.8713 16.8688 18.81 15.2088 20.9738C14.9638 21.295 14.5925 21.4625 14.2175 21.4625Z" fill="#77BC48"/>
<path d="M14.5413 26.3976C14.2213 26.3976 13.9013 26.2751 13.6575 26.0313C11.8888 24.2626 11.7038 21.4351 13.2275 19.4513C13.6475 18.9026 14.4325 18.8001 14.98 19.2213C15.5275 19.6413 15.6313 20.4263 15.21 20.9738C14.4488 21.9651 14.5413 23.3801 15.425 24.2638C15.9138 24.7526 15.9138 25.5426 15.425 26.0313C15.1813 26.2763 14.8613 26.3976 14.5413 26.3976Z" fill="#77BC48"/>
<path d="M25.1475 15.7912C24.8275 15.7912 24.5075 15.6687 24.2638 15.4249C23.38 14.5424 21.9675 14.4487 20.9738 15.2099C20.4263 15.6287 19.6425 15.5262 19.2213 14.9787C18.8013 14.4312 18.905 13.6462 19.4525 13.2262C21.4363 11.7049 24.265 11.8887 26.0325 13.6574C26.5213 14.1462 26.5213 14.9362 26.0325 15.4249C25.7875 15.6687 25.4675 15.7912 25.1475 15.7912Z" fill="#77BC48"/>
<path d="M68.505 33.75H63.8488C63.1575 33.75 62.5988 33.19 62.5988 32.5C62.5988 31.81 63.1575 31.25 63.8488 31.25H68.505C69.1963 31.25 69.755 31.81 69.755 32.5C69.755 33.19 69.195 33.75 68.505 33.75Z" fill="#77BC48"/>
<path d="M72.2237 45.4898C72.17 45.4898 72.115 45.486 72.06 45.4798C71.375 45.3898 70.8925 44.7623 70.9837 44.0773C71.3387 41.3723 71.3387 38.6298 70.9837 35.9248C70.8937 35.2398 71.375 34.6123 72.06 34.5223C72.7412 34.4335 73.3725 34.9148 73.4612 35.5985C73.8462 38.5185 73.8462 41.4823 73.4612 44.4023C73.38 45.031 72.8412 45.4898 72.2237 45.4898Z" fill="#77BC48"/>
<path d="M72.2213 37.0112C71.6038 37.0112 71.0663 36.5537 70.9838 35.925C70.82 34.685 69.755 33.75 68.505 33.75C67.8138 33.75 67.255 33.19 67.255 32.5C67.255 31.81 67.8138 31.25 68.505 31.25C71.0038 31.25 73.135 33.1188 73.4625 35.5975C73.5525 36.2813 73.0713 36.91 72.3875 37C72.3313 37.0075 72.275 37.0112 72.2213 37.0112Z" fill="#77BC48"/>
<path d="M16.1512 33.75H11.495C10.805 33.75 10.245 33.19 10.245 32.5C10.245 31.81 10.805 31.25 11.495 31.25H16.1512C16.8412 31.25 17.4012 31.81 17.4012 32.5C17.4012 33.19 16.8425 33.75 16.1512 33.75Z" fill="#77BC48"/>
<path d="M7.77625 45.4901C7.15875 45.4901 6.62125 45.0326 6.53875 44.4026C6.15375 41.4813 6.15375 38.5188 6.53875 35.5988C6.62875 34.9138 7.26875 34.4301 7.94125 34.5226C8.62625 34.6126 9.1075 35.2401 9.0175 35.9251C8.66125 38.6301 8.66125 41.3726 9.0175 44.0776C9.1075 44.7613 8.62625 45.3901 7.94125 45.4801C7.88625 45.4863 7.83 45.4901 7.77625 45.4901Z" fill="#77BC48"/>
<path d="M7.78 37.0112C7.72625 37.0112 7.67125 37.0075 7.615 37.0012C6.93125 36.9112 6.44875 36.2825 6.53875 35.5988C6.865 33.12 8.995 31.25 11.495 31.25C12.185 31.25 12.745 31.81 12.745 32.5C12.745 33.19 12.185 33.75 11.495 33.75C10.245 33.75 9.18 34.685 9.0175 35.9238C8.93375 36.5538 8.3975 37.0112 7.78 37.0112Z" fill="#77BC48"/>
<path d="M47.5 17.4011C46.8088 17.4011 46.25 16.8411 46.25 16.1511V11.4961C46.25 10.8061 46.8088 10.2461 47.5 10.2461C48.1912 10.2461 48.75 10.8061 48.75 11.4961V16.1523C48.75 16.8423 48.1912 17.4011 47.5 17.4011Z" fill="#77BC48"/>
<path d="M32.5 17.4011C31.81 17.4011 31.25 16.8411 31.25 16.1511V11.4961C31.25 10.8061 31.81 10.2461 32.5 10.2461C33.19 10.2461 33.75 10.8061 33.75 11.4961V16.1523C33.75 16.8423 33.19 17.4011 32.5 17.4011Z" fill="#77BC48"/>
<path d="M44.2413 9.02754C44.1875 9.02754 44.1325 9.02379 44.0775 9.01754C41.37 8.66129 38.6288 8.66129 35.925 9.01754C35.2375 9.09629 34.6125 8.62504 34.5225 7.94129C34.4325 7.25629 34.915 6.62879 35.5988 6.53879C38.5188 6.15504 41.4825 6.15504 44.4025 6.53879C45.0875 6.62879 45.57 7.25629 45.4788 7.94129C45.3963 8.57004 44.8588 9.02754 44.2413 9.02754Z" fill="#77BC48"/>
<path d="M32.5 12.7464C31.81 12.7464 31.25 12.1864 31.25 11.4964C31.25 8.99636 33.12 6.86386 35.5988 6.53886C36.2787 6.45511 36.91 6.93011 37.0012 7.61511C37.0912 8.29886 36.6087 8.92761 35.925 9.01761C34.685 9.18011 33.75 10.2464 33.75 11.4964C33.75 12.1864 33.19 12.7464 32.5 12.7464Z" fill="#77BC48"/>
<path d="M47.5 12.7461C46.8088 12.7461 46.25 12.1861 46.25 11.4961C46.25 10.2461 45.3163 9.17987 44.0763 9.01737C43.3925 8.92737 42.91 8.29987 43.0013 7.61487C43.0925 6.92987 43.6987 6.45612 44.4037 6.53862C46.8812 6.86487 48.75 8.99612 48.75 11.4961C48.75 12.1861 48.1913 12.7461 47.5 12.7461Z" fill="#77BC48"/>
<path d="M72.5 73.75H7.5C6.81 73.75 6.25 73.19 6.25 72.5C6.25 71.81 6.81 71.25 7.5 71.25H72.5C73.1913 71.25 73.75 71.81 73.75 72.5C73.75 73.19 73.1913 73.75 72.5 73.75Z" fill="#77BC48"/>
<path d="M54.2875 58.0599C53.6487 58.0599 53.105 57.5736 53.0437 56.9261C52.98 56.2386 53.4862 55.6299 54.1725 55.5661C54.3887 55.5461 54.605 55.5361 54.8225 55.5361C55.5137 55.5361 56.0725 56.0961 56.0725 56.7861C56.0725 57.4761 55.5137 58.0361 54.8225 58.0361C54.6837 58.0361 54.5425 58.0424 54.405 58.0549C54.365 58.0586 54.3262 58.0599 54.2875 58.0599Z" fill="#77BC48"/>
<path d="M25.7137 58.0599C25.675 58.0599 25.6362 58.0586 25.5975 58.0549C25.4587 58.0424 25.3187 58.0361 25.18 58.0361C24.49 58.0361 23.93 57.4761 23.93 56.7861C23.93 56.0961 24.49 55.5361 25.18 55.5361C25.3962 55.5361 25.6125 55.5461 25.8287 55.5661C26.5162 55.6299 27.0225 56.2386 26.9575 56.9261C26.8975 57.5736 26.3525 58.0599 25.7137 58.0599Z" fill="#77BC48"/>
<path d="M7.5 73.75C6.81 73.75 6.25 73.19 6.25 72.5V62.6787C6.25 61.9887 6.81 61.4287 7.5 61.4287C8.19 61.4287 8.75 61.9887 8.75 62.6787V72.5C8.75 73.19 8.19 73.75 7.5 73.75Z" fill="#77BC48"/>
<path d="M7.5 63.9286C6.81 63.9286 6.25 63.3686 6.25 62.6786C6.25 58.7399 9.45375 55.5361 13.3925 55.5361C14.0825 55.5361 14.6425 56.0961 14.6425 56.7861C14.6425 57.4761 14.0825 58.0361 13.3925 58.0361C10.8325 58.0361 8.75 60.1186 8.75 62.6786C8.75 63.3686 8.19 63.9286 7.5 63.9286Z" fill="#77BC48"/>
<path d="M25.1788 58.0361H13.3925C12.7025 58.0361 12.1425 57.4761 12.1425 56.7861C12.1425 56.0961 12.7025 55.5361 13.3925 55.5361H25.1788C25.8688 55.5361 26.4288 56.0961 26.4288 56.7861C26.4288 57.4761 25.8688 58.0361 25.1788 58.0361Z" fill="#77BC48"/>
<path d="M19.2863 58.0361C14.8825 58.0361 11.1613 54.3149 11.1613 49.9111C11.1613 45.5074 14.8825 41.7861 19.2863 41.7861C23.69 41.7861 27.4113 45.5074 27.4113 49.9111C27.4113 54.3149 23.69 58.0361 19.2863 58.0361ZM19.2863 44.2861C16.2375 44.2861 13.6613 46.8624 13.6613 49.9111C13.6613 52.9599 16.2375 55.5361 19.2863 55.5361C22.335 55.5361 24.9113 52.9599 24.9113 49.9111C24.9113 46.8624 22.335 44.2861 19.2863 44.2861Z" fill="#77BC48"/>
<path d="M72.5 73.75C71.8088 73.75 71.25 73.19 71.25 72.5V62.6787C71.25 61.9887 71.8088 61.4287 72.5 61.4287C73.1912 61.4287 73.75 61.9887 73.75 62.6787V72.5C73.75 73.19 73.1912 73.75 72.5 73.75Z" fill="#77BC48"/>
<path d="M72.5 63.9286C71.8087 63.9286 71.25 63.3686 71.25 62.6786C71.25 60.1186 69.1675 58.0361 66.6075 58.0361C65.9162 58.0361 65.3575 57.4761 65.3575 56.7861C65.3575 56.0961 65.9162 55.5361 66.6075 55.5361C70.545 55.5361 73.75 58.7399 73.75 62.6786C73.75 63.3686 73.1912 63.9286 72.5 63.9286Z" fill="#77BC48"/>
<path d="M66.6075 58.0361H54.8212C54.13 58.0361 53.5712 57.4761 53.5712 56.7861C53.5712 56.0961 54.13 55.5361 54.8212 55.5361H66.6075C67.2987 55.5361 67.8575 56.0961 67.8575 56.7861C67.8575 57.4761 67.2987 58.0361 66.6075 58.0361Z" fill="#77BC48"/>
<path d="M60.7137 58.0361C56.31 58.0361 52.5887 54.3149 52.5887 49.9111C52.5887 45.5074 56.31 41.7861 60.7137 41.7861C65.1175 41.7861 68.8387 45.5074 68.8387 49.9111C68.8387 54.3149 65.1187 58.0361 60.7137 58.0361ZM60.7137 44.2861C57.665 44.2861 55.0887 46.8624 55.0887 49.9111C55.0887 52.9599 57.665 55.5361 60.7137 55.5361C63.7625 55.5361 66.3387 52.9599 66.3387 49.9111C66.3387 46.8624 63.7637 44.2861 60.7137 44.2861Z" fill="#77BC48"/>
<path d="M55 61.25C54.3088 61.25 53.75 60.69 53.75 60C53.75 56.5538 50.9462 53.75 47.5 53.75C46.8088 53.75 46.25 53.19 46.25 52.5C46.25 51.81 46.8088 51.25 47.5 51.25C52.3238 51.25 56.25 55.175 56.25 60C56.25 60.69 55.6912 61.25 55 61.25Z" fill="#77BC48"/>
<path d="M25 61.25C24.31 61.25 23.75 60.69 23.75 60C23.75 55.175 27.675 51.25 32.5 51.25C33.19 51.25 33.75 51.81 33.75 52.5C33.75 53.19 33.19 53.75 32.5 53.75C29.0538 53.75 26.25 56.5538 26.25 60C26.25 60.69 25.69 61.25 25 61.25Z" fill="#77BC48"/>
<path d="M25 73.75C24.31 73.75 23.75 73.19 23.75 72.5V60C23.75 59.31 24.31 58.75 25 58.75C25.69 58.75 26.25 59.31 26.25 60V72.5C26.25 73.19 25.69 73.75 25 73.75Z" fill="#77BC48"/>
<path d="M47.5 53.75H32.5C31.81 53.75 31.25 53.19 31.25 52.5C31.25 51.81 31.81 51.25 32.5 51.25H47.5C48.1912 51.25 48.75 51.81 48.75 52.5C48.75 53.19 48.1912 53.75 47.5 53.75Z" fill="#77BC48"/>
<path d="M40 53.75C34.58 53.75 30 49.17 30 43.75C30 38.33 34.58 33.75 40 33.75C45.4212 33.75 50 38.33 50 43.75C50 49.17 45.4212 53.75 40 53.75ZM40 36.25C35.935 36.25 32.5 39.685 32.5 43.75C32.5 47.815 35.935 51.25 40 51.25C44.065 51.25 47.5 47.815 47.5 43.75C47.5 39.685 44.065 36.25 40 36.25Z" fill="#77BC48"/>
</svg>
