<svg width="1734" height="524" viewBox="0 0 1734 524" fill="none" xmlns="http://www.w3.org/2000/svg">
<path d="M1.50005 522.5L108.501 389.907C110.817 387.039 114.635 385.326 118.715 385.326H220.223C224.234 385.326 227.998 383.669 230.325 380.878L330.93 252.598C335.876 246.669 346.19 246.669 351.136 252.598L442.871 380.876C448.69 387.852 461.294 386.353 464.658 378.284L561.884 130.119C565.249 122.05 577.853 120.551 583.672 127.527L680.575 243.704C682.902 246.494 686.666 248.151 690.678 248.151H792.308C796.319 248.151 800.083 249.808 802.411 252.598L903.015 373.213C907.961 379.143 918.275 379.143 923.221 373.213L1025.55 248.151L1137.55 115.424C1139.87 112.634 1143.64 110.977 1147.65 110.977H1251.73C1255.28 110.977 1258.66 109.68 1261.01 107.413L1368.45 1.5" stroke="#84D34D" stroke-opacity="0.25" stroke-width="3" stroke-miterlimit="10" stroke-linecap="round"/>
<path d="M1.04106 521.5L286.276 352.181L431.249 349.043L576.222 175.271L866.168 348.386L1007.25 173.957L1156.11 1.5L1302.78 173.957L1446.06 175.271L1733.04 1.5" stroke="#84D34D" stroke-opacity="0.5" stroke-width="1.5" stroke-miterlimit="10" stroke-linecap="round" stroke-dasharray="5 5"/>
</svg>
