<svg width="29" height="25" viewBox="0 0 29 25" fill="none" xmlns="http://www.w3.org/2000/svg">
<path d="M20.4393 6.71631H27.3576C28.1758 6.71631 28.84 7.38056 28.84 8.19876V15.117C28.84 20.5716 24.4115 25.0001 18.9569 25.0001H12.0386C11.2204 25.0001 10.5562 24.3358 10.5562 23.5176V16.5994C10.5562 11.1448 14.9847 6.71631 20.4393 6.71631Z" fill="#77BC48"/>
<path d="M21.5146 8.98172C21.1151 9.04188 20.8403 9.4145 20.9006 9.814C21.8152 15.6522 17.1265 21.1015 11.2049 21.0503C-1.79492 20.5128 -1.79383 1.99951 11.2049 1.4627C13.392 1.4627 15.4603 2.16681 17.1862 3.4986C17.5057 3.74525 17.9651 3.68601 18.212 3.36623C18.4588 3.04644 18.3994 2.58715 18.0796 2.34051C16.0953 0.809423 13.718 0 11.2045 0C-3.73484 0.61726 -3.73484 21.8959 11.2045 22.513C18.0099 22.5713 23.4004 16.3071 22.3463 9.59569C22.2862 9.19656 21.9135 8.92139 21.514 8.98172H21.5146Z" fill="white"/>
<path d="M24.0443 1.8783C23.7582 1.59325 23.2947 1.59399 23.01 1.88031L11.2575 13.6772L7.36419 9.7683C7.07914 9.48234 6.6162 9.48161 6.32987 9.76628C6.04391 10.0513 6.043 10.5145 6.32786 10.8006L10.7394 15.2297C11.012 15.5138 11.5031 15.5143 11.7757 15.2297L24.0464 2.91279C24.3314 2.62665 24.3305 2.16334 24.0443 1.8783Z" fill="white"/>
</svg>
