<svg width="232" height="50" viewBox="0 0 232 50" fill="none" xmlns="http://www.w3.org/2000/svg">
<path d="M231.867 30.8914V32.8286H228.678V42.8571H226.278V32.8286H223.089V30.8914H231.867Z" fill="#373435"/>
<path d="M217.409 42.9771C216.574 42.9771 215.82 42.8343 215.146 42.5486C214.483 42.2629 213.957 41.8514 213.569 41.3143C213.18 40.7771 212.98 40.1429 212.969 39.4114H215.54C215.574 39.9029 215.746 40.2914 216.054 40.5771C216.374 40.8629 216.809 41.0057 217.357 41.0057C217.917 41.0057 218.357 40.8743 218.677 40.6114C218.997 40.3371 219.157 39.9829 219.157 39.5486C219.157 39.1943 219.049 38.9029 218.832 38.6743C218.614 38.4457 218.34 38.2686 218.009 38.1429C217.689 38.0057 217.243 37.8571 216.672 37.6971C215.894 37.4686 215.26 37.2457 214.769 37.0286C214.289 36.8 213.872 36.4629 213.517 36.0171C213.174 35.56 213.003 34.9543 213.003 34.2C213.003 33.4914 213.18 32.8743 213.534 32.3486C213.889 31.8229 214.386 31.4229 215.026 31.1486C215.666 30.8629 216.397 30.72 217.22 30.72C218.454 30.72 219.454 31.0229 220.22 31.6286C220.997 32.2229 221.426 33.0571 221.506 34.1314H218.866C218.843 33.72 218.666 33.3829 218.334 33.12C218.014 32.8457 217.586 32.7086 217.049 32.7086C216.58 32.7086 216.203 32.8286 215.917 33.0686C215.643 33.3086 215.506 33.6571 215.506 34.1143C215.506 34.4343 215.609 34.7029 215.814 34.92C216.032 35.1257 216.294 35.2971 216.603 35.4343C216.923 35.56 217.369 35.7086 217.94 35.88C218.717 36.1086 219.352 36.3371 219.843 36.5657C220.334 36.7943 220.757 37.1371 221.112 37.5943C221.466 38.0514 221.643 38.6514 221.643 39.3943C221.643 40.0343 221.477 40.6286 221.146 41.1771C220.814 41.7257 220.329 42.1657 219.689 42.4971C219.049 42.8171 218.289 42.9771 217.409 42.9771Z" fill="#373435"/>
<path d="M203.69 30.8914V38.2971C203.69 39.1086 203.901 39.7314 204.324 40.1657C204.747 40.5886 205.341 40.8 206.107 40.8C206.884 40.8 207.484 40.5886 207.907 40.1657C208.33 39.7314 208.541 39.1086 208.541 38.2971V30.8914H210.958V38.28C210.958 39.2971 210.736 40.16 210.29 40.8686C209.856 41.5657 209.267 42.0914 208.524 42.4457C207.793 42.8 206.976 42.9771 206.073 42.9771C205.181 42.9771 204.37 42.8 203.638 42.4457C202.918 42.0914 202.347 41.5657 201.924 40.8686C201.501 40.16 201.29 39.2971 201.29 38.28V30.8914H203.69Z" fill="#373435"/>
<path d="M196.513 42.8571L193.873 38.1943H192.742V42.8571H190.342V30.8914H194.833C195.759 30.8914 196.548 31.0571 197.199 31.3886C197.851 31.7086 198.336 32.1486 198.656 32.7086C198.988 33.2571 199.153 33.8743 199.153 34.56C199.153 35.3486 198.925 36.0628 198.468 36.7028C198.011 37.3314 197.331 37.7657 196.428 38.0057L199.291 42.8571H196.513ZM192.742 36.3943H194.748C195.399 36.3943 195.885 36.24 196.205 35.9314C196.525 35.6114 196.685 35.1714 196.685 34.6114C196.685 34.0628 196.525 33.64 196.205 33.3428C195.885 33.0343 195.399 32.88 194.748 32.88H192.742V36.3943Z" fill="#373435"/>
<path d="M188.591 30.8914V32.8286H185.402V42.8571H183.002V32.8286H179.814V30.8914H188.591Z" fill="#373435"/>
<path d="M174.661 30.8914V32.8286H169.673V35.8971H173.496V37.8H169.673V42.8571H167.273V30.8914H174.661Z" fill="#373435"/>
<path d="M164.902 30.8914V42.8571H162.502V30.8914H164.902Z" fill="#373435"/>
<path d="M157.568 40.5771H152.802L152.013 42.8571H149.493L153.796 30.8743H156.59L160.893 42.8571H158.356L157.568 40.5771ZM156.916 38.6571L155.185 33.6514L153.453 38.6571H156.916Z" fill="#373435"/>
<path d="M215.426 19.5257H219.369V21.4286H213.026V9.46286H215.426V19.5257Z" fill="#373435"/>
<path d="M208.092 19.1486H203.326L202.538 21.4286H200.018L204.321 9.44571H207.115L211.418 21.4286H208.881L208.092 19.1486ZM207.441 17.2286L205.709 12.2229L203.978 17.2286H207.441Z" fill="#373435"/>
<path d="M199.004 9.46286V11.4H195.815V21.4286H193.415V11.4H190.227V9.46286H199.004Z" fill="#373435"/>
<path d="M188.49 9.46286V21.4286H186.09V9.46286H188.49Z" fill="#373435"/>
<path d="M184.386 13.1657C184.386 13.8057 184.231 14.4057 183.923 14.9657C183.626 15.5257 183.151 15.9771 182.5 16.32C181.86 16.6629 181.049 16.8343 180.066 16.8343H178.06V21.4286H175.66V9.46286H180.066C180.991 9.46286 181.78 9.62286 182.431 9.94286C183.083 10.2629 183.569 10.7029 183.889 11.2629C184.22 11.8229 184.386 12.4571 184.386 13.1657ZM179.963 14.8971C180.626 14.8971 181.117 14.7486 181.437 14.4514C181.757 14.1429 181.917 13.7143 181.917 13.1657C181.917 12 181.266 11.4171 179.963 11.4171H178.06V14.8971H179.963Z" fill="#373435"/>
<path d="M170.726 19.1486H165.96L165.172 21.4286H162.652L166.955 9.44571H169.749L174.052 21.4286H171.515L170.726 19.1486ZM170.075 17.2286L168.343 12.2229L166.612 17.2286H170.075Z" fill="#373435"/>
<path d="M149.648 15.4286C149.648 14.2514 149.91 13.2 150.436 12.2743C150.973 11.3371 151.699 10.6114 152.613 10.0971C153.539 9.57142 154.573 9.30856 155.716 9.30856C157.053 9.30856 158.225 9.65142 159.23 10.3371C160.236 11.0228 160.939 11.9714 161.339 13.1828H158.579C158.305 12.6114 157.916 12.1828 157.413 11.8971C156.922 11.6114 156.35 11.4686 155.699 11.4686C155.002 11.4686 154.379 11.6343 153.83 11.9657C153.293 12.2857 152.87 12.7428 152.562 13.3371C152.265 13.9314 152.116 14.6286 152.116 15.4286C152.116 16.2171 152.265 16.9143 152.562 17.52C152.87 18.1143 153.293 18.5771 153.83 18.9086C154.379 19.2286 155.002 19.3886 155.699 19.3886C156.35 19.3886 156.922 19.2457 157.413 18.96C157.916 18.6628 158.305 18.2286 158.579 17.6571H161.339C160.939 18.88 160.236 19.8343 159.23 20.52C158.236 21.1943 157.065 21.5314 155.716 21.5314C154.573 21.5314 153.539 21.2743 152.613 20.76C151.699 20.2343 150.973 19.5086 150.436 18.5828C149.91 17.6571 149.648 16.6057 149.648 15.4286Z" fill="#373435"/>
<path d="M100.558 40.1531V43.7529H108.768C109.141 43.7529 109.747 43.8459 110.307 43.8459C112.92 43.8459 116.792 43.2864 117.025 38.5204C117.025 35.1927 115.393 33.552 110.494 31.8261C108.441 31.1653 104.476 30.8384 104.476 28.5449C104.476 27.1923 106.109 26.8656 108.115 26.8656H116.045V23.6003H108.441C104.15 23.6003 100.558 24.2535 100.558 28.8716C100.558 32.1527 102.843 33.8868 106.435 34.8661C110.167 35.8455 113.107 36.5063 113.107 38.5204C113.107 39.9662 111.707 40.2464 110.401 40.2464C109.981 40.2464 109.515 40.1531 109.095 40.1531H100.558ZM92.0211 43.7063H95.66V23.6003H92.0211V43.7063ZM91.6945 18.9356C91.6945 20.3815 92.8609 21.1278 94.0271 21.1278C95.1469 21.1278 96.3126 20.3815 96.3126 18.9356C96.3126 17.5825 95.0065 16.9296 94.0271 16.9296C92.7206 16.9296 91.6945 17.5825 91.6945 18.9356ZM71.4023 14.3171V43.7063H74.9938V34.5161H78.3065C81.6649 34.5161 82.6443 36.1488 82.6443 38.4814V43.7063H86.2363V37.1283C86.2363 34.8427 84.9302 32.137 81.6649 31.8103C83.2975 31.4844 85.5837 27.1923 87.589 23.6003H83.2976L81.0117 27.5189C79.6123 30.1776 78.6325 30.8309 76.9538 30.8309H74.9939V14.3171H71.4023ZM62.4917 14.3171V43.7063H66.4569V14.3171H62.4917ZM52.4154 43.7063H56.054V23.6003H52.4154V43.7063ZM52.0895 18.9356C52.0895 20.3815 53.2552 21.1278 54.422 21.1278C55.5411 21.1278 56.7075 20.3815 56.7075 18.9356C56.7075 17.5825 55.4014 16.9296 54.422 16.9296C53.1155 16.9296 52.0895 17.5825 52.0895 18.9356ZM35.1558 14.3171V35.1696C35.1558 42.0735 41.0803 43.7062 44.1123 43.7062H48.7308V40.1143H45.4184C45.1855 40.1143 44.8588 40.2073 44.6719 40.2073C40.3338 40.2073 39.121 37.2219 39.121 33.5369V14.3171H35.1558Z" fill="#373435"/>
<path d="M121.875 28.3089V23.6266H122.804L123.911 26.9411C124.014 27.2495 124.087 27.4807 124.134 27.6341C124.188 27.4642 124.272 27.2138 124.385 26.8832L125.512 23.6266H126.342V28.3089H125.746V24.3914L124.38 28.3089H123.822L122.47 24.3197V28.3089H121.875ZM119.083 28.3089V24.1755H117.54V23.6266H121.248V24.1755H119.705V28.3089H119.083Z" fill="#373435"/>
<path d="M6.57977 42.5727C6.6346 44.1148 5.42802 45.4093 3.88527 45.4641C2.34319 45.5183 1.04844 44.3117 0.994276 42.7696L0.00175685 2.89385C-0.0524295 1.35174 1.1535 0.0563715 2.69625 0.00175596C4.23833 -0.0524304 5.53308 1.15414 5.58791 2.69622L6.57977 42.5727Z" fill="#24577B"/>
<path d="M6.07618 44.2809C5.18688 45.5454 3.44097 45.8493 2.17709 44.9601C0.912568 44.0706 0.608594 42.3253 1.49787 41.0608L19.2618 16.3261C20.1512 15.0622 21.8972 14.7582 23.161 15.6475C24.4256 16.5371 24.7295 18.2823 23.84 19.5462L6.07618 44.2809Z" fill="#24577B"/>
<path d="M27.1678 45.7695C27.9603 47.0944 27.5284 48.8108 26.2037 49.6033C24.8792 50.3957 23.1624 49.9638 22.3705 48.6389L16.1058 38.2271C15.3136 36.9028 15.7452 35.1864 17.0695 34.394C18.3944 33.6015 20.1108 34.0327 20.9033 35.3576L27.1678 45.7695Z" fill="#6DAA43"/>
<line x1="138.119" y1="-2.18557e-08" x2="138.119" y2="50" stroke="#818181"/>
</svg>
