<?xml version="1.0" encoding="utf-8"?>
<!-- Generator: Adobe Illustrator 16.0.0, SVG Export Plug-In . SVG Version: 6.00 Build 0)  -->
<!DOCTYPE svg PUBLIC "-//W3C//DTD SVG 1.1//EN" "http://www.w3.org/Graphics/SVG/1.1/DTD/svg11.dtd">
<svg version="1.1" id="Layer_1" xmlns="http://www.w3.org/2000/svg" xmlns:xlink="http://www.w3.org/1999/xlink" x="0px" y="0px"
	 width="40px" height="27.287px" viewBox="0 0 40 27.287" enable-background="new 0 0 40 27.287" xml:space="preserve">
<line fill="#DD9B37" stroke="#DD9A38" stroke-width="2" stroke-linecap="round" stroke-linejoin="round" stroke-miterlimit="10" x1="9.407" y1="13.645" x2="31.407" y2="13.645"/>
<line fill="none" stroke="#DD9A38" stroke-width="2" stroke-linecap="round" stroke-linejoin="round" stroke-miterlimit="10" x1="9.422" y1="4.888" x2="31.422" y2="4.888"/>
<line fill="none" stroke="#DD9A38" stroke-width="2" stroke-linecap="round" stroke-linejoin="round" stroke-miterlimit="10" x1="9.57" y1="22.44" x2="22.57" y2="22.44"/>
<g id="Layer_2" display="none">
	<g display="inline">
		<g>
			<path d="M15.844,17.976l3.357-5.509L16.24,7.41h1.363l1.584,2.706c0.325,0.556,0.554,0.99,0.688,1.304
				c0.186-0.376,0.416-0.777,0.688-1.203l1.752-2.807h1.233l-3.036,4.971l3.274,5.595h-1.413l-2.187-3.769
				c-0.122-0.21-0.245-0.446-0.37-0.708c-0.197,0.386-0.338,0.648-0.423,0.792l-2.173,3.685H15.844z"/>
		</g>
	</g>
</g>
</svg>
