<svg width="64" height="64" viewBox="0 0 64 64" fill="none" xmlns="http://www.w3.org/2000/svg">
<path d="M22 8H6C2.692 8 0 10.692 0 14V34C0 46.132 9.868 56 22 56C25.308 56 28 53.308 28 50C28 46.692 25.308 44 22 44C17.168 44 13.132 40.56 12.2 36H22C25.308 36 28 33.308 28 30V14C28 10.692 25.308 8 22 8ZM24 30C24 31.104 23.104 32 22 32H10C8.896 32 8 32.896 8 34C8 41.72 14.28 48 22 48C23.104 48 24 48.896 24 50C24 51.104 23.104 52 22 52C12.076 52 4 43.924 4 34V14C4 12.896 4.896 12 6 12H22C23.104 12 24 12.896 24 14V30Z" fill="white"/>
<path d="M64 30V14C64 10.692 61.308 8 58 8H50C48.896 8 48 8.896 48 10C48 11.104 48.896 12 50 12H58C59.104 12 60 12.896 60 14V30C60 31.104 59.104 32 58 32H46C44.896 32 44 32.896 44 34C44 41.72 50.28 48 58 48C59.104 48 60 48.896 60 50C60 51.104 59.104 52 58 52C48.076 52 40 43.924 40 34V14C40 12.896 40.896 12 42 12C43.104 12 44 11.104 44 10C44 8.896 43.104 8 42 8C38.692 8 36 10.692 36 14V34C36 46.132 45.868 56 58 56C61.308 56 64 53.308 64 50C64 46.692 61.308 44 58 44C53.168 44 49.132 40.56 48.2 36H58C61.308 36 64 33.308 64 30Z" fill="white"/>
</svg>
