<svg width="32" height="24" viewBox="0 0 32 24" fill="none" xmlns="http://www.w3.org/2000/svg">
<path d="M22.089 4.15674H29.4609C30.3328 4.15674 31.0406 4.86455 31.0406 5.7364V13.1083C31.0406 18.9206 26.3216 23.6395 20.5093 23.6395H13.1374C12.2655 23.6395 11.5577 22.9317 11.5577 22.0598V14.688C11.5577 8.87566 16.2766 4.15674 22.089 4.15674Z" fill="#F93E05"/>
<path d="M7.72756 9L0.263903 1.53814C0.180236 1.45448 0.113867 1.35515 0.0685864 1.24583C0.0233057 1.13651 8.81583e-10 1.01935 0 0.901023C-8.81583e-10 0.782699 0.0233057 0.665534 0.0685864 0.556216C0.113867 0.446899 0.180236 0.347571 0.263903 0.263903C0.347571 0.180236 0.446899 0.113867 0.556216 0.0685864C0.665534 0.0233057 0.782699 -8.81583e-10 0.901023 0C1.01935 8.81583e-10 1.13651 0.0233057 1.24583 0.0685864C1.35515 0.113867 1.45448 0.180236 1.53814 0.263903L9 7.72756L16.4619 0.263903C16.6308 0.0949287 16.86 0 17.099 0C17.3379 0 17.5671 0.0949287 17.7361 0.263903C17.9051 0.432878 18 0.662057 18 0.901023C18 1.13999 17.9051 1.36917 17.7361 1.53814L10.2724 9L17.7361 16.4619C17.9051 16.6308 18 16.86 18 17.099C18 17.3379 17.9051 17.5671 17.7361 17.7361C17.5671 17.9051 17.3379 18 17.099 18C16.86 18 16.6308 17.9051 16.4619 17.7361L9 10.2724L1.53814 17.7361C1.36917 17.9051 1.13999 18 0.901023 18C0.662057 18 0.432878 17.9051 0.263903 17.7361C0.0949287 17.5671 0 17.3379 0 17.099C0 16.86 0.0949287 16.6308 0.263903 16.4619L7.72756 9Z" fill="white"/>
</svg>
